<svg width="239mm" height="159mm" viewBox="0 0 239 159" xmlns="http://www.w3.org/2000/svg" version="1.1" preserveAspectRatio="xMidYMid meet"><g id="svgGroup" stroke-linecap="round" fill-rule="evenodd" font-size="9pt" stroke="#000" stroke-width="0.25mm" fill="none" style="stroke:#000;stroke-width:0.25mm;fill:none"><path d="M 0 81 L 0 90 L 3 90 L 3 102 L 0 102 L 0 114 L 3 114 L 3 126 L 0 126 L 0 138 L 3 138 L 3 150 L 0 150 L 0 159 L 8.5 159 L 8.5 156 L 20.5 156 L 20.5 159 L 32.5 159 L 32.5 156 L 44.5 156 L 44.5 159 L 56.5 159 L 56.5 156 L 68.5 156 L 68.5 159 L 80.5 159 L 80.5 156 L 92.5 156 L 92.5 159 L 101 159 L 101 150 L 98 150 L 98 138 L 101 138 L 101 126 L 98 126 L 98 114 L 101 114 L 101 102 L 98 102 L 98 90 L 101 90 L 101 81 L 92.5 81 L 92.5 84 L 80.5 84 L 80.5 81 L 68.5 81 L 68.5 84 L 56.5 84 L 56.5 81 L 44.5 81 L 44.5 84 L 32.5 84 L 32.5 81 L 20.5 81 L 20.5 84 L 8.5 84 L 8.5 81 L 0 81 Z" id="front_outsideCutPath" stroke="#FF0000" stroke-width="0.1" style="stroke:#FF0000;stroke-width:0.1" vector-effect="non-scaling-stroke"/><path d="M 61.869 125.892 L 60.604 125.892 L 60.604 120.491 A 3.574 3.574 0 0 0 60.563 119.931 Q 60.516 119.635 60.415 119.4 A 1.504 1.504 0 0 0 60.14 118.968 A 1.426 1.426 0 0 0 59.555 118.595 Q 59.325 118.514 59.043 118.483 A 3.352 3.352 0 0 0 58.685 118.465 A 3.827 3.827 0 0 0 57.969 118.527 Q 57.57 118.604 57.263 118.772 A 1.783 1.783 0 0 0 56.765 119.173 A 2.067 2.067 0 0 0 56.406 119.802 Q 56.189 120.378 56.16 121.237 A 8.101 8.101 0 0 0 56.156 121.512 L 56.156 125.892 L 54.891 125.892 L 54.891 117.543 L 55.92 117.543 L 56.125 118.686 L 56.186 118.686 A 2.56 2.56 0 0 1 57.189 117.773 A 3.079 3.079 0 0 1 57.275 117.73 A 3.424 3.424 0 0 1 58.494 117.405 A 4.14 4.14 0 0 1 58.837 117.391 A 4.992 4.992 0 0 1 59.687 117.458 Q 60.577 117.613 61.107 118.118 Q 61.869 118.846 61.869 120.445 L 61.869 125.892 Z M 37.577 117.543 L 37.577 118.526 L 35.452 118.526 L 35.452 125.892 L 34.188 125.892 L 34.188 118.526 L 32.695 118.526 L 32.695 117.955 L 34.188 117.498 L 34.188 117.033 Q 34.188 113.956 36.877 113.956 A 4.072 4.072 0 0 1 37.453 114 Q 37.901 114.064 38.431 114.222 L 38.103 115.235 Q 37.584 115.068 37.172 115.019 A 2.719 2.719 0 0 0 36.854 114.999 A 1.705 1.705 0 0 0 36.443 115.046 A 1.095 1.095 0 0 0 35.795 115.475 Q 35.484 115.907 35.455 116.812 A 5.97 5.97 0 0 0 35.452 117.002 L 35.452 117.543 L 37.577 117.543 Z M 68.305 124.848 L 68.305 125.816 Q 68.119 125.905 67.775 125.966 A 4.729 4.729 0 0 1 67.7 125.979 A 5.48 5.48 0 0 1 67.342 126.026 Q 67.174 126.042 67.023 126.044 A 3.24 3.24 0 0 1 66.98 126.044 Q 64.558 126.044 64.558 123.492 L 64.558 118.526 L 63.362 118.526 L 63.362 117.917 L 64.558 117.391 L 65.091 115.609 L 65.822 115.609 L 65.822 117.543 L 68.244 117.543 L 68.244 118.526 L 65.822 118.526 L 65.822 123.439 A 2.546 2.546 0 0 0 65.859 123.886 Q 65.903 124.132 65.999 124.326 A 1.226 1.226 0 0 0 66.18 124.597 Q 66.538 125.001 67.163 125.001 A 4.153 4.153 0 0 0 67.771 124.957 A 3.824 3.824 0 0 0 67.81 124.951 Q 68.108 124.904 68.288 124.853 A 1.897 1.897 0 0 0 68.305 124.848 Z M 43.907 117.482 L 43.732 118.655 A 5.573 5.573 0 0 0 43.331 118.581 Q 43.053 118.541 42.818 118.541 A 2.191 2.191 0 0 0 41.199 119.24 A 2.997 2.997 0 0 0 41.085 119.364 A 2.887 2.887 0 0 0 40.389 120.985 A 3.838 3.838 0 0 0 40.365 121.413 L 40.365 125.892 L 39.101 125.892 L 39.101 117.543 L 40.144 117.543 L 40.289 119.09 L 40.35 119.09 A 4.27 4.27 0 0 1 40.828 118.407 A 3.262 3.262 0 0 1 41.47 117.833 A 2.521 2.521 0 0 1 42.909 117.391 Q 43.466 117.391 43.907 117.482 Z M 52.559 122.98 A 6.531 6.531 0 0 0 52.675 121.71 Q 52.675 120.898 52.503 120.224 A 3.937 3.937 0 0 0 51.643 118.556 A 3.31 3.31 0 0 0 50.106 117.565 A 4.249 4.249 0 0 0 48.858 117.391 A 4.911 4.911 0 0 0 47.976 117.467 A 3.345 3.345 0 0 0 46.025 118.53 A 3.493 3.493 0 0 0 45.596 119.125 Q 45.265 119.701 45.119 120.44 A 6.565 6.565 0 0 0 45.004 121.71 A 6.326 6.326 0 0 0 45.084 122.734 A 4.678 4.678 0 0 0 45.476 124.01 A 4.156 4.156 0 0 0 45.568 124.191 A 3.423 3.423 0 0 0 46.817 125.518 A 3.521 3.521 0 0 0 47.625 125.878 A 4.061 4.061 0 0 0 48.805 126.044 A 4.91 4.91 0 0 0 49.663 125.972 A 3.371 3.371 0 0 0 51.646 124.898 A 3.527 3.527 0 0 0 52.066 124.321 Q 52.409 123.735 52.559 122.98 Z M 46.314 121.71 A 6.403 6.403 0 0 0 46.375 122.625 Q 46.442 123.089 46.584 123.465 A 2.653 2.653 0 0 0 46.954 124.147 A 2.072 2.072 0 0 0 48.304 124.942 A 3.14 3.14 0 0 0 48.836 124.985 A 2.937 2.937 0 0 0 49.61 124.889 A 2.044 2.044 0 0 0 50.721 124.151 Q 51.365 123.317 51.365 121.71 A 6.309 6.309 0 0 0 51.305 120.811 Q 51.168 119.866 50.721 119.291 A 2.08 2.08 0 0 0 49.428 118.52 A 3.189 3.189 0 0 0 48.82 118.465 A 3.009 3.009 0 0 0 48.071 118.553 A 2.014 2.014 0 0 0 46.947 119.28 A 2.614 2.614 0 0 0 46.54 120.065 Q 46.314 120.745 46.314 121.71 Z" id="front_labelLayer" stroke="#777777" fill="#777777" style="stroke:#777777;fill:#777777" vector-effect="non-scaling-stroke"/><path d="M 107 81 L 107 90 L 104 90 L 104 102 L 107 102 L 107 114 L 104 114 L 104 126 L 107 126 L 107 138 L 104 138 L 104 150 L 107 150 L 107 159 L 113.5 159 L 113.5 156 L 125.5 156 L 125.5 159 L 132 159 L 132 150 L 135 150 L 135 138 L 132 138 L 132 126 L 135 126 L 135 114 L 132 114 L 132 102 L 135 102 L 135 90 L 132 90 L 132 81 L 125.5 81 L 125.5 84 L 113.5 84 L 113.5 81 L 107 81 Z" id="left_outsideCutPath" stroke="#FF0000" stroke-width="0.1" style="stroke:#FF0000;stroke-width:0.1" vector-effect="non-scaling-stroke"/><path d="M 121.705 119.024 L 121.705 119.414 L 120.861 119.414 L 120.861 122.342 L 120.358 122.342 L 120.358 119.414 L 119.765 119.414 L 119.765 119.187 L 120.358 119.005 L 120.358 118.821 A 2.037 2.037 0 0 1 120.406 118.359 Q 120.553 117.73 121.155 117.621 A 1.527 1.527 0 0 1 121.427 117.598 A 1.618 1.618 0 0 1 121.656 117.615 Q 121.767 117.631 121.891 117.662 A 3.253 3.253 0 0 1 122.044 117.704 L 121.914 118.106 Q 121.708 118.04 121.544 118.02 A 1.081 1.081 0 0 0 121.418 118.012 A 0.678 0.678 0 0 0 121.254 118.031 A 0.435 0.435 0 0 0 120.997 118.202 Q 120.873 118.373 120.862 118.733 A 2.373 2.373 0 0 0 120.861 118.809 L 120.861 119.024 L 121.705 119.024 Z M 119.353 120.456 L 119.353 120.773 L 117.068 120.773 A 2.017 2.017 0 0 0 117.103 121.111 Q 117.139 121.295 117.212 121.44 A 0.944 0.944 0 0 0 117.363 121.66 A 0.913 0.913 0 0 0 117.842 121.931 A 1.384 1.384 0 0 0 118.151 121.963 A 2.654 2.654 0 0 0 119.145 121.766 A 3.043 3.043 0 0 0 119.211 121.739 L 119.211 122.187 Q 118.944 122.302 118.707 122.352 A 2.11 2.11 0 0 1 118.498 122.385 Q 118.394 122.396 118.278 122.4 A 4.094 4.094 0 0 1 118.133 122.402 A 1.953 1.953 0 0 1 117.644 122.344 A 1.383 1.383 0 0 1 116.972 121.954 A 1.479 1.479 0 0 1 116.618 121.304 Q 116.557 121.074 116.548 120.801 A 2.871 2.871 0 0 1 116.547 120.71 A 2.639 2.639 0 0 1 116.596 120.187 Q 116.686 119.742 116.942 119.435 A 1.288 1.288 0 0 1 117.88 118.967 A 1.777 1.777 0 0 1 118.003 118.963 A 1.531 1.531 0 0 1 118.434 119.021 A 1.165 1.165 0 0 1 118.99 119.373 Q 119.353 119.783 119.353 120.456 Z M 123.837 121.927 L 123.837 122.311 Q 123.763 122.347 123.626 122.371 A 1.877 1.877 0 0 1 123.596 122.376 A 2.178 2.178 0 0 1 123.454 122.395 Q 123.387 122.401 123.327 122.402 A 1.287 1.287 0 0 1 123.31 122.402 Q 122.347 122.402 122.347 121.388 L 122.347 119.414 L 121.872 119.414 L 121.872 119.172 L 122.347 118.963 L 122.559 118.255 L 122.85 118.255 L 122.85 119.024 L 123.812 119.024 L 123.812 119.414 L 122.85 119.414 L 122.85 121.367 A 1.012 1.012 0 0 0 122.864 121.544 Q 122.882 121.642 122.92 121.719 A 0.487 0.487 0 0 0 122.992 121.827 A 0.467 0.467 0 0 0 123.279 121.98 A 0.672 0.672 0 0 0 123.383 121.987 A 1.65 1.65 0 0 0 123.624 121.97 A 1.522 1.522 0 0 0 123.64 121.968 Q 123.764 121.948 123.837 121.927 Z M 115.666 117.631 L 115.666 122.342 L 115.163 122.342 L 115.163 117.631 L 115.666 117.631 Z M 117.08 120.365 L 118.814 120.365 A 1.712 1.712 0 0 0 118.794 120.089 Q 118.748 119.81 118.602 119.637 Q 118.39 119.384 117.997 119.384 A 0.991 0.991 0 0 0 117.711 119.423 A 0.765 0.765 0 0 0 117.36 119.644 A 0.993 0.993 0 0 0 117.162 119.977 Q 117.1 120.149 117.08 120.365 Z" id="left_labelLayer" stroke="#777777" fill="#777777" style="stroke:#777777;fill:#777777" vector-effect="non-scaling-stroke"/><path d="M 141 131 L 141 137.5 L 138 137.5 L 138 149.5 L 141 149.5 L 141 156 L 146.5 156 L 146.5 159 L 158.5 159 L 158.5 156 L 170.5 156 L 170.5 159 L 182.5 159 L 182.5 156 L 194.5 156 L 194.5 159 L 206.5 159 L 206.5 156 L 218.5 156 L 218.5 159 L 230.5 159 L 230.5 156 L 236 156 L 236 149.5 L 239 149.5 L 239 137.5 L 236 137.5 L 236 131 L 230.5 131 L 230.5 128 L 218.5 128 L 218.5 131 L 206.5 131 L 206.5 128 L 194.5 128 L 194.5 131 L 182.5 131 L 182.5 128 L 170.5 128 L 170.5 131 L 158.5 131 L 158.5 128 L 146.5 128 L 146.5 131 L 141 131 Z" id="top_outsideCutPath" stroke="#FF0000" stroke-width="0.1" style="stroke:#FF0000;stroke-width:0.1" vector-effect="non-scaling-stroke"/><path d="M 190.728 144.372 L 190.692 144.372 A 4.756 4.756 0 0 1 190.723 144.723 A 3.985 3.985 0 0 1 190.728 144.923 L 190.728 146.288 L 190.226 146.288 L 190.226 141.481 L 190.634 141.481 L 190.704 141.935 L 190.728 141.935 A 1.353 1.353 0 0 1 190.924 141.713 A 1.046 1.046 0 0 1 191.179 141.541 A 1.259 1.259 0 0 1 191.54 141.436 A 1.629 1.629 0 0 1 191.77 141.42 A 1.54 1.54 0 0 1 192.205 141.478 A 1.139 1.139 0 0 1 192.788 141.871 Q 193.081 142.24 193.135 142.851 A 3.272 3.272 0 0 1 193.147 143.137 Q 193.147 143.954 192.782 144.407 A 1.19 1.19 0 0 1 191.937 144.851 A 1.704 1.704 0 0 1 191.77 144.859 A 1.524 1.524 0 0 1 191.386 144.813 A 1.326 1.326 0 0 1 191.178 144.74 Q 190.91 144.62 190.728 144.372 Z M 185.818 144.384 L 185.818 144.768 Q 185.744 144.804 185.607 144.828 A 1.877 1.877 0 0 1 185.577 144.834 A 2.178 2.178 0 0 1 185.435 144.852 Q 185.368 144.858 185.308 144.859 A 1.287 1.287 0 0 1 185.291 144.859 Q 184.328 144.859 184.328 143.845 L 184.328 141.871 L 183.853 141.871 L 183.853 141.629 L 184.328 141.42 L 184.54 140.712 L 184.831 140.712 L 184.831 141.481 L 185.794 141.481 L 185.794 141.871 L 184.831 141.871 L 184.831 143.824 A 1.012 1.012 0 0 0 184.845 144.002 Q 184.863 144.099 184.901 144.176 A 0.487 0.487 0 0 0 184.973 144.284 A 0.467 0.467 0 0 0 185.26 144.437 A 0.672 0.672 0 0 0 185.364 144.445 A 1.65 1.65 0 0 0 185.605 144.427 A 1.522 1.522 0 0 0 185.621 144.425 Q 185.745 144.405 185.818 144.384 Z M 188.936 144.404 A 1.402 1.402 0 0 0 189.103 144.174 Q 189.345 143.761 189.345 143.137 Q 189.345 142.347 188.934 141.883 A 1.316 1.316 0 0 0 188.324 141.489 A 1.689 1.689 0 0 0 187.828 141.42 A 1.952 1.952 0 0 0 187.477 141.45 A 1.329 1.329 0 0 0 186.702 141.873 Q 186.296 142.325 186.296 143.137 A 2.514 2.514 0 0 0 186.328 143.544 A 1.859 1.859 0 0 0 186.484 144.051 A 1.652 1.652 0 0 0 186.52 144.123 A 1.361 1.361 0 0 0 187.017 144.65 A 1.399 1.399 0 0 0 187.338 144.793 A 1.614 1.614 0 0 0 187.807 144.859 A 1.951 1.951 0 0 0 188.147 144.831 A 1.34 1.34 0 0 0 188.936 144.404 Z M 186.817 143.137 A 2.545 2.545 0 0 0 186.841 143.5 Q 186.868 143.685 186.924 143.834 A 1.054 1.054 0 0 0 187.071 144.105 A 0.824 0.824 0 0 0 187.608 144.421 A 1.248 1.248 0 0 0 187.819 144.438 A 1.167 1.167 0 0 0 188.127 144.4 A 0.812 0.812 0 0 0 188.568 144.107 Q 188.824 143.775 188.824 143.137 A 2.507 2.507 0 0 0 188.8 142.779 Q 188.774 142.598 188.719 142.45 A 1.035 1.035 0 0 0 188.568 142.176 A 0.827 0.827 0 0 0 188.054 141.869 A 1.267 1.267 0 0 0 187.813 141.847 Q 187.319 141.847 187.068 142.171 Q 186.887 142.404 186.836 142.802 A 2.656 2.656 0 0 0 186.817 143.137 Z M 190.728 143.025 L 190.728 143.137 A 3.323 3.323 0 0 0 190.745 143.48 Q 190.781 143.827 190.896 144.037 A 0.758 0.758 0 0 0 190.961 144.137 A 0.729 0.729 0 0 0 191.331 144.387 Q 191.455 144.426 191.605 144.435 A 1.616 1.616 0 0 0 191.709 144.438 A 0.847 0.847 0 0 0 192.038 144.377 Q 192.228 144.297 192.364 144.117 A 1.002 1.002 0 0 0 192.383 144.09 A 1.215 1.215 0 0 0 192.549 143.735 Q 192.626 143.475 192.626 143.131 A 2.536 2.536 0 0 0 192.602 142.771 Q 192.55 142.406 192.383 142.179 A 0.782 0.782 0 0 0 191.811 141.853 A 1.081 1.081 0 0 0 191.697 141.847 A 1.448 1.448 0 0 0 191.426 141.871 Q 191.276 141.899 191.16 141.963 A 0.664 0.664 0 0 0 190.961 142.129 A 0.861 0.861 0 0 0 190.827 142.374 Q 190.732 142.631 190.728 143.025 Z" id="top_labelLayer" stroke="#777777" fill="#777777" style="stroke:#777777;fill:#777777" vector-effect="non-scaling-stroke"/><path d="M 0 0 L 0 9 L 3 9 L 3 21 L 0 21 L 0 33 L 3 33 L 3 45 L 0 45 L 0 57 L 3 57 L 3 69 L 0 69 L 0 78 L 8.5 78 L 8.5 75 L 20.5 75 L 20.5 78 L 32.5 78 L 32.5 75 L 44.5 75 L 44.5 78 L 56.5 78 L 56.5 75 L 68.5 75 L 68.5 78 L 80.5 78 L 80.5 75 L 92.5 75 L 92.5 78 L 101 78 L 101 69 L 98 69 L 98 57 L 101 57 L 101 45 L 98 45 L 98 33 L 101 33 L 101 21 L 98 21 L 98 9 L 101 9 L 101 0 L 92.5 0 L 92.5 3 L 80.5 3 L 80.5 0 L 68.5 0 L 68.5 3 L 56.5 3 L 56.5 0 L 44.5 0 L 44.5 3 L 32.5 3 L 32.5 0 L 20.5 0 L 20.5 3 L 8.5 3 L 8.5 0 L 0 0 Z" id="back_outsideCutPath" stroke="#FF0000" stroke-width="0.1" style="stroke:#FF0000;stroke-width:0.1" vector-effect="non-scaling-stroke"/><path d="M 61.179 40.577 L 61.24 40.577 Q 61.491 40.221 61.943 39.696 A 27.17 27.17 0 0 1 62.238 39.358 L 64.935 36.501 L 66.435 36.501 L 63.053 40.059 L 66.671 44.85 L 65.14 44.85 L 62.192 40.904 L 61.24 41.727 L 61.24 44.85 L 59.991 44.85 L 59.991 32.998 L 61.24 32.998 L 61.24 39.282 Q 61.24 39.693 61.181 40.545 A 52.35 52.35 0 0 1 61.179 40.577 Z M 35.593 43.776 L 35.502 43.776 L 35.235 44.85 L 34.329 44.85 L 34.329 32.998 L 35.593 32.998 L 35.593 35.877 A 26.363 26.363 0 0 1 35.579 36.768 Q 35.565 37.189 35.536 37.564 A 15.796 15.796 0 0 1 35.532 37.614 L 35.593 37.614 A 2.875 2.875 0 0 1 37.692 36.395 A 4.319 4.319 0 0 1 38.213 36.364 A 3.865 3.865 0 0 1 39.301 36.509 A 2.893 2.893 0 0 1 40.769 37.488 A 3.726 3.726 0 0 1 41.422 38.746 Q 41.679 39.575 41.679 40.668 Q 41.679 42.119 41.222 43.114 A 3.554 3.554 0 0 1 40.761 43.863 A 2.993 2.993 0 0 1 38.634 44.982 A 4.289 4.289 0 0 1 38.213 45.002 A 3.835 3.835 0 0 1 37.25 44.885 A 3.337 3.337 0 0 1 36.724 44.701 Q 36.05 44.4 35.593 43.776 Z M 49.959 44.85 L 49.022 44.85 L 48.771 43.662 L 48.71 43.662 Q 48.085 44.446 47.465 44.724 Q 46.953 44.953 46.232 44.994 A 5.69 5.69 0 0 1 45.914 45.002 Q 44.921 45.002 44.272 44.593 A 2.177 2.177 0 0 1 43.968 44.362 A 2.078 2.078 0 0 1 43.341 43.266 A 3.182 3.182 0 0 1 43.264 42.542 Q 43.264 40.095 47.051 39.902 A 12.351 12.351 0 0 1 47.308 39.891 L 48.725 39.845 L 48.725 39.327 A 3.632 3.632 0 0 0 48.69 38.802 Q 48.651 38.534 48.567 38.318 A 1.411 1.411 0 0 0 48.302 37.876 Q 47.88 37.408 46.95 37.408 A 4.117 4.117 0 0 0 46.003 37.526 Q 45.568 37.629 45.095 37.821 A 8.468 8.468 0 0 0 44.589 38.048 L 44.201 37.08 A 5.83 5.83 0 0 1 45.326 36.618 A 6.636 6.636 0 0 1 45.553 36.555 A 5.856 5.856 0 0 1 47.027 36.364 A 5.34 5.34 0 0 1 47.84 36.422 Q 48.258 36.487 48.592 36.624 A 2.152 2.152 0 0 1 49.239 37.027 A 2.002 2.002 0 0 1 49.756 37.824 Q 49.877 38.151 49.926 38.558 A 4.975 4.975 0 0 1 49.959 39.152 L 49.959 44.85 Z M 58.132 36.783 L 57.744 37.857 A 5.625 5.625 0 0 0 57.134 37.654 A 6.718 6.718 0 0 0 56.83 37.579 Q 56.335 37.469 55.954 37.469 A 2.805 2.805 0 0 0 54.815 37.683 Q 53.41 38.302 53.41 40.714 A 6.124 6.124 0 0 0 53.47 41.606 Q 53.537 42.058 53.677 42.425 A 2.623 2.623 0 0 0 54.031 43.075 A 2.008 2.008 0 0 0 55.332 43.853 A 3.059 3.059 0 0 0 55.87 43.898 A 5.293 5.293 0 0 0 57.33 43.685 A 6.535 6.535 0 0 0 58.011 43.448 L 58.011 44.568 A 3.597 3.597 0 0 1 57.131 44.879 Q 56.724 44.97 56.251 44.994 A 6.934 6.934 0 0 1 55.901 45.002 Q 54.088 45.002 53.094 43.886 Q 52.1 42.77 52.1 40.729 Q 52.1 39.212 52.629 38.195 A 3.486 3.486 0 0 1 53.109 37.492 A 3.274 3.274 0 0 1 54.902 36.461 A 4.963 4.963 0 0 1 55.984 36.349 Q 56.586 36.349 57.188 36.479 A 6.311 6.311 0 0 1 57.539 36.564 Q 57.891 36.661 58.125 36.779 A 1.895 1.895 0 0 1 58.132 36.783 Z M 38.031 37.423 A 3.553 3.553 0 0 0 37.343 37.485 Q 36.951 37.563 36.653 37.737 A 1.682 1.682 0 0 0 36.164 38.166 A 2.165 2.165 0 0 0 35.851 38.763 Q 35.64 39.355 35.602 40.256 A 9.742 9.742 0 0 0 35.593 40.668 A 8.36 8.36 0 0 0 35.635 41.532 Q 35.725 42.404 36.016 42.935 A 1.907 1.907 0 0 0 36.18 43.186 A 1.834 1.834 0 0 0 37.11 43.814 Q 37.525 43.943 38.061 43.943 A 2.521 2.521 0 0 0 38.777 43.848 A 1.818 1.818 0 0 0 39.798 43.094 Q 40.206 42.487 40.323 41.502 A 7.245 7.245 0 0 0 40.369 40.653 A 7.47 7.47 0 0 0 40.324 39.802 Q 40.217 38.87 39.856 38.308 A 2.098 2.098 0 0 0 39.798 38.223 A 1.844 1.844 0 0 0 38.624 37.48 A 2.924 2.924 0 0 0 38.031 37.423 Z M 48.695 41.498 L 48.695 40.744 L 47.43 40.798 A 9.284 9.284 0 0 0 46.688 40.851 Q 45.745 40.961 45.256 41.266 A 1.349 1.349 0 0 0 44.612 42.245 A 1.997 1.997 0 0 0 44.589 42.557 A 1.807 1.807 0 0 0 44.634 42.972 Q 44.709 43.29 44.91 43.509 A 1.126 1.126 0 0 0 45.004 43.601 A 1.376 1.376 0 0 0 45.52 43.875 Q 45.804 43.959 46.166 43.959 Q 47.346 43.959 48.021 43.311 A 2.118 2.118 0 0 0 48.611 42.254 Q 48.693 41.913 48.695 41.511 A 4.003 4.003 0 0 0 48.695 41.498 Z" id="back_labelLayer" stroke="#777777" fill="#777777" style="stroke:#777777;fill:#777777" vector-effect="non-scaling-stroke"/><path d="M 107 0 L 107 9 L 104 9 L 104 21 L 107 21 L 107 33 L 104 33 L 104 45 L 107 45 L 107 57 L 104 57 L 104 69 L 107 69 L 107 78 L 113.5 78 L 113.5 75 L 125.5 75 L 125.5 78 L 132 78 L 132 69 L 135 69 L 135 57 L 132 57 L 132 45 L 135 45 L 135 33 L 132 33 L 132 21 L 135 21 L 135 9 L 132 9 L 132 0 L 125.5 0 L 125.5 3 L 113.5 3 L 113.5 0 L 107 0 Z" id="right_outsideCutPath" stroke="#FF0000" stroke-width="0.1" style="stroke:#FF0000;stroke-width:0.1" vector-effect="non-scaling-stroke"/><path d="M 123.355 40.611 L 122.853 40.611 L 122.853 38.464 A 1.421 1.421 0 0 0 122.837 38.241 Q 122.798 37.999 122.668 37.859 Q 122.483 37.659 122.09 37.659 A 1.521 1.521 0 0 0 121.806 37.684 Q 121.648 37.714 121.527 37.78 A 0.704 0.704 0 0 0 121.325 37.943 Q 121.085 38.228 121.085 38.876 L 121.085 40.611 L 120.582 40.611 L 120.582 35.9 L 121.085 35.9 L 121.085 37.326 A 4.521 4.521 0 0 1 121.082 37.499 Q 121.079 37.581 121.072 37.651 A 1.966 1.966 0 0 1 121.061 37.753 L 121.091 37.753 A 1.004 1.004 0 0 1 121.443 37.414 A 1.227 1.227 0 0 1 121.513 37.376 A 1.29 1.29 0 0 1 121.937 37.25 A 1.631 1.631 0 0 1 122.138 37.238 A 2.039 2.039 0 0 1 122.481 37.265 Q 122.84 37.326 123.051 37.527 A 0.875 0.875 0 0 1 123.267 37.866 Q 123.319 38.007 123.34 38.182 A 2.173 2.173 0 0 1 123.355 38.446 L 123.355 40.611 Z M 118.754 37.293 L 119.901 37.293 L 119.901 37.61 L 119.287 37.683 Q 119.371 37.789 119.438 37.96 A 0.967 0.967 0 0 1 119.495 38.191 A 1.242 1.242 0 0 1 119.505 38.346 Q 119.505 38.833 119.172 39.124 A 1.115 1.115 0 0 1 118.733 39.355 Q 118.521 39.415 118.257 39.415 A 1.615 1.615 0 0 1 118.07 39.404 A 1.364 1.364 0 0 1 117.979 39.391 A 0.894 0.894 0 0 0 117.835 39.484 Q 117.76 39.544 117.717 39.613 A 0.378 0.378 0 0 0 117.658 39.817 Q 117.658 39.954 117.77 40.019 Q 117.86 40.071 118.054 40.081 A 1.912 1.912 0 0 0 118.154 40.084 L 118.742 40.084 A 2.057 2.057 0 0 1 119.054 40.106 Q 119.217 40.131 119.349 40.185 A 0.908 0.908 0 0 1 119.57 40.311 A 0.735 0.735 0 0 1 119.843 40.779 A 1.104 1.104 0 0 1 119.859 40.971 A 1.088 1.088 0 0 1 119.797 41.347 Q 119.696 41.621 119.434 41.799 A 1.194 1.194 0 0 1 119.417 41.811 Q 119.109 42.012 118.603 42.073 A 3.983 3.983 0 0 1 118.127 42.1 Q 117.476 42.1 117.124 41.858 Q 116.794 41.631 116.772 41.23 A 1.061 1.061 0 0 1 116.771 41.174 A 0.768 0.768 0 0 1 116.965 40.65 A 0.878 0.878 0 0 1 117.266 40.43 A 1.244 1.244 0 0 1 117.51 40.35 A 0.522 0.522 0 0 1 117.307 40.186 A 0.62 0.62 0 0 1 117.296 40.172 A 0.466 0.466 0 0 1 117.211 39.92 A 0.577 0.577 0 0 1 117.21 39.89 A 0.575 0.575 0 0 1 117.239 39.705 A 0.509 0.509 0 0 1 117.307 39.572 Q 117.38 39.469 117.517 39.371 A 1.579 1.579 0 0 1 117.612 39.309 A 0.881 0.881 0 0 1 117.23 39.002 A 1.092 1.092 0 0 1 117.193 38.949 A 1.039 1.039 0 0 1 117.034 38.448 A 1.268 1.268 0 0 1 117.031 38.367 A 1.452 1.452 0 0 1 117.069 38.024 A 0.955 0.955 0 0 1 117.358 37.527 A 1.067 1.067 0 0 1 117.768 37.301 Q 117.931 37.251 118.126 37.237 A 2.219 2.219 0 0 1 118.285 37.232 A 1.926 1.926 0 0 1 118.539 37.248 A 1.467 1.467 0 0 1 118.754 37.293 Z M 125.913 40.196 L 125.913 40.58 Q 125.84 40.616 125.703 40.64 A 1.877 1.877 0 0 1 125.673 40.645 A 2.178 2.178 0 0 1 125.531 40.664 Q 125.464 40.67 125.404 40.671 A 1.287 1.287 0 0 1 125.387 40.671 Q 124.424 40.671 124.424 39.657 L 124.424 37.683 L 123.949 37.683 L 123.949 37.441 L 124.424 37.232 L 124.636 36.524 L 124.927 36.524 L 124.927 37.293 L 125.889 37.293 L 125.889 37.683 L 124.927 37.683 L 124.927 39.636 A 1.012 1.012 0 0 0 124.941 39.813 Q 124.959 39.911 124.997 39.988 A 0.487 0.487 0 0 0 125.069 40.096 A 0.467 0.467 0 0 0 125.356 40.249 A 0.672 0.672 0 0 0 125.459 40.256 A 1.65 1.65 0 0 0 125.701 40.239 A 1.522 1.522 0 0 0 125.717 40.237 Q 125.841 40.217 125.913 40.196 Z M 114.997 37.268 L 114.927 37.735 A 2.215 2.215 0 0 0 114.768 37.705 Q 114.688 37.694 114.618 37.69 A 1.179 1.179 0 0 0 114.564 37.689 A 0.871 0.871 0 0 0 113.921 37.967 A 1.191 1.191 0 0 0 113.875 38.016 Q 113.589 38.343 113.589 38.83 L 113.589 40.611 L 113.087 40.611 L 113.087 37.293 L 113.501 37.293 L 113.559 37.907 L 113.583 37.907 A 1.697 1.697 0 0 1 113.773 37.636 A 1.296 1.296 0 0 1 114.028 37.408 A 1.002 1.002 0 0 1 114.6 37.232 A 2.307 2.307 0 0 1 114.807 37.241 A 1.684 1.684 0 0 1 114.997 37.268 Z M 116.12 37.293 L 116.12 40.611 L 115.617 40.611 L 115.617 37.293 L 116.12 37.293 Z M 118.581 40.535 L 117.979 40.535 Q 117.728 40.535 117.559 40.623 A 0.589 0.589 0 0 0 117.446 40.698 A 0.53 0.53 0 0 0 117.272 40.999 A 0.804 0.804 0 0 0 117.255 41.168 A 0.505 0.505 0 0 0 117.288 41.355 Q 117.336 41.475 117.453 41.557 A 0.59 0.59 0 0 0 117.482 41.576 Q 117.708 41.715 118.129 41.716 A 2.668 2.668 0 0 0 118.133 41.716 A 3.378 3.378 0 0 0 118.463 41.701 Q 118.794 41.668 119.001 41.565 A 0.835 0.835 0 0 0 119.07 41.526 A 0.733 0.733 0 0 0 119.24 41.384 A 0.549 0.549 0 0 0 119.374 41.013 A 0.68 0.68 0 0 0 119.362 40.878 Q 119.346 40.8 119.31 40.743 A 0.317 0.317 0 0 0 119.208 40.639 A 0.477 0.477 0 0 0 119.095 40.59 Q 118.916 40.535 118.581 40.535 Z M 117.64 38.784 A 0.538 0.538 0 0 0 117.724 38.882 Q 117.902 39.043 118.204 39.059 A 1.294 1.294 0 0 0 118.272 39.061 A 1.095 1.095 0 0 0 118.559 39.026 Q 118.887 38.937 118.975 38.615 A 1.018 1.018 0 0 0 119.008 38.346 A 1.081 1.081 0 0 0 118.971 38.05 Q 118.876 37.718 118.539 37.63 A 1.093 1.093 0 0 0 118.263 37.598 Q 117.992 37.598 117.816 37.71 A 0.578 0.578 0 0 0 117.718 37.789 Q 117.528 37.98 117.528 38.355 Q 117.528 38.618 117.64 38.784 Z M 115.582 36.301 A 0.557 0.557 0 0 0 115.575 36.393 A 0.593 0.593 0 0 0 115.578 36.45 Q 115.583 36.501 115.597 36.542 A 0.259 0.259 0 0 0 115.66 36.646 A 0.282 0.282 0 0 0 115.762 36.711 A 0.319 0.319 0 0 0 115.872 36.729 Q 115.993 36.729 116.081 36.646 Q 116.168 36.563 116.168 36.393 Q 116.168 36.224 116.081 36.142 Q 115.993 36.06 115.872 36.06 A 0.384 0.384 0 0 0 115.846 36.061 A 0.291 0.291 0 0 0 115.66 36.141 A 0.235 0.235 0 0 0 115.608 36.214 Q 115.59 36.253 115.582 36.301 Z" id="right_labelLayer" stroke="#777777" fill="#777777" style="stroke:#777777;fill:#777777" vector-effect="non-scaling-stroke"/><path d="M 141 97 L 141 103.5 L 138 103.5 L 138 115.5 L 141 115.5 L 141 122 L 146.5 122 L 146.5 125 L 158.5 125 L 158.5 122 L 170.5 122 L 170.5 125 L 182.5 125 L 182.5 122 L 194.5 122 L 194.5 125 L 206.5 125 L 206.5 122 L 218.5 122 L 218.5 125 L 230.5 125 L 230.5 122 L 236 122 L 236 115.5 L 239 115.5 L 239 103.5 L 236 103.5 L 236 97 L 230.5 97 L 230.5 94 L 218.5 94 L 218.5 97 L 206.5 97 L 206.5 94 L 194.5 94 L 194.5 97 L 182.5 97 L 182.5 94 L 170.5 94 L 170.5 97 L 158.5 97 L 158.5 94 L 146.5 94 L 146.5 97 L 141 97 Z" id="bottom_outsideCutPath" stroke="#FF0000" stroke-width="0.1" style="stroke:#FF0000;stroke-width:0.1" vector-effect="non-scaling-stroke"/><path d="M 198.699 111.825 L 198.197 111.825 L 198.197 109.666 Q 198.197 109.418 198.13 109.247 A 0.607 0.607 0 0 0 198.027 109.072 A 0.529 0.529 0 0 0 197.781 108.913 Q 197.659 108.873 197.5 108.873 A 1.293 1.293 0 0 0 197.237 108.898 Q 197.081 108.931 196.963 109.006 A 0.665 0.665 0 0 0 196.807 109.143 A 0.83 0.83 0 0 0 196.666 109.398 Q 196.584 109.629 196.583 109.967 A 2.77 2.77 0 0 0 196.583 109.972 L 196.583 111.825 L 196.08 111.825 L 196.08 109.666 Q 196.08 109.418 196.014 109.247 A 0.607 0.607 0 0 0 195.911 109.072 Q 195.741 108.873 195.381 108.873 Q 195.052 108.873 194.845 109.011 A 0.659 0.659 0 0 0 194.689 109.156 Q 194.49 109.413 194.472 109.967 A 3.499 3.499 0 0 0 194.47 110.084 L 194.47 111.825 L 193.967 111.825 L 193.967 108.507 L 194.376 108.507 L 194.458 108.961 L 194.482 108.961 A 0.988 0.988 0 0 1 194.883 108.583 A 1.193 1.193 0 0 1 195.354 108.45 A 1.441 1.441 0 0 1 195.463 108.446 A 1.645 1.645 0 0 1 195.833 108.485 Q 196.303 108.594 196.48 109.009 L 196.504 109.009 A 1.049 1.049 0 0 1 196.899 108.617 A 1.26 1.26 0 0 1 196.934 108.598 A 1.272 1.272 0 0 1 197.401 108.456 A 1.586 1.586 0 0 1 197.576 108.446 A 1.747 1.747 0 0 1 197.893 108.473 Q 198.069 108.506 198.206 108.578 A 0.828 0.828 0 0 1 198.419 108.736 Q 198.699 109.025 198.699 109.66 L 198.699 111.825 Z M 178.803 111.398 L 178.767 111.398 L 178.661 111.825 L 178.301 111.825 L 178.301 107.114 L 178.803 107.114 L 178.803 108.259 A 10.478 10.478 0 0 1 178.798 108.613 Q 178.792 108.78 178.781 108.929 A 6.259 6.259 0 0 1 178.779 108.949 L 178.803 108.949 A 1.143 1.143 0 0 1 179.637 108.465 A 1.716 1.716 0 0 1 179.845 108.452 A 1.536 1.536 0 0 1 180.277 108.51 A 1.15 1.15 0 0 1 180.86 108.899 A 1.481 1.481 0 0 1 181.12 109.399 Q 181.184 109.605 181.208 109.852 A 3.226 3.226 0 0 1 181.222 110.163 Q 181.222 110.98 180.857 111.433 A 1.19 1.19 0 0 1 180.012 111.877 A 1.704 1.704 0 0 1 179.845 111.885 A 1.524 1.524 0 0 1 179.462 111.839 A 1.326 1.326 0 0 1 179.253 111.766 Q 178.985 111.646 178.803 111.398 Z M 187.371 111.41 L 187.371 111.795 Q 187.297 111.83 187.16 111.855 A 1.877 1.877 0 0 1 187.13 111.86 A 2.178 2.178 0 0 1 186.988 111.878 Q 186.921 111.885 186.861 111.885 A 1.287 1.287 0 0 1 186.844 111.885 Q 185.881 111.885 185.881 110.871 L 185.881 108.897 L 185.406 108.897 L 185.406 108.655 L 185.881 108.446 L 186.093 107.738 L 186.384 107.738 L 186.384 108.507 L 187.347 108.507 L 187.347 108.897 L 186.384 108.897 L 186.384 110.85 A 1.012 1.012 0 0 0 186.398 111.028 Q 186.416 111.125 186.454 111.203 A 0.487 0.487 0 0 0 186.526 111.31 A 0.467 0.467 0 0 0 186.813 111.463 A 0.672 0.672 0 0 0 186.917 111.471 A 1.65 1.65 0 0 0 187.158 111.453 A 1.522 1.522 0 0 0 187.174 111.451 Q 187.298 111.431 187.371 111.41 Z M 189.56 111.41 L 189.56 111.795 Q 189.486 111.83 189.349 111.855 A 1.877 1.877 0 0 1 189.319 111.86 A 2.178 2.178 0 0 1 189.177 111.878 Q 189.11 111.885 189.05 111.885 A 1.287 1.287 0 0 1 189.033 111.885 Q 188.07 111.885 188.07 110.871 L 188.07 108.897 L 187.595 108.897 L 187.595 108.655 L 188.07 108.446 L 188.282 107.738 L 188.573 107.738 L 188.573 108.507 L 189.535 108.507 L 189.535 108.897 L 188.573 108.897 L 188.573 110.85 A 1.012 1.012 0 0 0 188.587 111.028 Q 188.605 111.125 188.643 111.203 A 0.487 0.487 0 0 0 188.715 111.31 A 0.467 0.467 0 0 0 189.002 111.463 A 0.672 0.672 0 0 0 189.105 111.471 A 1.65 1.65 0 0 0 189.347 111.453 A 1.522 1.522 0 0 0 189.363 111.451 Q 189.487 111.431 189.56 111.41 Z M 184.555 111.43 A 1.402 1.402 0 0 0 184.722 111.201 Q 184.964 110.787 184.964 110.163 Q 184.964 109.373 184.554 108.91 A 1.316 1.316 0 0 0 183.943 108.516 A 1.689 1.689 0 0 0 183.447 108.446 A 1.952 1.952 0 0 0 183.097 108.476 A 1.329 1.329 0 0 0 182.321 108.899 Q 181.916 109.352 181.916 110.163 A 2.514 2.514 0 0 0 181.947 110.57 A 1.859 1.859 0 0 0 182.103 111.077 A 1.652 1.652 0 0 0 182.14 111.149 A 1.361 1.361 0 0 0 182.636 111.677 A 1.399 1.399 0 0 0 182.957 111.819 A 1.614 1.614 0 0 0 183.426 111.885 A 1.951 1.951 0 0 0 183.767 111.857 A 1.34 1.34 0 0 0 184.555 111.43 Z M 192.678 111.43 A 1.402 1.402 0 0 0 192.845 111.201 Q 193.086 110.787 193.086 110.163 Q 193.086 109.373 192.676 108.91 A 1.316 1.316 0 0 0 192.065 108.516 A 1.689 1.689 0 0 0 191.57 108.446 A 1.952 1.952 0 0 0 191.219 108.476 A 1.329 1.329 0 0 0 190.444 108.899 Q 190.038 109.352 190.038 110.163 A 2.514 2.514 0 0 0 190.069 110.57 A 1.859 1.859 0 0 0 190.226 111.077 A 1.652 1.652 0 0 0 190.262 111.149 A 1.361 1.361 0 0 0 190.758 111.677 A 1.399 1.399 0 0 0 191.08 111.819 A 1.614 1.614 0 0 0 191.549 111.885 A 1.951 1.951 0 0 0 191.889 111.857 A 1.34 1.34 0 0 0 192.678 111.43 Z M 182.436 110.163 A 2.545 2.545 0 0 0 182.46 110.526 Q 182.487 110.711 182.543 110.86 A 1.054 1.054 0 0 0 182.691 111.132 A 0.824 0.824 0 0 0 183.227 111.448 A 1.248 1.248 0 0 0 183.438 111.465 A 1.167 1.167 0 0 0 183.746 111.426 A 0.812 0.812 0 0 0 184.188 111.133 Q 184.443 110.802 184.443 110.163 A 2.507 2.507 0 0 0 184.42 109.806 Q 184.393 109.624 184.338 109.476 A 1.035 1.035 0 0 0 184.188 109.202 A 0.827 0.827 0 0 0 183.674 108.895 A 1.267 1.267 0 0 0 183.432 108.873 Q 182.939 108.873 182.687 109.197 Q 182.507 109.43 182.456 109.828 A 2.656 2.656 0 0 0 182.436 110.163 Z M 190.559 110.163 A 2.545 2.545 0 0 0 190.583 110.526 Q 190.61 110.711 190.666 110.86 A 1.054 1.054 0 0 0 190.813 111.132 A 0.824 0.824 0 0 0 191.349 111.448 A 1.248 1.248 0 0 0 191.561 111.465 A 1.167 1.167 0 0 0 191.869 111.426 A 0.812 0.812 0 0 0 192.31 111.133 Q 192.566 110.802 192.566 110.163 A 2.507 2.507 0 0 0 192.542 109.806 Q 192.516 109.624 192.46 109.476 A 1.035 1.035 0 0 0 192.31 109.202 A 0.827 0.827 0 0 0 191.796 108.895 A 1.267 1.267 0 0 0 191.555 108.873 Q 191.061 108.873 190.81 109.197 Q 190.629 109.43 190.578 109.828 A 2.656 2.656 0 0 0 190.559 110.163 Z M 179.225 108.998 A 0.668 0.668 0 0 0 179.03 109.168 A 0.86 0.86 0 0 0 178.906 109.406 Q 178.822 109.641 178.807 109.999 A 3.872 3.872 0 0 0 178.803 110.163 A 3.323 3.323 0 0 0 178.82 110.506 Q 178.856 110.853 178.972 111.064 A 0.758 0.758 0 0 0 179.037 111.163 A 0.729 0.729 0 0 0 179.406 111.413 Q 179.53 111.452 179.681 111.461 A 1.616 1.616 0 0 0 179.784 111.465 Q 180.247 111.465 180.474 111.127 A 1.154 1.154 0 0 0 180.617 110.818 Q 180.662 110.672 180.683 110.494 A 2.88 2.88 0 0 0 180.702 110.157 Q 180.702 109.509 180.474 109.191 A 0.733 0.733 0 0 0 180.008 108.896 A 1.162 1.162 0 0 0 179.772 108.873 Q 179.438 108.873 179.225 108.998 Z" id="bottom_labelLayer" stroke="#777777" fill="#777777" style="stroke:#777777;fill:#777777" vector-effect="non-scaling-stroke"/></g></svg>