0
SECTION
2
HEADER
9
$INSUNITS
70
4
0
ENDSEC
0
SECTION
2
TABLES
0
TABLE
2
LTYPE
0
LTYPE
72
65
70
64
2
CONTINUOUS
3
______
73
0
40
0
0
ENDTAB
0
TABLE
2
LAYER
0
ENDTAB
0
ENDSEC
0
SECTION
2
ENTITIES
0
LINE
8
front_outsideCutPath
10
0
20
81
11
0
21
72
0
LINE
8
front_outsideCutPath
10
0
20
72
11
3
21
72
0
LINE
8
front_outsideCutPath
10
3
20
72
11
3
21
60
0
LINE
8
front_outsideCutPath
10
3
20
60
11
0
21
60
0
LINE
8
front_outsideCutPath
10
0
20
60
11
0
21
48
0
LINE
8
front_outsideCutPath
10
0
20
48
11
3
21
48
0
LINE
8
front_outsideCutPath
10
3
20
48
11
3
21
36
0
LINE
8
front_outsideCutPath
10
3
20
36
11
0
21
36
0
LINE
8
front_outsideCutPath
10
0
20
36
11
0
21
24
0
LINE
8
front_outsideCutPath
10
0
20
24
11
3
21
24
0
LINE
8
front_outsideCutPath
10
3
20
24
11
3
21
12
0
LINE
8
front_outsideCutPath
10
3
20
12
11
0
21
12
0
LINE
8
front_outsideCutPath
10
0
20
12
11
0
21
3
0
LINE
8
front_outsideCutPath
10
0
20
3
11
8.5
21
3
0
LINE
8
front_outsideCutPath
10
8.5
20
3
11
8.5
21
6
0
LINE
8
front_outsideCutPath
10
8.5
20
6
11
20.5
21
6
0
LINE
8
front_outsideCutPath
10
20.5
20
6
11
20.5
21
3
0
LINE
8
front_outsideCutPath
10
20.5
20
3
11
32.5
21
3
0
LINE
8
front_outsideCutPath
10
32.5
20
3
11
32.5
21
6
0
LINE
8
front_outsideCutPath
10
32.5
20
6
11
44.5
21
6
0
LINE
8
front_outsideCutPath
10
44.5
20
6
11
44.5
21
3
0
LINE
8
front_outsideCutPath
10
44.5
20
3
11
56.5
21
3
0
LINE
8
front_outsideCutPath
10
56.5
20
3
11
56.5
21
6
0
LINE
8
front_outsideCutPath
10
56.5
20
6
11
68.5
21
6
0
LINE
8
front_outsideCutPath
10
68.5
20
6
11
68.5
21
3
0
LINE
8
front_outsideCutPath
10
68.5
20
3
11
80.5
21
3
0
LINE
8
front_outsideCutPath
10
80.5
20
3
11
80.5
21
6
0
LINE
8
front_outsideCutPath
10
80.5
20
6
11
92.5
21
6
0
LINE
8
front_outsideCutPath
10
92.5
20
6
11
92.5
21
3
0
LINE
8
front_outsideCutPath
10
92.5
20
3
11
101
21
3
0
LINE
8
front_outsideCutPath
10
101
20
3
11
101
21
12
0
LINE
8
front_outsideCutPath
10
101
20
12
11
98
21
12
0
LINE
8
front_outsideCutPath
10
98
20
12
11
98
21
24
0
LINE
8
front_outsideCutPath
10
98
20
24
11
101
21
24
0
LINE
8
front_outsideCutPath
10
101
20
24
11
101
21
36
0
LINE
8
front_outsideCutPath
10
101
20
36
11
98
21
36
0
LINE
8
front_outsideCutPath
10
98
20
36
11
98
21
48
0
LINE
8
front_outsideCutPath
10
98
20
48
11
101
21
48
0
LINE
8
front_outsideCutPath
10
101
20
48
11
101
21
60
0
LINE
8
front_outsideCutPath
10
101
20
60
11
98
21
60
0
LINE
8
front_outsideCutPath
10
98
20
60
11
98
21
72
0
LINE
8
front_outsideCutPath
10
98
20
72
11
101
21
72
0
LINE
8
front_outsideCutPath
10
101
20
72
11
101
21
81
0
LINE
8
front_outsideCutPath
10
101
20
81
11
92.5
21
81
0
LINE
8
front_outsideCutPath
10
92.5
20
81
11
92.5
21
78
0
LINE
8
front_outsideCutPath
10
92.5
20
78
11
80.5
21
78
0
LINE
8
front_outsideCutPath
10
80.5
20
78
11
80.5
21
81
0
LINE
8
front_outsideCutPath
10
80.5
20
81
11
68.5
21
81
0
LINE
8
front_outsideCutPath
10
68.5
20
81
11
68.5
21
78
0
LINE
8
front_outsideCutPath
10
68.5
20
78
11
56.5
21
78
0
LINE
8
front_outsideCutPath
10
56.5
20
78
11
56.5
21
81
0
LINE
8
front_outsideCutPath
10
56.5
20
81
11
44.5
21
81
0
LINE
8
front_outsideCutPath
10
44.5
20
81
11
44.5
21
78
0
LINE
8
front_outsideCutPath
10
44.5
20
78
11
32.5
21
78
0
LINE
8
front_outsideCutPath
10
32.5
20
78
11
32.5
21
81
0
LINE
8
front_outsideCutPath
10
32.5
20
81
11
20.5
21
81
0
LINE
8
front_outsideCutPath
10
20.5
20
81
11
20.5
21
78
0
LINE
8
front_outsideCutPath
10
20.5
20
78
11
8.5
21
78
0
LINE
8
front_outsideCutPath
10
8.5
20
78
11
8.5
21
81
0
LINE
8
front_outsideCutPath
10
8.5
20
81
11
0
21
81
0
LINE
8
front_labelLayer
10
37.5774414
20
44.4567081
11
37.5774414
21
43.4740909
0
LINE
8
front_labelLayer
10
37.5774414
20
43.4740909
11
35.4522461
21
43.4740909
0
LINE
8
front_labelLayer
10
35.4522461
20
43.4740909
11
35.4522461
21
36.1082706
0
LINE
8
front_labelLayer
10
35.4522461
20
36.1082706
11
34.187793
21
36.1082706
0
LINE
8
front_labelLayer
10
34.187793
20
36.1082706
11
34.187793
21
43.4740909
0
LINE
8
front_labelLayer
10
34.187793
20
43.4740909
11
32.6948242
21
43.4740909
0
LINE
8
front_labelLayer
10
32.6948242
20
43.4740909
11
32.6948242
21
44.04538
0
LINE
8
front_labelLayer
10
32.6948242
20
44.04538
11
34.187793
21
44.5024112
0
LINE
8
front_labelLayer
10
34.187793
20
44.5024112
11
34.187793
21
44.9670597
0
LINE
8
front_labelLayer
10
38.4305664
20
47.7778019
11
38.1030273
21
46.7647159
0
LINE
8
front_labelLayer
10
35.4522461
20
44.9975284
11
35.4522461
21
44.4567081
0
LINE
8
front_labelLayer
10
35.4522461
20
44.4567081
11
37.5774414
21
44.4567081
0
ARC
8
front_labelLayer
10
39.3121716
20
45.0259731
40
5.1247172
50
167.5775863
51
180.6586826
0
ARC
8
front_labelLayer
10
36.9023635
20
45.5878025
40
2.650641
50
141.7433758
51
168.2322223
0
ARC
8
front_labelLayer
10
36.5099997
20
45.7925864
40
2.217262
50
98.2551617
51
139.6203261
0
ARC
8
front_labelLayer
10
36.8545042
20
44.2010997
40
3.8433677
50
89.6697042
51
99.9314201
0
ARC
8
front_labelLayer
10
36.8554627
20
43.9726209
40
4.0718377
50
81.5640834
51
89.7017245
0
ARC
8
front_labelLayer
10
36.5692106
20
41.975553
40
6.0893006
50
75.9739884
51
81.6564923
0
ARC
8
front_labelLayer
10
36.0779286
20
39.937846
40
8.1853413
50
73.2963909
51
76.0945863
0
ARC
8
front_labelLayer
10
36.2016822
20
40.9263858
40
6.1401313
50
71.9613363
51
76.591843
0
ARC
8
front_labelLayer
10
36.678036
20
42.9471316
40
4.0640086
50
76.5183374
51
83.0216743
0
ARC
8
front_labelLayer
10
36.8439713
20
44.2815422
40
2.7193241
50
83.0761076
51
89.7927301
0
ARC
8
front_labelLayer
10
36.8385091
20
45.2956655
40
1.7052519
50
89.4859374
51
103.4197671
0
ARC
8
front_labelLayer
10
36.6847677
20
45.8863208
40
1.0951142
50
102.7677307
51
144.338032
0
ARC
8
front_labelLayer
10
36.9944864
20
45.6870443
40
1.4630491
50
145.0688262
51
162.1802101
0
ARC
8
front_labelLayer
10
38.0564272
20
45.3297524
40
2.5834265
50
161.8437474
51
171.7846892
0
ARC
8
front_labelLayer
10
39.7884246
20
45.069609
40
4.3348344
50
171.6527404
51
178.4383793
0
ARC
8
front_labelLayer
10
41.4223691
20
44.9999365
40
5.9701236
50
178.197317
51
180.0231108
0
LINE
8
front_labelLayer
10
43.9073242
20
44.5176456
11
43.7321289
21
43.3445987
0
LINE
8
front_labelLayer
10
40.365332
20
40.5871769
11
40.365332
21
36.1082706
0
LINE
8
front_labelLayer
10
40.365332
20
36.1082706
11
39.1008789
21
36.1082706
0
LINE
8
front_labelLayer
10
39.1008789
20
36.1082706
11
39.1008789
21
44.4567081
0
LINE
8
front_labelLayer
10
39.1008789
20
44.4567081
11
40.1444336
21
44.4567081
0
LINE
8
front_labelLayer
10
40.1444336
20
44.4567081
11
40.2891602
21
42.9104191
0
LINE
8
front_labelLayer
10
40.2891602
20
42.9104191
11
40.3500977
21
42.9104191
0
ARC
8
front_labelLayer
10
42.9224492
20
38.8041039
40
5.8049625
50
84.9923192
51
90.12808
0
ARC
8
front_labelLayer
10
43.0618561
20
40.3660424
40
4.2368179
50
78.4892009
51
85.0265913
0
ARC
8
front_labelLayer
10
42.520786
20
37.9051377
40
5.5727092
50
77.4453605
51
81.6360709
0
ARC
8
front_labelLayer
10
42.7635707
20
39.5786442
40
3.8816879
50
81.5884511
51
87.1916663
0
ARC
8
front_labelLayer
10
42.816301
20
40.4928758
40
2.9659813
50
87.3437769
51
89.9658969
0
ARC
8
front_labelLayer
10
42.8040537
20
41.2679783
40
2.190923
50
89.6335444
51
137.0880825
0
ARC
8
front_labelLayer
10
43.3416758
20
40.6633915
40
2.997308
50
135.6208344
51
138.8377526
0
ARC
8
front_labelLayer
10
43.2629575
20
40.7402334
40
2.8874745
50
138.9575728
51
174.5422174
0
ARC
8
front_labelLayer
10
44.2033778
20
40.5930884
40
3.8380503
50
173.6907849
51
180.0882489
0
ARC
8
front_labelLayer
10
44.0703915
20
40.8144221
40
4.2701042
50
139.4139388
51
150.6032836
0
ARC
8
front_labelLayer
10
43.3047564
20
41.4704909
40
3.2618267
50
124.2321536
51
139.4161151
0
ARC
8
front_labelLayer
10
42.89538
20
42.0884416
40
2.5206496
50
89.6796642
51
124.4405587
0
ARC
8
front_labelLayer
10
46.143434
20
40.2460759
40
6.5314214
50
349.1761882
51
0.3862547
0
ARC
8
front_labelLayer
10
48.3424144
20
39.8077039
40
4.2892772
50
330.2507011
51
349.4116559
0
ARC
8
front_labelLayer
10
49.0191473
20
39.4559638
40
3.5273299
50
318.1439708
51
329.7566299
0
ARC
8
front_labelLayer
10
49.1412849
20
39.3580827
40
3.3710576
50
278.8959215
51
317.9979124
0
ARC
8
front_labelLayer
10
48.8265761
20
40.865886
40
4.9100056
50
269.7502745
51
279.8033126
0
ARC
8
front_labelLayer
10
48.7755352
20
40.0163351
40
4.0605164
50
253.5437047
51
270.4182457
0
ARC
8
front_labelLayer
10
48.6403696
20
39.4934768
40
3.5208346
50
238.8115597
51
253.2428314
0
ARC
8
front_labelLayer
10
48.5967456
20
39.4057486
40
3.4232046
50
207.7946944
51
238.6757951
0
ARC
8
front_labelLayer
10
49.2228213
20
39.7891752
40
4.1561087
50
205.656021
51
208.4460421
0
ARC
8
front_labelLayer
10
49.7048415
20
39.9900088
40
4.6776427
50
188.9102365
51
205.3171466
0
ARC
8
front_labelLayer
10
51.3296961
20
40.2652065
40
6.3255457
50
179.7744587
51
189.0932776
0
ARC
8
front_labelLayer
10
51.5693864
20
40.3345748
40
6.5653378
50
169.2442961
51
180.3880779
0
ARC
8
front_labelLayer
10
49.3398504
20
40.7752733
40
4.2927599
50
150.7111521
51
169.469543
0
ARC
8
front_labelLayer
10
48.6281223
20
41.1407698
40
3.4933341
50
138.1759715
51
150.2287255
0
ARC
8
front_labelLayer
10
48.5097201
20
41.2316291
40
3.344531
50
99.1759412
51
137.9832811
0
ARC
8
front_labelLayer
10
48.8355805
20
39.6980889
40
4.9110165
50
89.7326476
51
100.0759764
0
ARC
8
front_labelLayer
10
48.9007068
20
40.3603783
40
4.2488832
50
73.5222658
51
90.5692167
0
ARC
8
front_labelLayer
10
49.1498799
20
41.2656866
40
3.310128
50
41.1445605
51
73.2133888
0
ARC
8
front_labelLayer
10
48.6742318
20
40.8568724
40
3.937303
50
13.5014345
51
41.070351
0
ARC
8
front_labelLayer
10
46.8365674
20
40.3759797
40
5.8365829
50
1.12772
51
13.8800048
0
ARC
8
front_labelLayer
10
45.2535852
20
40.2911557
40
7.4211219
50
359.9918999
51
1.5419562
0
ARC
8
front_labelLayer
10
52.7174377
20
40.2572449
40
6.4031665
50
179.7059517
51
187.9160664
0
ARC
8
front_labelLayer
10
50.3689532
20
39.9198884
40
4.0306135
50
187.7639187
51
200.0976864
0
ARC
8
front_labelLayer
10
49.0751838
20
39.445849
40
2.652734
50
200.0845788
51
216.9131646
0
ARC
8
front_labelLayer
10
48.6027469
20
39.1085064
40
2.0724367
50
217.3009475
51
261.7099069
0
ARC
8
front_labelLayer
10
48.8220704
20
40.1551056
40
3.140419
50
260.5033422
51
270.2476565
0
ARC
8
front_labelLayer
10
48.8639313
20
39.9515823
40
2.9370026
50
269.4481656
51
284.7255577
0
ARC
8
front_labelLayer
10
49.0964367
20
39.0892933
40
2.0439433
50
284.566227
51
322.633392
0
ARC
8
front_labelLayer
10
48.5528286
20
39.4820267
40
2.7143992
50
323.0089181
51
342.6390464
0
ARC
8
front_labelLayer
10
46.997991
20
39.9901919
40
4.350087
50
342.3615743
51
353.7537631
0
ARC
8
front_labelLayer
10
44.7041126
20
40.2666905
40
6.6604793
50
353.5362993
51
0.2014337
0
ARC
8
front_labelLayer
10
45.0555534
20
40.322309
40
6.3090796
50
359.7075526
51
7.8972666
0
ARC
8
front_labelLayer
10
47.3661117
20
40.6535487
40
3.9749372
50
7.7439895
51
20.0690206
0
ARC
8
front_labelLayer
10
48.653645
20
41.1260248
40
2.6034527
50
20.0257126
51
37.43504
0
ARC
8
front_labelLayer
10
49.0808425
20
41.4291576
40
2.0800633
50
37.9577574
51
80.4006287
0
ARC
8
front_labelLayer
10
48.838081
20
40.3459759
40
3.1891014
50
79.3453624
51
90.3174788
0
ARC
8
front_labelLayer
10
48.7931308
20
40.5258992
40
3.0092529
50
89.480598
51
103.8805
0
ARC
8
front_labelLayer
10
48.5402763
20
41.4887707
40
2.0138918
50
103.4685343
51
142.3118919
0
ARC
8
front_labelLayer
10
49.0318441
20
41.1430643
40
2.6143853
50
142.9025567
51
162.3749561
0
ARC
8
front_labelLayer
10
50.5807842
20
40.6268839
40
4.24697
50
162.0653108
51
173.1674807
0
ARC
8
front_labelLayer
10
52.9959589
20
40.3188407
40
6.6816652
50
173.0085997
51
180.246398
0
LINE
8
front_labelLayer
10
61.8686523
20
36.1082706
11
60.6041992
21
36.1082706
0
LINE
8
front_labelLayer
10
60.6041992
20
36.1082706
11
60.6041992
21
41.5088566
0
LINE
8
front_labelLayer
10
56.1557617
20
40.4881534
11
56.1557617
21
36.1082706
0
LINE
8
front_labelLayer
10
56.1557617
20
36.1082706
11
54.8913086
21
36.1082706
0
LINE
8
front_labelLayer
10
54.8913086
20
36.1082706
11
54.8913086
21
44.4567081
0
LINE
8
front_labelLayer
10
54.8913086
20
44.4567081
11
55.9196289
21
44.4567081
0
LINE
8
front_labelLayer
10
55.9196289
20
44.4567081
11
56.125293
21
43.31413
0
LINE
8
front_labelLayer
10
56.125293
20
43.31413
11
56.1862305
21
43.31413
0
LINE
8
front_labelLayer
10
61.8686523
20
41.5545597
11
61.8686523
21
36.1082706
0
ARC
8
front_labelLayer
10
57.0299622
20
41.5293536
40
3.5742958
50
359.6714317
51
8.6877315
0
ARC
8
front_labelLayer
10
58.3547013
20
41.7394489
40
2.2330347
50
8.4931386
51
22.657992
0
ARC
8
front_labelLayer
10
59.0277557
20
42.0191492
40
1.5041777
50
22.702454
51
42.3419566
0
ARC
8
front_labelLayer
10
59.103412
20
42.0531828
40
1.4255674
50
43.3790782
51
71.5386107
0
ARC
8
front_labelLayer
10
58.8204997
20
41.2626503
40
2.2650771
50
71.0828243
51
84.3690951
0
ARC
8
front_labelLayer
10
58.6935043
20
40.1828865
40
3.3521537
50
84.0197868
51
90.1510328
0
ARC
8
front_labelLayer
10
58.6575044
20
39.7081994
40
3.8269254
50
89.5933105
51
100.3717684
0
ARC
8
front_labelLayer
10
58.3870584
20
41.1271453
40
2.3824984
50
100.117627
51
118.1602515
0
ARC
8
front_labelLayer
10
58.1145178
20
41.6615747
40
1.782746
50
118.5439287
51
139.1926827
0
ARC
8
front_labelLayer
10
58.3521635
20
41.5021125
40
2.0671238
50
140.1519458
51
160.3146268
0
ARC
8
front_labelLayer
10
59.7871905
20
40.9646132
40
3.5994137
50
159.953441
51
171.3801064
0
ARC
8
front_labelLayer
10
62.1313296
20
40.5878022
40
5.973588
50
171.1765898
51
178.3217767
0
ARC
8
front_labelLayer
10
64.2562976
20
40.4914921
40
8.1005367
50
178.0810351
51
180.023615
0
ARC
8
front_labelLayer
10
58.3492707
20
41.9442049
40
2.5603589
50
116.944297
51
147.6525649
0
ARC
8
front_labelLayer
10
58.6158413
20
41.498327
40
3.0788309
50
115.8072361
51
117.6067323
0
ARC
8
front_labelLayer
10
58.7520146
20
41.1807941
40
3.4240124
50
94.3226765
51
115.5454479
0
ARC
8
front_labelLayer
10
58.8339682
20
40.4687666
40
4.1402863
50
89.957882
51
94.7108883
0
ARC
8
front_labelLayer
10
58.8678401
20
39.6168699
40
4.9922771
50
80.5585264
51
90.3538159
0
ARC
8
front_labelLayer
10
59.1798283
20
41.4240147
40
3.1584544
50
65.1094283
51
80.7638364
0
ARC
8
front_labelLayer
10
59.544524
20
42.2318066
40
2.2722184
50
46.5584536
51
64.8782387
0
ARC
8
front_labelLayer
10
59.5737136
20
42.3159535
40
2.1913569
50
19.3848684
51
45.5997137
0
ARC
8
front_labelLayer
10
58.3059375
20
41.8402623
40
3.545261
50
6.9633689
51
19.8363254
0
ARC
8
front_labelLayer
10
56.3506351
20
41.5773704
40
5.5180643
50
359.7631488
51
7.2115533
0
LINE
8
front_labelLayer
10
68.3051758
20
37.1518253
11
68.3051758
21
36.1844425
0
LINE
8
front_labelLayer
10
64.5575195
20
38.5076847
11
64.5575195
21
43.4740909
0
LINE
8
front_labelLayer
10
64.5575195
20
43.4740909
11
63.3616211
21
43.4740909
0
LINE
8
front_labelLayer
10
63.3616211
20
43.4740909
11
63.3616211
21
44.0834659
0
LINE
8
front_labelLayer
10
63.3616211
20
44.0834659
11
64.5575195
21
44.6090519
0
LINE
8
front_labelLayer
10
64.5575195
20
44.6090519
11
65.0907227
21
46.3914737
0
LINE
8
front_labelLayer
10
65.0907227
20
46.3914737
11
65.8219727
21
46.3914737
0
LINE
8
front_labelLayer
10
65.8219727
20
46.3914737
11
65.8219727
21
44.4567081
0
LINE
8
front_labelLayer
10
65.8219727
20
44.4567081
11
68.2442383
21
44.4567081
0
LINE
8
front_labelLayer
10
68.2442383
20
44.4567081
11
68.2442383
21
43.4740909
0
LINE
8
front_labelLayer
10
68.2442383
20
43.4740909
11
65.8219727
21
43.4740909
0
LINE
8
front_labelLayer
10
65.8219727
20
43.4740909
11
65.8219727
21
38.561005
0
ARC
8
front_labelLayer
10
67.1712704
20
41.1520891
40
4.1526166
50
269.880337
51
278.3028561
0
ARC
8
front_labelLayer
10
67.2112979
20
40.8258466
40
3.8240208
50
278.4152797
51
279.008375
0
ARC
8
front_labelLayer
10
66.7448788
20
43.805581
40
6.8400355
50
278.9589761
51
280.5104538
0
ARC
8
front_labelLayer
10
67.188916
20
41.4230501
40
4.4164811
50
280.4847954
51
282.6268768
0
ARC
8
front_labelLayer
10
67.5783172
20
39.6930639
40
2.6432129
50
282.5877173
51
285.5793866
0
ARC
8
front_labelLayer
10
67.7741902
20
38.9727214
40
1.8967361
50
285.7240281
51
286.2570409
0
ARC
8
front_labelLayer
10
67.7735716
20
37.3088144
40
1.2437102
50
287.9887604
51
295.3048329
0
ARC
8
front_labelLayer
10
67.4735667
20
38.2164767
40
2.1996599
50
283.3070226
51
288.1196769
0
ARC
8
front_labelLayer
10
67.1566664
20
39.5384036
40
3.5590369
50
280.0070622
51
283.3734315
0
ARC
8
front_labelLayer
10
66.9446704
20
40.6888339
40
4.7288118
50
279.1863881
51
280.1144255
0
ARC
8
front_labelLayer
10
66.8145099
20
41.4292267
40
5.4804977
50
275.5260737
51
279.2939631
0
ARC
8
front_labelLayer
10
66.9611809
20
39.8972724
40
3.941539
50
270.8932477
51
275.5483992
0
ARC
8
front_labelLayer
10
66.9796069
20
39.1961579
40
3.2402311
50
270.0031511
51
270.760738
0
ARC
8
front_labelLayer
10
66.9287606
20
39.2580993
40
3.3025666
50
253.7847946
51
270.8852524
0
ARC
8
front_labelLayer
10
66.5374942
20
37.9237321
40
1.912024
50
190.381762
51
253.877242
0
ARC
8
front_labelLayer
10
68.5317795
20
38.4629506
40
3.9745117
50
179.3551082
51
192.8477492
0
ARC
8
front_labelLayer
10
68.3681147
20
38.5450816
40
2.5461918
50
179.6416802
51
189.7506035
0
ARC
8
front_labelLayer
10
67.4692556
20
38.384758
40
1.6331754
50
189.5479346
51
205.7873718
0
ARC
8
front_labelLayer
10
67.0998674
20
38.2144218
40
1.2264929
50
206.1294578
51
221.4084079
0
ARC
8
front_labelLayer
10
67.0584484
20
38.1829935
40
1.174647
50
221.5949173
51
262.3505168
0
ARC
8
front_labelLayer
10
67.1569557
20
38.6895659
40
1.6900938
50
261.3266669
51
270.1912666
0
LINE
8
left_outsideCutPath
10
107
20
81
11
107
21
72
0
LINE
8
left_outsideCutPath
10
107
20
72
11
104
21
72
0
LINE
8
left_outsideCutPath
10
104
20
72
11
104
21
60
0
LINE
8
left_outsideCutPath
10
104
20
60
11
107
21
60
0
LINE
8
left_outsideCutPath
10
107
20
60
11
107
21
48
0
LINE
8
left_outsideCutPath
10
107
20
48
11
104
21
48
0
LINE
8
left_outsideCutPath
10
104
20
48
11
104
21
36
0
LINE
8
left_outsideCutPath
10
104
20
36
11
107
21
36
0
LINE
8
left_outsideCutPath
10
107
20
36
11
107
21
24
0
LINE
8
left_outsideCutPath
10
107
20
24
11
104
21
24
0
LINE
8
left_outsideCutPath
10
104
20
24
11
104
21
12
0
LINE
8
left_outsideCutPath
10
104
20
12
11
107
21
12
0
LINE
8
left_outsideCutPath
10
107
20
12
11
107
21
3
0
LINE
8
left_outsideCutPath
10
107
20
3
11
113.5
21
3
0
LINE
8
left_outsideCutPath
10
113.5
20
3
11
113.5
21
6
0
LINE
8
left_outsideCutPath
10
113.5
20
6
11
125.5
21
6
0
LINE
8
left_outsideCutPath
10
125.5
20
6
11
125.5
21
3
0
LINE
8
left_outsideCutPath
10
125.5
20
3
11
132
21
3
0
LINE
8
left_outsideCutPath
10
132
20
3
11
132
21
12
0
LINE
8
left_outsideCutPath
10
132
20
12
11
135
21
12
0
LINE
8
left_outsideCutPath
10
135
20
12
11
135
21
24
0
LINE
8
left_outsideCutPath
10
135
20
24
11
132
21
24
0
LINE
8
left_outsideCutPath
10
132
20
24
11
132
21
36
0
LINE
8
left_outsideCutPath
10
132
20
36
11
135
21
36
0
LINE
8
left_outsideCutPath
10
135
20
36
11
135
21
48
0
LINE
8
left_outsideCutPath
10
135
20
48
11
132
21
48
0
LINE
8
left_outsideCutPath
10
132
20
48
11
132
21
60
0
LINE
8
left_outsideCutPath
10
132
20
60
11
135
21
60
0
LINE
8
left_outsideCutPath
10
135
20
60
11
135
21
72
0
LINE
8
left_outsideCutPath
10
135
20
72
11
132
21
72
0
LINE
8
left_outsideCutPath
10
132
20
72
11
132
21
81
0
LINE
8
left_outsideCutPath
10
132
20
81
11
125.5
21
81
0
LINE
8
left_outsideCutPath
10
125.5
20
81
11
125.5
21
78
0
LINE
8
left_outsideCutPath
10
125.5
20
78
11
113.5
21
78
0
LINE
8
left_outsideCutPath
10
113.5
20
78
11
113.5
21
81
0
LINE
8
left_outsideCutPath
10
113.5
20
81
11
107
21
81
0
LINE
8
left_labelLayer
10
115.6658691
20
44.3689621
11
115.6658691
21
39.6584153
0
LINE
8
left_labelLayer
10
115.6658691
20
39.6584153
11
115.1633301
21
39.6584153
0
LINE
8
left_labelLayer
10
115.1633301
20
39.6584153
11
115.1633301
21
44.3689621
0
LINE
8
left_labelLayer
10
115.1633301
20
44.3689621
11
115.6658691
21
44.3689621
0
LINE
8
left_labelLayer
10
119.3531738
20
41.5444504
11
119.3531738
21
41.2265793
0
LINE
8
left_labelLayer
10
119.3531738
20
41.2265793
11
117.0675293
21
41.2265793
0
LINE
8
left_labelLayer
10
119.2108887
20
40.2608567
11
119.2108887
21
39.8128098
0
LINE
8
left_labelLayer
10
117.0796387
20
41.6352707
11
118.8143066
21
41.6352707
0
ARC
8
left_labelLayer
10
118.1166309
20
41.5506471
40
1.9528486
50
256.0088119
51
270.4847948
0
ARC
8
left_labelLayer
10
117.9744243
20
40.9985701
40
1.3827758
50
223.5465607
51
256.1957125
0
ARC
8
left_labelLayer
10
118.0528712
20
41.0555873
40
1.4789716
50
194.0876998
51
223.0538293
0
ARC
8
left_labelLayer
10
118.7716716
20
41.2521542
40
2.2240548
50
181.3574736
51
194.4920126
0
ARC
8
left_labelLayer
10
119.4177808
20
41.2895943
40
2.8709547
50
179.9888386
51
181.7989912
0
ARC
8
left_labelLayer
10
119.1855746
20
41.3078558
40
2.6388078
50
168.9538907
51
180.3843675
0
ARC
8
left_labelLayer
10
118.323759
20
41.4833387
40
1.7593509
50
149.4070923
51
169.1854014
0
ARC
8
left_labelLayer
10
118.0836456
20
41.610203
40
1.488151
50
140.1056049
51
148.9066963
0
ARC
8
left_labelLayer
10
117.9361209
20
41.7462134
40
1.2877692
50
92.4762731
51
140.5386276
0
ARC
8
left_labelLayer
10
118.0018538
20
41.2604286
40
1.7765025
50
89.9637261
51
93.9175382
0
ARC
8
left_labelLayer
10
118.0175426
20
41.5059587
40
1.5310414
50
74.2125884
51
90.545035
0
ARC
8
left_labelLayer
10
118.1134344
20
41.859269
40
1.1649759
50
41.2065036
51
74.0232343
0
ARC
8
left_labelLayer
10
117.9318308
20
41.7021055
40
1.4051396
50
11.5994264
51
41.1495986
0
ARC
8
left_labelLayer
10
117.3078526
20
41.5582029
40
2.0453674
50
359.6147554
51
12.0336687
0
ARC
8
left_labelLayer
10
119.0841338
20
41.2668752
40
2.0170071
50
181.1447332
51
190.800731
0
ARC
8
left_labelLayer
10
118.3725593
20
41.1265325
40
1.2917469
50
190.6006084
51
206.0275109
0
ARC
8
left_labelLayer
10
118.0577337
20
40.9776978
40
0.9435511
50
206.2950554
51
222.555731
0
ARC
8
left_labelLayer
10
118.0298319
20
40.963088
40
0.9131533
50
223.0644978
51
258.1401709
0
ARC
8
left_labelLayer
10
118.1408888
20
41.4203787
40
1.3835848
50
257.5312185
51
270.4319016
0
ARC
8
left_labelLayer
10
118.1421282
20
42.691003
40
2.6541856
50
270.198387
51
292.2090304
0
ARC
8
left_labelLayer
10
118.0142129
20
43.0581553
40
3.0425175
50
291.8257397
51
293.1610893
0
ARC
8
left_labelLayer
10
118.0085669
20
42.5797852
40
3.0169074
50
287.9023039
51
293.486182
0
ARC
8
left_labelLayer
10
118.2274175
20
41.9045497
40
2.307092
50
281.993577
51
287.8851582
0
ARC
8
left_labelLayer
10
118.2804461
20
41.7139875
40
2.1097057
50
275.9055169
51
281.6602953
0
ARC
8
left_labelLayer
10
118.1742756
20
42.7050022
40
3.1063869
50
271.9119739
51
275.9727143
0
ARC
8
left_labelLayer
10
118.1355237
20
43.6921313
40
4.0942635
50
269.9668417
51
271.9930797
0
ARC
8
left_labelLayer
10
117.9872809
20
41.625551
40
0.990626
50
89.4422672
51
106.2089184
0
ARC
8
left_labelLayer
10
117.9276833
20
41.842855
40
0.7653314
50
106.46568
51
137.917647
0
ARC
8
left_labelLayer
10
118.0985492
20
41.692806
40
0.9927125
50
138.099473
51
160.5866429
0
ARC
8
left_labelLayer
10
118.537762
20
41.5312275
40
1.4606736
50
160.3353636
51
172.5315307
0
ARC
8
left_labelLayer
10
118.9701096
20
41.4619478
40
1.8983997
50
172.1544078
51
174.7616288
0
ARC
8
left_labelLayer
10
117.1018614
20
41.6449998
40
1.7124728
50
359.6744827
51
8.9224273
0
ARC
8
left_labelLayer
10
117.7137616
20
41.7446979
40
1.09252
50
8.7342752
51
23.2771798
0
ARC
8
left_labelLayer
10
118.0042652
20
41.866644
40
0.7774768
50
23.4821196
51
39.7072552
0
ARC
8
left_labelLayer
10
118.0756178
20
41.9200394
40
0.6884861
50
40.0822998
51
80.6243069
0
ARC
8
left_labelLayer
10
118.0021704
20
41.5833633
40
1.0327802
50
79.6467938
51
90.2910663
0
LINE
8
left_labelLayer
10
121.7054199
20
42.976384
11
121.7054199
21
42.5858567
0
LINE
8
left_labelLayer
10
121.7054199
20
42.5858567
11
120.860791
21
42.5858567
0
LINE
8
left_labelLayer
10
120.860791
20
42.5858567
11
120.860791
21
39.6584153
0
LINE
8
left_labelLayer
10
120.860791
20
39.6584153
11
120.3582519
21
39.6584153
0
LINE
8
left_labelLayer
10
120.3582519
20
39.6584153
11
120.3582519
21
42.5858567
0
LINE
8
left_labelLayer
10
120.3582519
20
42.5858567
11
119.7648926
21
42.5858567
0
LINE
8
left_labelLayer
10
119.7648926
20
42.5858567
11
119.7648926
21
42.8129074
0
LINE
8
left_labelLayer
10
119.7648926
20
42.8129074
11
120.3582519
21
42.9945481
0
LINE
8
left_labelLayer
10
120.3582519
20
42.9945481
11
120.3582519
21
43.179216
0
LINE
8
left_labelLayer
10
122.0444824
20
44.2963059
11
121.9143066
21
43.8936692
0
LINE
8
left_labelLayer
10
120.860791
20
43.1913254
11
120.860791
21
42.976384
0
LINE
8
left_labelLayer
10
120.860791
20
42.976384
11
121.7054199
21
42.976384
0
ARC
8
left_labelLayer
10
122.3948714
20
43.2026292
40
2.0367541
50
167.5775997
51
180.6586477
0
ARC
8
left_labelLayer
10
121.4371189
20
43.4259219
40
1.0534589
50
141.7433639
51
168.2322341
0
ARC
8
left_labelLayer
10
121.28118
20
43.5073106
40
0.8812188
50
98.2551472
51
139.6203452
0
ARC
8
left_labelLayer
10
121.4180973
20
42.8748105
40
1.5274777
50
89.6696462
51
99.93146
0
ARC
8
left_labelLayer
10
121.4184788
20
42.7839688
40
1.6183161
50
81.5641657
51
89.7016982
0
ARC
8
left_labelLayer
10
121.3047049
20
41.990241
40
2.4201502
50
75.974054
51
81.6564555
0
ARC
8
left_labelLayer
10
121.1094538
20
41.1804138
40
3.2531617
50
73.2963536
51
76.0945377
0
ARC
8
left_labelLayer
10
121.1586626
20
41.5733743
40
2.440239
50
71.9612682
51
76.5919071
0
ARC
8
left_labelLayer
10
121.3479661
20
42.3764339
40
1.6151729
50
76.5183309
51
83.0217082
0
ARC
8
left_labelLayer
10
121.4139136
20
42.9067676
40
1.0807561
50
83.0761568
51
89.792785
0
ARC
8
left_labelLayer
10
121.4117421
20
43.3098086
40
0.6777355
50
89.4859801
51
103.4196624
0
ARC
8
left_labelLayer
10
121.350639
20
43.5445638
40
0.4352372
50
102.7676964
51
144.3380477
0
ARC
8
left_labelLayer
10
121.4737397
20
43.4653603
40
0.581476
50
145.0689457
51
162.1800986
0
ARC
8
left_labelLayer
10
121.8957988
20
43.3233604
40
1.0267594
50
161.8438258
51
171.7846415
0
ARC
8
left_labelLayer
10
122.5841312
20
43.2199741
40
1.722806
50
171.6527225
51
178.4384121
0
ARC
8
left_labelLayer
10
123.2335735
20
43.1922788
40
2.3727828
50
178.1972607
51
180.0230226
0
LINE
8
left_labelLayer
10
123.8366699
20
40.0731614
11
123.8366699
21
39.6886887
0
LINE
8
left_labelLayer
10
122.3472168
20
40.6120285
11
122.3472168
21
42.5858567
0
LINE
8
left_labelLayer
10
122.3472168
20
42.5858567
11
121.8719238
21
42.5858567
0
LINE
8
left_labelLayer
10
121.8719238
20
42.5858567
11
121.8719238
21
42.8280442
0
LINE
8
left_labelLayer
10
121.8719238
20
42.8280442
11
122.3472168
21
43.0369309
0
LINE
8
left_labelLayer
10
122.3472168
20
43.0369309
11
122.5591308
21
43.7453293
0
LINE
8
left_labelLayer
10
122.5591308
20
43.7453293
11
122.8497558
21
43.7453293
0
LINE
8
left_labelLayer
10
122.8497558
20
43.7453293
11
122.8497558
21
42.976384
0
LINE
8
left_labelLayer
10
122.8497558
20
42.976384
11
123.8124512
21
42.976384
0
LINE
8
left_labelLayer
10
123.8124512
20
42.976384
11
123.8124512
21
42.5858567
0
LINE
8
left_labelLayer
10
123.8124512
20
42.5858567
11
122.8497558
21
42.5858567
0
LINE
8
left_labelLayer
10
122.8497558
20
42.5858567
11
122.8497558
21
40.6332199
0
ARC
8
left_labelLayer
10
123.3860134
20
41.6630256
40
1.6504147
50
269.8804005
51
278.3028385
0
ARC
8
left_labelLayer
10
123.4015917
20
41.535554
40
1.5220327
50
278.4154933
51
279.0077198
0
ARC
8
left_labelLayer
10
123.2166367
20
42.7171104
40
2.7179761
50
278.9588256
51
280.5105885
0
ARC
8
left_labelLayer
10
123.3930165
20
41.7707624
40
1.7553322
50
280.4847972
51
282.6268004
0
ARC
8
left_labelLayer
10
123.5477781
20
41.0831835
40
1.0505521
50
282.5878541
51
285.5793969
0
ARC
8
left_labelLayer
10
123.623812
20
40.8032424
40
0.760478
50
285.7258892
51
286.2542432
0
ARC
8
left_labelLayer
10
123.6253898
20
40.1355591
40
0.4943
50
287.988759
51
295.3047588
0
ARC
8
left_labelLayer
10
123.5061627
20
40.4962736
40
0.874205
50
283.3070394
51
288.1197974
0
ARC
8
left_labelLayer
10
123.3802198
20
41.0216183
40
1.4144336
50
280.0071007
51
283.3736021
0
ARC
8
left_labelLayer
10
123.2962893
20
41.4769266
40
1.8774028
50
279.1859453
51
280.1149698
0
ARC
8
left_labelLayer
10
123.2442174
20
41.773209
40
2.1782019
50
275.5261532
51
279.2939468
0
ARC
8
left_labelLayer
10
123.302519
20
41.164267
40
1.5664756
50
270.8932338
51
275.5484851
0
ARC
8
left_labelLayer
10
123.3098412
20
40.8846121
40
1.2867439
50
270.0031568
51
270.7613563
0
ARC
8
left_labelLayer
10
123.2896336
20
40.910274
40
1.3125623
50
253.7848204
51
270.8852293
0
ARC
8
left_labelLayer
10
123.1341299
20
40.3799448
40
0.759907
50
190.3817581
51
253.8772333
0
ARC
8
left_labelLayer
10
123.9267189
20
40.5942486
40
1.5796022
50
179.3550656
51
192.8478047
0
ARC
8
left_labelLayer
10
123.8616876
20
40.6268909
40
1.0119516
50
179.6416544
51
189.7505428
0
ARC
8
left_labelLayer
10
123.504448
20
40.5631738
40
0.6490854
50
189.5479545
51
205.7873196
0
ARC
8
left_labelLayer
10
123.3576346
20
40.4954732
40
0.4874491
50
206.1293589
51
221.4084105
0
ARC
8
left_labelLayer
10
123.3411758
20
40.4829844
40
0.4668469
50
221.5948938
51
262.3505019
0
ARC
8
left_labelLayer
10
123.3803244
20
40.684288
40
0.6716773
50
261.3264635
51
270.1914162
0
LINE
8
top_outsideCutPath
10
141
20
31
11
141
21
24.5
0
LINE
8
top_outsideCutPath
10
141
20
24.5
11
138
21
24.5
0
LINE
8
top_outsideCutPath
10
138
20
24.5
11
138
21
12.5
0
LINE
8
top_outsideCutPath
10
138
20
12.5
11
141
21
12.5
0
LINE
8
top_outsideCutPath
10
141
20
12.5
11
141
21
6
0
LINE
8
top_outsideCutPath
10
141
20
6
11
146.5
21
6
0
LINE
8
top_outsideCutPath
10
146.5
20
6
11
146.5
21
3
0
LINE
8
top_outsideCutPath
10
146.5
20
3
11
158.5
21
3
0
LINE
8
top_outsideCutPath
10
158.5
20
3
11
158.5
21
6
0
LINE
8
top_outsideCutPath
10
158.5
20
6
11
170.5
21
6
0
LINE
8
top_outsideCutPath
10
170.5
20
6
11
170.5
21
3
0
LINE
8
top_outsideCutPath
10
170.5
20
3
11
182.5
21
3
0
LINE
8
top_outsideCutPath
10
182.5
20
3
11
182.5
21
6
0
LINE
8
top_outsideCutPath
10
182.5
20
6
11
194.5
21
6
0
LINE
8
top_outsideCutPath
10
194.5
20
6
11
194.5
21
3
0
LINE
8
top_outsideCutPath
10
194.5
20
3
11
206.5
21
3
0
LINE
8
top_outsideCutPath
10
206.5
20
3
11
206.5
21
6
0
LINE
8
top_outsideCutPath
10
206.5
20
6
11
218.5
21
6
0
LINE
8
top_outsideCutPath
10
218.5
20
6
11
218.5
21
3
0
LINE
8
top_outsideCutPath
10
218.5
20
3
11
230.5
21
3
0
LINE
8
top_outsideCutPath
10
230.5
20
3
11
230.5
21
6
0
LINE
8
top_outsideCutPath
10
230.5
20
6
11
236
21
6
0
LINE
8
top_outsideCutPath
10
236
20
6
11
236
21
12.5
0
LINE
8
top_outsideCutPath
10
236
20
12.5
11
239
21
12.5
0
LINE
8
top_outsideCutPath
10
239
20
12.5
11
239
21
24.5
0
LINE
8
top_outsideCutPath
10
239
20
24.5
11
236
21
24.5
0
LINE
8
top_outsideCutPath
10
236
20
24.5
11
236
21
31
0
LINE
8
top_outsideCutPath
10
236
20
31
11
230.5
21
31
0
LINE
8
top_outsideCutPath
10
230.5
20
31
11
230.5
21
34
0
LINE
8
top_outsideCutPath
10
230.5
20
34
11
218.5
21
34
0
LINE
8
top_outsideCutPath
10
218.5
20
34
11
218.5
21
31
0
LINE
8
top_outsideCutPath
10
218.5
20
31
11
206.5
21
31
0
LINE
8
top_outsideCutPath
10
206.5
20
31
11
206.5
21
34
0
LINE
8
top_outsideCutPath
10
206.5
20
34
11
194.5
21
34
0
LINE
8
top_outsideCutPath
10
194.5
20
34
11
194.5
21
31
0
LINE
8
top_outsideCutPath
10
194.5
20
31
11
182.5
21
31
0
LINE
8
top_outsideCutPath
10
182.5
20
31
11
182.5
21
34
0
LINE
8
top_outsideCutPath
10
182.5
20
34
11
170.5
21
34
0
LINE
8
top_outsideCutPath
10
170.5
20
34
11
170.5
21
31
0
LINE
8
top_outsideCutPath
10
170.5
20
31
11
158.5
21
31
0
LINE
8
top_outsideCutPath
10
158.5
20
31
11
158.5
21
34
0
LINE
8
top_outsideCutPath
10
158.5
20
34
11
146.5
21
34
0
LINE
8
top_outsideCutPath
10
146.5
20
34
11
146.5
21
31
0
LINE
8
top_outsideCutPath
10
146.5
20
31
11
141
21
31
0
LINE
8
top_labelLayer
10
185.8177478
20
17.6160156
11
185.8177478
21
17.231543
0
LINE
8
top_labelLayer
10
184.3282947
20
18.1548828
11
184.3282947
21
20.1287109
0
LINE
8
top_labelLayer
10
184.3282947
20
20.1287109
11
183.8530017
21
20.1287109
0
LINE
8
top_labelLayer
10
183.8530017
20
20.1287109
11
183.8530017
21
20.3708984
0
LINE
8
top_labelLayer
10
183.8530017
20
20.3708984
11
184.3282947
21
20.5797852
0
LINE
8
top_labelLayer
10
184.3282947
20
20.5797852
11
184.5402087
21
21.2881836
0
LINE
8
top_labelLayer
10
184.5402087
20
21.2881836
11
184.8308337
21
21.2881836
0
LINE
8
top_labelLayer
10
184.8308337
20
21.2881836
11
184.8308337
21
20.5192383
0
LINE
8
top_labelLayer
10
184.8308337
20
20.5192383
11
185.793529
21
20.5192383
0
LINE
8
top_labelLayer
10
185.793529
20
20.5192383
11
185.793529
21
20.1287109
0
LINE
8
top_labelLayer
10
185.793529
20
20.1287109
11
184.8308337
21
20.1287109
0
LINE
8
top_labelLayer
10
184.8308337
20
20.1287109
11
184.8308337
21
18.1760742
0
ARC
8
top_labelLayer
10
185.3670913
20
19.2058799
40
1.6504147
50
269.8804005
51
278.3028385
0
ARC
8
top_labelLayer
10
185.3826695
20
19.0784083
40
1.5220327
50
278.4154933
51
279.0077198
0
ARC
8
top_labelLayer
10
185.1977146
20
20.2599646
40
2.7179761
50
278.9588256
51
280.5105885
0
ARC
8
top_labelLayer
10
185.3740944
20
19.3136167
40
1.7553322
50
280.4847972
51
282.6268004
0
ARC
8
top_labelLayer
10
185.528856
20
18.6260378
40
1.0505521
50
282.5878541
51
285.5793969
0
ARC
8
top_labelLayer
10
185.6048899
20
18.3460967
40
0.760478
50
285.7258892
51
286.2542432
0
ARC
8
top_labelLayer
10
185.6064677
20
17.6784134
40
0.4943
50
287.988759
51
295.3047588
0
ARC
8
top_labelLayer
10
185.4872406
20
18.0391279
40
0.874205
50
283.3070394
51
288.1197974
0
ARC
8
top_labelLayer
10
185.3612977
20
18.5644726
40
1.4144336
50
280.0071007
51
283.3736021
0
ARC
8
top_labelLayer
10
185.2773672
20
19.0197809
40
1.8774028
50
279.1859453
51
280.1149698
0
ARC
8
top_labelLayer
10
185.2252953
20
19.3160632
40
2.1782019
50
275.5261532
51
279.2939468
0
ARC
8
top_labelLayer
10
185.2835969
20
18.7071213
40
1.5664756
50
270.8932338
51
275.5484851
0
ARC
8
top_labelLayer
10
185.2909191
20
18.4274664
40
1.2867439
50
270.0031568
51
270.7613563
0
ARC
8
top_labelLayer
10
185.2707115
20
18.4531283
40
1.3125623
50
253.7848204
51
270.8852293
0
ARC
8
top_labelLayer
10
185.1152078
20
17.9227991
40
0.759907
50
190.3817581
51
253.8772333
0
ARC
8
top_labelLayer
10
185.9077968
20
18.1371028
40
1.5796022
50
179.3550656
51
192.8478047
0
ARC
8
top_labelLayer
10
185.8427655
20
18.1697452
40
1.0119516
50
179.6416544
51
189.7505428
0
ARC
8
top_labelLayer
10
185.4855259
20
18.106028
40
0.6490854
50
189.5479545
51
205.7873196
0
ARC
8
top_labelLayer
10
185.3387125
20
18.0383275
40
0.4874491
50
206.1293589
51
221.4084105
0
ARC
8
top_labelLayer
10
185.3222537
20
18.0258387
40
0.4668469
50
221.5948938
51
262.3505019
0
ARC
8
top_labelLayer
10
185.3614023
20
18.2271422
40
0.6716773
50
261.3264635
51
270.1914162
0
ARC
8
top_labelLayer
10
186.7488389
20
18.8457815
40
2.5958233
50
349.1762049
51
0.386263
0
ARC
8
top_labelLayer
10
187.6227908
20
18.6715583
40
1.7047167
50
330.2507289
51
349.4116393
0
ARC
8
top_labelLayer
10
187.8917534
20
18.5317619
40
1.4018863
50
318.143982
51
329.7566515
0
ARC
8
top_labelLayer
10
187.9402945
20
18.4928614
40
1.3397792
50
278.8959194
51
317.9979142
0
ARC
8
top_labelLayer
10
187.8152174
20
19.0921144
40
1.9514103
50
269.750288
51
279.8033376
0
ARC
8
top_labelLayer
10
187.7949318
20
18.7544736
40
1.613794
50
253.5437167
51
270.4182689
0
ARC
8
top_labelLayer
10
187.7412087
20
18.5466623
40
1.3992956
50
238.8114938
51
253.2428736
0
ARC
8
top_labelLayer
10
187.7238748
20
18.5118057
40
1.3605043
50
207.7946982
51
238.675802
0
ARC
8
top_labelLayer
10
187.9726729
20
18.6641838
40
1.6517585
50
205.6561373
51
208.4462063
0
ARC
8
top_labelLayer
10
188.1642758
20
18.7440132
40
1.8590671
50
188.9102666
51
205.3171419
0
ARC
8
top_labelLayer
10
188.8100513
20
18.8533868
40
2.5140028
50
179.7744975
51
189.0933023
0
ARC
8
top_labelLayer
10
188.90531
20
18.8809545
40
2.6093018
50
169.2442985
51
180.3880766
0
ARC
8
top_labelLayer
10
188.0192097
20
19.0561049
40
1.7060949
50
150.711151
51
169.4695645
0
ARC
8
top_labelLayer
10
187.7363425
20
19.2013674
40
1.388373
50
138.1759579
51
150.2287415
0
ARC
8
top_labelLayer
10
187.6892874
20
19.2374765
40
1.329236
50
99.1759217
51
137.9832778
0
ARC
8
top_labelLayer
10
187.8187961
20
18.6280026
40
1.9518039
50
89.7326335
51
100.0760176
0
ARC
8
top_labelLayer
10
187.844681
20
18.8912157
40
1.6886528
50
73.5222378
51
90.5692493
0
ARC
8
top_labelLayer
10
187.9437106
20
19.2510118
40
1.3155637
50
41.1445667
51
73.213397
0
ARC
8
top_labelLayer
10
187.7546717
20
19.088535
40
1.5648244
50
13.501418
51
41.0703539
0
ARC
8
top_labelLayer
10
187.0243044
20
18.8974086
40
2.3196802
50
1.1277555
51
13.8799705
0
ARC
8
top_labelLayer
10
186.3952071
20
18.8636982
40
2.9493962
50
359.9919006
51
1.5419696
0
ARC
8
top_labelLayer
10
189.3615763
20
18.8502213
40
2.5448386
50
179.7059606
51
187.9161061
0
ARC
8
top_labelLayer
10
188.4282204
20
18.7161449
40
1.6019171
50
187.7639459
51
200.0976625
0
ARC
8
top_labelLayer
10
187.9140212
20
18.5277421
40
1.0542892
50
200.0845791
51
216.9132046
0
ARC
8
top_labelLayer
10
187.7262599
20
18.3936705
40
0.8236603
50
217.300933
51
261.7099185
0
ARC
8
top_labelLayer
10
187.8134266
20
18.8096108
40
1.2480991
50
260.5032428
51
270.2476837
0
ARC
8
top_labelLayer
10
187.8300643
20
18.7287349
40
1.1672656
50
269.4481605
51
284.7256125
0
ARC
8
top_labelLayer
10
187.92247
20
18.3860348
40
0.8123364
50
284.5662449
51
322.6334099
0
ARC
8
top_labelLayer
10
187.7064175
20
18.5421228
40
1.0788033
50
323.0089613
51
342.6390231
0
ARC
8
top_labelLayer
10
187.0884843
20
18.744082
40
1.7288688
50
342.3615333
51
353.7538012
0
ARC
8
top_labelLayer
10
186.1767993
20
18.8539755
40
2.6471172
50
353.536294
51
0.2014192
0
ARC
8
top_labelLayer
10
186.3164716
20
18.8760792
40
2.5074612
50
359.7075641
51
7.8972569
0
ARC
8
top_labelLayer
10
187.23478
20
19.0077267
40
1.5797796
50
7.7439855
51
20.0690408
0
ARC
8
top_labelLayer
10
187.7464925
20
19.1955075
40
1.0347013
50
20.0256628
51
37.4350628
0
ARC
8
top_labelLayer
10
187.9162718
20
19.3159802
40
0.8266929
50
37.9577722
51
80.4005894
0
ARC
8
top_labelLayer
10
187.8197913
20
18.8854923
40
1.2674567
50
79.3453499
51
90.317524
0
ARC
8
top_labelLayer
10
187.8019262
20
18.9569888
40
1.19599
50
89.4806305
51
103.8804731
0
ARC
8
top_labelLayer
10
187.7014314
20
19.3396741
40
0.8003921
50
103.468502
51
142.3119039
0
ARC
8
top_labelLayer
10
187.8967995
20
19.2022772
40
1.0390512
50
142.9025788
51
162.374966
0
ARC
8
top_labelLayer
10
188.512404
20
18.9971291
40
1.687899
50
162.0653329
51
173.1674983
0
ARC
8
top_labelLayer
10
189.4722955
20
18.8747006
40
2.6555488
50
173.0086271
51
180.246384
0
LINE
8
top_labelLayer
10
190.7280994
20
17.628125
11
190.6917712
21
17.628125
0
LINE
8
top_labelLayer
10
190.7280994
20
17.0771484
11
190.7280994
21
15.7118164
0
LINE
8
top_labelLayer
10
190.7280994
20
15.7118164
11
190.2255603
21
15.7118164
0
LINE
8
top_labelLayer
10
190.2255603
20
15.7118164
11
190.2255603
21
20.5192383
0
LINE
8
top_labelLayer
10
190.2255603
20
20.5192383
11
190.6342517
21
20.5192383
0
LINE
8
top_labelLayer
10
190.6342517
20
20.5192383
11
190.7038806
21
20.0651367
0
LINE
8
top_labelLayer
10
190.7038806
20
20.0651367
11
190.7280994
21
20.0651367
0
LINE
8
top_labelLayer
10
190.7280994
20
18.975293
11
190.7280994
21
18.8632813
0
ARC
8
top_labelLayer
10
191.7610318
20
18.6650138
40
1.5243147
50
255.7755557
51
270.3185158
0
ARC
8
top_labelLayer
10
191.7175325
20
18.4717468
40
1.3262952
50
245.9801514
51
255.5455526
0
ARC
8
top_labelLayer
10
191.6332775
20
18.2758111
40
1.113034
50
215.5850256
51
245.8361529
0
ARC
8
top_labelLayer
10
185.9734713
20
17.0318894
40
4.7558229
50
2.9502901
51
7.2021005
0
ARC
8
top_labelLayer
10
186.7427002
20
17.0749308
40
3.9853997
50
0.0318812
51
2.9015171
0
ARC
8
top_labelLayer
10
191.8351007
20
19.2876871
40
1.3527305
50
132.3565585
51
144.9195423
0
ARC
8
top_labelLayer
10
191.6278656
20
19.5137729
40
1.046038
50
115.4005808
51
132.3118522
0
ARC
8
top_labelLayer
10
191.7086994
20
19.3169938
40
1.2585194
50
97.7066325
51
114.8821371
0
ARC
8
top_labelLayer
10
191.7651513
20
18.9508689
40
1.628922
50
89.8468404
51
97.9473753
0
ARC
8
top_labelLayer
10
191.7850584
20
19.0394513
40
1.5404124
50
74.1923436
51
90.5784968
0
ARC
8
top_labelLayer
10
191.8916462
20
19.4269208
40
1.138565
50
38.0523529
51
74.0417111
0
ARC
8
top_labelLayer
10
191.5976566
20
19.2015911
40
1.5089602
50
16.3356197
51
37.9090415
0
ARC
8
top_labelLayer
10
190.8253532
20
18.9637163
40
2.317018
50
4.5766343
51
16.6089007
0
ARC
8
top_labelLayer
10
189.874522
20
18.8689711
40
3.2724301
50
359.9003781
51
4.9018408
0
ARC
8
top_labelLayer
10
190.2005099
20
18.8458966
40
2.9464884
50
350.6562538
51
0.3380547
0
ARC
8
top_labelLayer
10
191.2276928
20
18.671183
40
1.9045765
50
335.8305909
51
350.8254688
0
ARC
8
top_labelLayer
10
191.6795492
20
18.4761537
40
1.4124961
50
321.3160936
51
335.5436663
0
ARC
8
top_labelLayer
10
191.8522844
20
18.3353989
40
1.1896845
50
274.0640056
51
321.4081022
0
ARC
8
top_labelLayer
10
191.7718088
20
18.8451784
40
1.7044573
50
269.9225771
51
275.5481082
0
ARC
8
top_labelLayer
10
191.6864984
20
18.7049506
40
1.4480161
50
89.5904268
51
100.3501327
0
ARC
8
top_labelLayer
10
191.5832439
20
19.2473918
40
0.8958596
50
100.0867716
51
118.1917772
0
ARC
8
top_labelLayer
10
191.4774701
20
19.4536854
40
0.6640817
50
118.5569188
51
141.0242742
0
ARC
8
top_labelLayer
10
191.6386474
20
19.3399942
40
0.8609915
50
141.8890229
51
160.5973598
0
ARC
8
top_labelLayer
10
192.2051078
20
19.1321432
40
1.4643514
50
160.2895899
51
171.2452754
0
ARC
8
top_labelLayer
10
193.1364611
20
18.9819787
40
2.4077184
50
171.0868258
51
178.3247102
0
ARC
8
top_labelLayer
10
193.9273351
20
18.9444231
40
3.1993846
50
178.0665027
51
179.4471622
0
ARC
8
top_labelLayer
10
194.0508077
20
18.8503065
40
3.3227337
50
179.776268
51
185.7075501
0
ARC
8
top_labelLayer
10
192.7407744
20
18.7153236
40
2.0057749
50
185.5924391
51
194.2050514
0
ARC
8
top_labelLayer
10
191.9015818
20
18.4975251
40
1.1388072
50
193.9430679
51
208.0218619
0
ARC
8
top_labelLayer
10
191.5620342
20
18.3247863
40
0.757944
50
208.5535925
51
217.5605457
0
ARC
8
top_labelLayer
10
191.5343752
20
18.313283
40
0.729047
50
218.1690109
51
253.8047307
0
ARC
8
top_labelLayer
10
191.6696001
20
18.7301925
40
1.1672069
50
253.1382097
51
266.8482974
0
ARC
8
top_labelLayer
10
191.7075221
20
19.1774403
40
1.6159176
50
266.3776013
51
270.0509404
0
ARC
8
top_labelLayer
10
191.7204012
20
18.4082067
40
0.8467605
50
269.2257255
51
292.0430317
0
ARC
8
top_labelLayer
10
191.7318275
20
18.3401171
40
0.7795036
50
293.1429332
51
324.1354033
0
ARC
8
top_labelLayer
10
191.561999
20
18.4838968
40
1.0015143
50
323.161549
51
325.0150923
0
ARC
8
top_labelLayer
10
191.3803131
20
18.5965415
40
1.2150142
50
325.5753854
51
344.1504792
0
ARC
8
top_labelLayer
10
190.7515859
20
18.7824019
40
1.8706128
50
343.9335745
51
355.1137884
0
ARC
8
top_labelLayer
10
189.9490045
20
18.863845
40
2.677245
50
354.8401644
51
0.1175124
0
ARC
8
top_labelLayer
10
190.0902995
20
18.8821332
40
2.5359767
50
359.7108686
51
7.8610312
0
ARC
8
top_labelLayer
10
191.0123905
20
19.0135744
40
1.6045787
50
7.7149544
51
19.8859705
0
ARC
8
top_labelLayer
10
191.5194982
20
19.1967428
40
1.0654046
50
19.8992014
51
35.8979406
0
ARC
8
top_labelLayer
10
191.7457037
20
19.3680518
40
0.7817421
50
35.4481448
51
85.2266531
0
ARC
8
top_labelLayer
10
191.6984499
20
19.0717071
40
1.0812237
50
84.0379734
51
90.0848147
0
LINE
8
back_outsideCutPath
10
0
20
162
11
0
21
153
0
LINE
8
back_outsideCutPath
10
0
20
153
11
3
21
153
0
LINE
8
back_outsideCutPath
10
3
20
153
11
3
21
141
0
LINE
8
back_outsideCutPath
10
3
20
141
11
0
21
141
0
LINE
8
back_outsideCutPath
10
0
20
141
11
0
21
129
0
LINE
8
back_outsideCutPath
10
0
20
129
11
3
21
129
0
LINE
8
back_outsideCutPath
10
3
20
129
11
3
21
117
0
LINE
8
back_outsideCutPath
10
3
20
117
11
0
21
117
0
LINE
8
back_outsideCutPath
10
0
20
117
11
0
21
105
0
LINE
8
back_outsideCutPath
10
0
20
105
11
3
21
105
0
LINE
8
back_outsideCutPath
10
3
20
105
11
3
21
93
0
LINE
8
back_outsideCutPath
10
3
20
93
11
0
21
93
0
LINE
8
back_outsideCutPath
10
0
20
93
11
0
21
84
0
LINE
8
back_outsideCutPath
10
0
20
84
11
8.5
21
84
0
LINE
8
back_outsideCutPath
10
8.5
20
84
11
8.5
21
87
0
LINE
8
back_outsideCutPath
10
8.5
20
87
11
20.5
21
87
0
LINE
8
back_outsideCutPath
10
20.5
20
87
11
20.5
21
84
0
LINE
8
back_outsideCutPath
10
20.5
20
84
11
32.5
21
84
0
LINE
8
back_outsideCutPath
10
32.5
20
84
11
32.5
21
87
0
LINE
8
back_outsideCutPath
10
32.5
20
87
11
44.5
21
87
0
LINE
8
back_outsideCutPath
10
44.5
20
87
11
44.5
21
84
0
LINE
8
back_outsideCutPath
10
44.5
20
84
11
56.5
21
84
0
LINE
8
back_outsideCutPath
10
56.5
20
84
11
56.5
21
87
0
LINE
8
back_outsideCutPath
10
56.5
20
87
11
68.5
21
87
0
LINE
8
back_outsideCutPath
10
68.5
20
87
11
68.5
21
84
0
LINE
8
back_outsideCutPath
10
68.5
20
84
11
80.5
21
84
0
LINE
8
back_outsideCutPath
10
80.5
20
84
11
80.5
21
87
0
LINE
8
back_outsideCutPath
10
80.5
20
87
11
92.5
21
87
0
LINE
8
back_outsideCutPath
10
92.5
20
87
11
92.5
21
84
0
LINE
8
back_outsideCutPath
10
92.5
20
84
11
101
21
84
0
LINE
8
back_outsideCutPath
10
101
20
84
11
101
21
93
0
LINE
8
back_outsideCutPath
10
101
20
93
11
98
21
93
0
LINE
8
back_outsideCutPath
10
98
20
93
11
98
21
105
0
LINE
8
back_outsideCutPath
10
98
20
105
11
101
21
105
0
LINE
8
back_outsideCutPath
10
101
20
105
11
101
21
117
0
LINE
8
back_outsideCutPath
10
101
20
117
11
98
21
117
0
LINE
8
back_outsideCutPath
10
98
20
117
11
98
21
129
0
LINE
8
back_outsideCutPath
10
98
20
129
11
101
21
129
0
LINE
8
back_outsideCutPath
10
101
20
129
11
101
21
141
0
LINE
8
back_outsideCutPath
10
101
20
141
11
98
21
141
0
LINE
8
back_outsideCutPath
10
98
20
141
11
98
21
153
0
LINE
8
back_outsideCutPath
10
98
20
153
11
101
21
153
0
LINE
8
back_outsideCutPath
10
101
20
153
11
101
21
162
0
LINE
8
back_outsideCutPath
10
101
20
162
11
92.5
21
162
0
LINE
8
back_outsideCutPath
10
92.5
20
162
11
92.5
21
159
0
LINE
8
back_outsideCutPath
10
92.5
20
159
11
80.5
21
159
0
LINE
8
back_outsideCutPath
10
80.5
20
159
11
80.5
21
162
0
LINE
8
back_outsideCutPath
10
80.5
20
162
11
68.5
21
162
0
LINE
8
back_outsideCutPath
10
68.5
20
162
11
68.5
21
159
0
LINE
8
back_outsideCutPath
10
68.5
20
159
11
56.5
21
159
0
LINE
8
back_outsideCutPath
10
56.5
20
159
11
56.5
21
162
0
LINE
8
back_outsideCutPath
10
56.5
20
162
11
44.5
21
162
0
LINE
8
back_outsideCutPath
10
44.5
20
162
11
44.5
21
159
0
LINE
8
back_outsideCutPath
10
44.5
20
159
11
32.5
21
159
0
LINE
8
back_outsideCutPath
10
32.5
20
159
11
32.5
21
162
0
LINE
8
back_outsideCutPath
10
32.5
20
162
11
20.5
21
162
0
LINE
8
back_outsideCutPath
10
20.5
20
162
11
20.5
21
159
0
LINE
8
back_outsideCutPath
10
20.5
20
159
11
8.5
21
159
0
LINE
8
back_outsideCutPath
10
8.5
20
159
11
8.5
21
162
0
LINE
8
back_outsideCutPath
10
8.5
20
162
11
0
21
162
0
LINE
8
back_labelLayer
10
35.5931641
20
118.2241095
11
35.5017578
21
118.2241095
0
LINE
8
back_labelLayer
10
35.5017578
20
118.2241095
11
35.2351562
21
117.150086
0
LINE
8
back_labelLayer
10
35.2351562
20
117.150086
11
34.3287109
21
117.150086
0
LINE
8
back_labelLayer
10
34.3287109
20
117.150086
11
34.3287109
21
129.0024298
0
LINE
8
back_labelLayer
10
34.3287109
20
129.0024298
11
35.5931641
21
129.0024298
0
LINE
8
back_labelLayer
10
35.5931641
20
129.0024298
11
35.5931641
21
126.1231329
0
LINE
8
back_labelLayer
10
35.5322266
20
124.3864142
11
35.5931641
21
124.3864142
0
ARC
8
back_labelLayer
10
38.2514091
20
121.7712158
40
3.8646033
50
74.2393237
51
90.5623889
0
ARC
8
back_labelLayer
10
38.5069497
20
122.7086746
40
2.8929917
50
38.5631283
51
74.067041
0
ARC
8
back_labelLayer
10
37.8493294
20
122.1973366
40
3.7259692
50
16.4709164
51
38.4075283
0
ARC
8
back_labelLayer
10
35.9548037
20
121.6032693
40
5.7112786
50
5.1338638
51
16.7973283
0
ARC
8
back_labelLayer
10
33.5631047
20
121.3492117
40
8.1162105
50
359.8779442
51
5.4093382
0
ARC
8
back_labelLayer
10
34.2656614
20
121.2881813
40
7.4137645
50
350.6562672
51
0.3380426
0
ARC
8
back_labelLayer
10
36.8502051
20
120.8485775
40
4.7921605
50
335.8305987
51
350.8254757
0
ARC
8
back_labelLayer
10
37.9871071
20
120.3578761
40
3.5540544
50
321.3161558
51
335.5435996
0
ARC
8
back_labelLayer
10
38.4217585
20
120.0037021
40
2.9933998
50
274.0640076
51
321.4081005
0
ARC
8
back_labelLayer
10
38.2192697
20
121.2863623
40
4.288624
50
269.922604
51
275.5481489
0
ARC
8
back_labelLayer
10
38.1921541
20
120.8330435
40
3.8353605
50
255.7755284
51
270.3185343
0
ARC
8
back_labelLayer
10
38.0827014
20
120.3467635
40
3.3371218
50
245.9801657
51
255.5455901
0
ARC
8
back_labelLayer
10
37.8707089
20
119.8537713
40
2.8005371
50
215.5850267
51
245.836156
0
ARC
8
back_labelLayer
10
9.2304596
20
126.1008402
40
26.3627139
50
358.1123224
51
0.0484501
0
ARC
8
back_labelLayer
10
16.5675818
20
125.8545151
40
19.0214598
50
355.7238499
51
358.1258921
0
ARC
8
back_labelLayer
10
19.785892
20
125.6335516
40
15.7956451
50
355.4715266
51
355.6526803
0
ARC
8
back_labelLayer
10
37.951314
20
122.7420126
40
2.8748788
50
95.1835132
51
145.1108961
0
ARC
8
back_labelLayer
10
38.204005
20
121.3170516
40
4.3185916
50
89.8743381
51
96.8145157
0
ARC
8
back_labelLayer
10
38.004193
20
121.0237106
40
3.5532319
50
89.5731502
51
100.7324024
0
ARC
8
back_labelLayer
10
37.741155
20
122.3526786
40
2.1985544
50
100.4469489
51
119.6700793
0
ARC
8
back_labelLayer
10
37.497239
20
122.8087076
40
1.6816323
50
120.1402881
51
142.4249122
0
ARC
8
back_labelLayer
10
37.9007791
20
122.541752
40
2.1645247
50
143.3382321
51
161.2559685
0
ARC
8
back_labelLayer
10
39.5883128
20
121.9426237
40
3.9551615
50
160.8926597
51
171.2334009
0
ARC
8
back_labelLayer
10
42.4054224
20
121.4881611
40
6.8086532
50
171.0667944
51
177.8456862
0
ARC
8
back_labelLayer
10
45.3353522
20
121.3391496
40
9.7421908
50
177.6176879
51
180.0425069
0
ARC
8
back_labelLayer
10
43.953551
20
121.2992759
40
8.3604506
50
179.7762697
51
185.7075348
0
ARC
8
back_labelLayer
10
40.6573205
20
120.959645
40
5.046795
50
185.5924725
51
194.2050731
0
ARC
8
back_labelLayer
10
38.5457923
20
120.4116293
40
2.8653802
50
193.9430322
51
208.0218546
0
ARC
8
back_labelLayer
10
37.691475
20
119.977014
40
1.9071122
50
208.5536501
51
217.5604737
0
ARC
8
back_labelLayer
10
37.62186
20
119.9480587
40
1.8343798
50
218.1690551
51
253.8047029
0
ARC
8
back_labelLayer
10
37.962101
20
120.9970584
40
2.9368477
50
253.1382476
51
266.8483128
0
ARC
8
back_labelLayer
10
38.0575133
20
122.1223136
40
4.0657839
50
266.3776015
51
270.0510069
0
ARC
8
back_labelLayer
10
38.0881055
20
120.5770608
40
2.5206737
50
269.3868897
51
285.8630723
0
ARC
8
back_labelLayer
10
38.2753752
20
119.9002421
40
1.8184483
50
286.016301
51
326.8497317
0
ARC
8
back_labelLayer
10
37.3715111
20
120.4990188
40
2.9026405
50
326.710505
51
343.6661723
0
ARC
8
back_labelLayer
10
35.6795159
20
121.0160356
40
4.6717923
50
343.417156
51
353.6368949
0
ARC
8
back_labelLayer
10
33.1239833
20
121.3192663
40
7.245211
50
353.4934777
51
0.220558
0
ARC
8
back_labelLayer
10
32.8987241
20
121.3773966
40
7.4704778
50
359.768068
51
6.30953
0
ARC
8
back_labelLayer
10
35.7126858
20
121.7003172
40
4.6380869
50
6.1648577
51
16.0396318
0
ARC
8
back_labelLayer
10
37.5254073
20
122.2345239
40
2.7483593
50
15.7779665
51
32.0151232
0
ARC
8
back_labelLayer
10
38.0904577
20
122.5580833
40
2.0978673
50
32.7036305
51
35.524095
0
ARC
8
back_labelLayer
10
38.2974258
20
122.7051819
40
1.843951
50
35.5408284
51
79.8011211
0
ARC
8
back_labelLayer
10
38.0498019
20
121.6524812
40
2.9244252
50
78.67814
51
90.3749549
0
LINE
8
back_labelLayer
10
49.9591797
20
117.150086
11
49.0222656
21
117.150086
0
LINE
8
back_labelLayer
10
49.0222656
20
117.150086
11
48.7708984
21
118.3383673
0
LINE
8
back_labelLayer
10
48.7708984
20
118.3383673
11
48.7099609
21
118.3383673
0
LINE
8
back_labelLayer
10
47.3083984
20
122.1088751
11
48.7251953
21
122.1545782
0
LINE
8
back_labelLayer
10
48.7251953
20
122.1545782
11
48.7251953
21
122.672547
0
LINE
8
back_labelLayer
10
44.5890625
20
123.9522345
11
44.2005859
21
124.9196173
0
LINE
8
back_labelLayer
10
49.9591797
20
122.8477423
11
49.9591797
21
117.150086
0
LINE
8
back_labelLayer
10
48.6947266
20
120.5016485
11
48.6947266
21
121.2557501
0
LINE
8
back_labelLayer
10
48.6947266
20
121.2557501
11
47.4302734
21
121.2024298
0
ARC
8
back_labelLayer
10
44.5959059
20
121.5866165
40
5.24181
50
314.7445261
51
321.7071682
0
ARC
8
back_labelLayer
10
45.8837507
20
120.2780689
40
3.4058424
50
304.8485619
51
314.8530818
0
ARC
8
back_labelLayer
10
46.5024017
20
119.3974805
40
2.3296755
50
294.3932428
51
304.7371764
0
ARC
8
back_labelLayer
10
46.2910424
20
119.945122
40
2.9159156
50
281.2979397
51
293.7313891
0
ARC
8
back_labelLayer
10
46.0116386
20
121.2992581
40
4.2985579
50
272.9335204
51
281.4138958
0
ARC
8
back_labelLayer
10
45.9190338
20
122.6881043
40
5.6903637
50
269.9538778
51
273.1490575
0
ARC
8
back_labelLayer
10
45.8870416
20
120.8780808
40
3.8804353
50
258.6719684
51
270.4047426
0
ARC
8
back_labelLayer
10
45.6174998
20
119.5887061
40
2.5632581
50
238.3273012
51
258.9183914
0
ARC
8
back_labelLayer
10
45.4317515
20
119.2498325
40
2.1774161
50
227.7689296
51
237.8050243
0
ARC
8
back_labelLayer
10
45.3736554
20
119.168731
40
2.0783494
50
192.0827651
51
227.4520778
0
ARC
8
back_labelLayer
10
46.4451703
20
119.4328695
40
3.1815984
50
179.5457426
51
192.6949313
0
ARC
8
back_labelLayer
10
45.4497413
20
119.5480667
40
2.1879202
50
115.4904619
51
182.3568137
0
ARC
8
back_labelLayer
10
46.5454771
20
117.5382595
40
4.4753703
50
101.3568228
51
117.0798511
0
ARC
8
back_labelLayer
10
47.4254505
20
113.4260622
40
8.680495
50
92.4696195
51
101.7064902
0
ARC
8
back_labelLayer
10
47.6783563
20
109.7630533
40
12.3513635
50
91.7164254
51
92.9095376
0
ARC
8
back_labelLayer
10
45.0934289
20
122.6919858
40
3.6318185
50
359.6933299
51
8.0035611
0
ARC
8
back_labelLayer
10
46.467278
20
122.8921264
40
2.2434955
50
7.8272505
51
20.6041566
0
ARC
8
back_labelLayer
10
47.2447099
20
123.1895314
40
1.4111411
50
20.4094479
51
41.4479389
0
ARC
8
back_labelLayer
10
47.3595789
20
123.2526716
40
1.2835665
50
42.7295605
51
71.0380234
0
ARC
8
back_labelLayer
10
47.0891476
20
122.5173672
40
2.0669118
50
70.5715948
51
83.9928956
0
ARC
8
back_labelLayer
10
46.9599497
20
121.4679086
40
3.1241843
50
83.6506659
51
90.1753075
0
ARC
8
back_labelLayer
10
46.9826128
20
120.4754213
40
4.1167831
50
90.44846
51
103.766551
0
ARC
8
back_labelLayer
10
47.4667248
20
118.4338994
40
6.2148809
50
103.6226528
51
112.4320017
0
ARC
8
back_labelLayer
10
48.296531
20
116.3386921
40
8.4682556
50
112.2122029
51
115.9640953
0
ARC
8
back_labelLayer
10
46.9676506
20
119.7881281
40
5.8299938
50
106.3568569
51
118.3349793
0
ARC
8
back_labelLayer
10
47.2160541
20
119.0207657
40
6.6362908
50
104.5162569
51
106.5489218
0
ARC
8
back_labelLayer
10
47.0338644
20
119.7798055
40
5.8558318
50
90.0714449
51
104.6520967
0
ARC
8
back_labelLayer
10
47.0568445
20
120.295354
40
5.3403648
50
81.56798
51
90.3248917
0
ARC
8
back_labelLayer
10
47.3656177
20
122.3069237
40
3.3052785
50
68.2273537
51
81.7494268
0
ARC
8
back_labelLayer
10
47.795683
20
123.3769674
40
2.1520481
50
47.8683407
51
68.2933891
0
ARC
8
back_labelLayer
10
47.865486
20
123.516342
40
2.0022957
50
19.2330957
51
46.6741106
0
ARC
8
back_labelLayer
10
46.7027188
20
123.0837892
40
3.242752
50
6.3379127
51
19.6815499
0
ARC
8
back_labelLayer
10
44.9838699
20
122.8648785
40
4.9753392
50
359.8026602
51
6.6583534
0
ARC
8
back_labelLayer
10
46.1913895
20
121.5225992
40
3.4813962
50
269.5791866
51
282.0413809
0
ARC
8
back_labelLayer
10
46.4453324
20
120.396221
40
2.3268627
50
281.7120984
51
306.4593895
0
ARC
8
back_labelLayer
10
46.5579435
20
120.2110288
40
2.1110871
50
306.9881008
51
313.8559599
0
ARC
8
back_labelLayer
10
46.54454
20
120.2072022
40
2.1176502
50
314.1891936
51
347.4269913
0
ARC
8
back_labelLayer
10
45.4837451
20
120.4730312
40
3.211
50
346.9177863
51
0.28245
0
ARC
8
back_labelLayer
10
44.6912719
20
120.5015782
40
4.0034545
50
359.8179872
51
0.0010064
0
ARC
8
back_labelLayer
10
47.7310532
20
111.9228907
40
9.2844125
50
91.856491
51
96.4478287
0
ARC
8
back_labelLayer
10
47.3123459
20
115.546079
40
5.6371299
50
96.3545203
51
102.9953426
0
ARC
8
back_labelLayer
10
46.7439976
20
117.9608097
40
3.1564573
50
102.7995368
51
113.2433237
0
ARC
8
back_labelLayer
10
46.2754633
20
119.0813621
40
1.9419865
50
113.5886509
51
121.6805147
0
ARC
8
back_labelLayer
10
45.9499413
20
119.5771232
40
1.3492432
50
120.973411
51
172.4179935
0
ARC
8
back_labelLayer
10
46.5862177
20
119.4500325
40
1.9971681
50
171.2122394
51
180.2057827
0
ARC
8
back_labelLayer
10
46.3960543
20
119.4279289
40
1.8070535
50
179.5265931
51
192.7786945
0
ARC
8
back_labelLayer
10
45.7847587
20
119.2797497
40
1.1781601
50
192.3264608
51
222.0579555
0
ARC
8
back_labelLayer
10
45.7392703
20
119.2525411
40
1.1262066
50
222.5804659
51
229.2547915
0
ARC
8
back_labelLayer
10
45.8929358
20
119.4503753
40
1.3764454
50
229.7836853
51
254.272449
0
ARC
8
back_labelLayer
10
46.097578
20
120.1323246
40
2.0883698
50
253.9396736
51
266.453359
0
ARC
8
back_labelLayer
10
46.1628909
20
120.8851609
40
2.8438655
50
266.0782847
51
270.059019
0
LINE
8
back_labelLayer
10
58.1324219
20
125.2166876
11
57.7439453
21
124.1426642
0
LINE
8
back_labelLayer
10
58.0105469
20
118.5516485
11
58.0105469
21
117.431922
0
ARC
8
back_labelLayer
10
55.8602558
20
121.7233456
40
4.7257754
50
256.4243852
51
270.4889726
0
ARC
8
back_labelLayer
10
55.4826215
20
120.2494672
40
3.2045038
50
221.7976274
51
256.8020525
0
ARC
8
back_labelLayer
10
55.8483172
20
120.5196657
40
3.6574637
50
196.0166666
51
221.1349207
0
ARC
8
back_labelLayer
10
57.6862574
20
121.081436
40
5.5791564
50
183.5913664
51
196.353967
0
ARC
8
back_labelLayer
10
59.7451133
20
121.2628221
40
7.6455083
50
179.9388308
51
183.9815311
0
ARC
8
back_labelLayer
10
59.076236
20
121.3159021
40
6.9767712
50
169.8978544
51
180.368882
0
ARC
8
back_labelLayer
10
56.6474541
20
121.765189
40
4.5068666
50
153.0875168
51
170.1051323
0
ARC
8
back_labelLayer
10
55.725928
20
122.2055199
40
3.4859221
50
138.6550252
51
152.6853695
0
ARC
8
back_labelLayer
10
55.5539328
20
122.3308571
40
3.2740587
50
101.4912919
51
138.3133868
0
ARC
8
back_labelLayer
10
55.9487869
20
120.6875207
40
4.9634743
50
89.5891862
51
102.1787856
0
ARC
8
back_labelLayer
10
55.9791512
20
119.9447631
40
5.7061066
50
77.7702305
51
89.9475469
0
ARC
8
back_labelLayer
10
55.8711438
20
119.3489155
40
6.3113454
50
74.6796691
51
77.9578202
0
ARC
8
back_labelLayer
10
56.4545525
20
121.4624861
40
4.11874
50
70.0945507
51
74.7386355
0
ARC
8
back_labelLayer
10
57.0094815
20
122.9832599
40
2.4998907
50
63.5033687
51
70.1862022
0
ARC
8
back_labelLayer
10
57.2700344
20
123.5293428
40
1.8949525
50
62.9288137
51
63.1874722
0
ARC
8
back_labelLayer
10
55.6667736
20
118.9151437
40
5.6250877
50
68.3294454
51
74.8831315
0
ARC
8
back_labelLayer
10
55.369993
20
117.8627952
40
6.7184286
50
74.7801958
51
77.4497178
0
ARC
8
back_labelLayer
10
55.6815827
20
119.3253293
40
5.2231513
50
77.299886
51
81.7345175
0
ARC
8
back_labelLayer
10
55.9088318
20
120.908797
40
3.6234634
50
81.6910205
51
87.5079117
0
ARC
8
back_labelLayer
10
55.9526753
20
121.7282304
40
2.8029106
50
87.6749585
51
89.9748379
0
ARC
8
back_labelLayer
10
55.8912237
20
121.7270992
40
2.804742
50
88.7194032
51
112.5667732
0
ARC
8
back_labelLayer
10
55.6919283
20
122.3860221
40
2.1209067
50
114.4265846
51
161.6632763
0
ARC
8
back_labelLayer
10
57.6717292
20
121.6111064
40
4.2454673
50
160.1418374
51
175.1368304
0
ARC
8
back_labelLayer
10
60.396735
20
121.3051122
40
6.9869948
50
174.5310072
51
180.1549319
0
ARC
8
back_labelLayer
10
59.5333731
20
121.2545956
40
6.1236891
50
179.7041183
51
188.0743698
0
ARC
8
back_labelLayer
10
57.3277021
20
120.9318813
40
3.8945679
50
187.9315162
51
200.3885358
0
ARC
8
back_labelLayer
10
56.1350722
20
120.4900733
40
2.6227355
50
200.4183406
51
216.6392628
0
ARC
8
back_labelLayer
10
55.6350911
20
120.1326502
40
2.0082785
50
216.9695455
51
261.3103105
0
ARC
8
back_labelLayer
10
55.8557416
20
121.1613524
40
3.0591516
50
260.1359325
51
270.2692459
0
ARC
8
back_labelLayer
10
55.8455579
20
123.3953291
40
5.2931516
50
270.2658432
51
286.2891479
0
ARC
8
back_labelLayer
10
55.5237758
20
124.5953672
40
6.5353322
50
286.0460596
51
292.3653894
0
ARC
8
back_labelLayer
10
56.3807294
20
120.6381616
40
3.5967037
50
282.0344373
51
296.9454504
0
ARC
8
back_labelLayer
10
56.0108302
20
122.3051592
40
5.3042075
50
272.5980678
51
282.1878403
0
ARC
8
back_labelLayer
10
55.9047602
20
123.932033
40
6.9342918
50
269.9655097
51
272.864259
0
LINE
8
back_labelLayer
10
61.1792969
20
121.4233282
11
61.2402344
21
121.4233282
0
LINE
8
back_labelLayer
10
62.2380859
20
122.6420782
11
64.9345703
21
125.4985235
0
LINE
8
back_labelLayer
10
64.9345703
20
125.4985235
11
66.4351563
21
125.4985235
0
LINE
8
back_labelLayer
10
66.4351563
20
125.4985235
11
63.053125
21
121.941297
0
LINE
8
back_labelLayer
10
63.053125
20
121.941297
11
66.6712891
21
117.150086
0
LINE
8
back_labelLayer
10
66.6712891
20
117.150086
11
65.1402344
21
117.150086
0
LINE
8
back_labelLayer
10
65.1402344
20
117.150086
11
62.1923828
21
121.0957892
0
LINE
8
back_labelLayer
10
62.1923828
20
121.0957892
11
61.2402344
21
120.2731329
0
LINE
8
back_labelLayer
10
61.2402344
20
120.2731329
11
61.2402344
21
117.150086
0
LINE
8
back_labelLayer
10
61.2402344
20
117.150086
11
59.9910156
21
117.150086
0
LINE
8
back_labelLayer
10
59.9910156
20
117.150086
11
59.9910156
21
129.0024298
0
LINE
8
back_labelLayer
10
59.9910156
20
129.0024298
11
61.2402344
21
129.0024298
0
LINE
8
back_labelLayer
10
61.2402344
20
129.0024298
11
61.2402344
21
122.7182501
0
ARC
8
back_labelLayer
10
67.3500061
20
117.0985725
40
7.4855075
50
142.3234021
51
144.70752
0
ARC
8
back_labelLayer
10
71.3358889
20
114.0241748
40
12.519311
50
140.4331078
51
142.3365975
0
ARC
8
back_labelLayer
10
76.5303801
20
109.7481987
40
19.2473574
50
139.2798795
51
140.470346
0
ARC
8
back_labelLayer
10
82.5372117
20
104.5827506
40
27.1697226
50
138.3417777
51
139.2877323
0
ARC
8
back_labelLayer
10
52.8136321
20
122.734027
40
8.4266171
50
358.2739608
51
359.8927268
0
ARC
8
back_labelLayer
10
46.2593544
20
122.9166801
40
14.9834299
50
357.5041424
51
358.3307387
0
ARC
8
back_labelLayer
10
36.4467463
20
123.3500903
40
24.8056038
50
356.6325244
51
357.4910047
0
ARC
8
back_labelLayer
10
20.132947
20
124.3015938
40
41.1471266
50
356.0329712
51
356.644231
0
ARC
8
back_labelLayer
10
8.9550924
20
125.0562831
40
52.3504146
50
356.0206538
51
356.0553309
0
LINE
8
right_outsideCutPath
10
107
20
162
11
107
21
153
0
LINE
8
right_outsideCutPath
10
107
20
153
11
104
21
153
0
LINE
8
right_outsideCutPath
10
104
20
153
11
104
21
141
0
LINE
8
right_outsideCutPath
10
104
20
141
11
107
21
141
0
LINE
8
right_outsideCutPath
10
107
20
141
11
107
21
129
0
LINE
8
right_outsideCutPath
10
107
20
129
11
104
21
129
0
LINE
8
right_outsideCutPath
10
104
20
129
11
104
21
117
0
LINE
8
right_outsideCutPath
10
104
20
117
11
107
21
117
0
LINE
8
right_outsideCutPath
10
107
20
117
11
107
21
105
0
LINE
8
right_outsideCutPath
10
107
20
105
11
104
21
105
0
LINE
8
right_outsideCutPath
10
104
20
105
11
104
21
93
0
LINE
8
right_outsideCutPath
10
104
20
93
11
107
21
93
0
LINE
8
right_outsideCutPath
10
107
20
93
11
107
21
84
0
LINE
8
right_outsideCutPath
10
107
20
84
11
113.5
21
84
0
LINE
8
right_outsideCutPath
10
113.5
20
84
11
113.5
21
87
0
LINE
8
right_outsideCutPath
10
113.5
20
87
11
125.5
21
87
0
LINE
8
right_outsideCutPath
10
125.5
20
87
11
125.5
21
84
0
LINE
8
right_outsideCutPath
10
125.5
20
84
11
132
21
84
0
LINE
8
right_outsideCutPath
10
132
20
84
11
132
21
93
0
LINE
8
right_outsideCutPath
10
132
20
93
11
135
21
93
0
LINE
8
right_outsideCutPath
10
135
20
93
11
135
21
105
0
LINE
8
right_outsideCutPath
10
135
20
105
11
132
21
105
0
LINE
8
right_outsideCutPath
10
132
20
105
11
132
21
117
0
LINE
8
right_outsideCutPath
10
132
20
117
11
135
21
117
0
LINE
8
right_outsideCutPath
10
135
20
117
11
135
21
129
0
LINE
8
right_outsideCutPath
10
135
20
129
11
132
21
129
0
LINE
8
right_outsideCutPath
10
132
20
129
11
132
21
141
0
LINE
8
right_outsideCutPath
10
132
20
141
11
135
21
141
0
LINE
8
right_outsideCutPath
10
135
20
141
11
135
21
153
0
LINE
8
right_outsideCutPath
10
135
20
153
11
132
21
153
0
LINE
8
right_outsideCutPath
10
132
20
153
11
132
21
162
0
LINE
8
right_outsideCutPath
10
132
20
162
11
125.5
21
162
0
LINE
8
right_outsideCutPath
10
125.5
20
162
11
125.5
21
159
0
LINE
8
right_outsideCutPath
10
125.5
20
159
11
113.5
21
159
0
LINE
8
right_outsideCutPath
10
113.5
20
159
11
113.5
21
162
0
LINE
8
right_outsideCutPath
10
113.5
20
162
11
107
21
162
0
LINE
8
right_labelLayer
10
114.9968262
20
124.7316589
11
114.9271973
21
124.265448
0
LINE
8
right_labelLayer
10
113.5891113
20
123.1695496
11
113.5891113
21
121.3894714
0
LINE
8
right_labelLayer
10
113.5891113
20
121.3894714
11
113.0865723
21
121.3894714
0
LINE
8
right_labelLayer
10
113.0865723
20
121.3894714
11
113.0865723
21
124.7074402
0
LINE
8
right_labelLayer
10
113.0865723
20
124.7074402
11
113.5013183
21
124.7074402
0
LINE
8
right_labelLayer
10
113.5013183
20
124.7074402
11
113.5588379
21
124.0928894
0
LINE
8
right_labelLayer
10
113.5588379
20
124.0928894
11
113.5830566
21
124.0928894
0
ARC
8
right_labelLayer
10
114.6054001
20
122.460905
40
2.3070878
50
84.9922588
51
90.1280476
0
ARC
8
right_labelLayer
10
114.6608064
20
123.0816562
40
1.6838701
50
78.4892321
51
85.026597
0
ARC
8
right_labelLayer
10
114.4457591
20
122.1035681
40
2.214838
50
77.4454251
51
81.6360535
0
ARC
8
right_labelLayer
10
114.5422533
20
122.7686925
40
1.5427524
50
81.588463
51
87.1915683
0
ARC
8
right_labelLayer
10
114.5632163
20
123.1322393
40
1.1786192
50
87.3434919
51
89.9659863
0
ARC
8
right_labelLayer
10
114.558347
20
123.4401238
40
0.8707521
50
89.633552
51
137.0880554
0
ARC
8
right_labelLayer
10
114.7720936
20
123.1997723
40
1.1913398
50
135.6210755
51
138.8377182
0
ARC
8
right_labelLayer
10
114.7407328
20
123.2303794
40
1.1475871
50
138.9575957
51
174.542205
0
ARC
8
right_labelLayer
10
115.1144396
20
123.1719014
40
1.5253301
50
173.6906724
51
180.0883416
0
ARC
8
right_labelLayer
10
115.0616418
20
123.2598596
40
1.6971013
50
139.4139521
51
150.6032399
0
ARC
8
right_labelLayer
10
114.7573411
20
123.5206138
40
1.2963625
50
124.2321323
51
139.4161477
0
ARC
8
right_labelLayer
10
114.5946429
20
123.7662065
40
1.0017961
50
89.6796452
51
124.4405569
0
LINE
8
right_labelLayer
10
116.1199707
20
124.7074402
11
116.1199707
21
121.3894714
0
LINE
8
right_labelLayer
10
116.1199707
20
121.3894714
11
115.6174316
21
121.3894714
0
LINE
8
right_labelLayer
10
115.6174316
20
121.3894714
11
115.6174316
21
124.7074402
0
LINE
8
right_labelLayer
10
115.6174316
20
124.7074402
11
116.1199707
21
124.7074402
0
ARC
8
right_labelLayer
10
116.1319095
20
125.6100077
40
0.5568713
50
170.8452675
51
180.3545969
0
ARC
8
right_labelLayer
10
115.9234475
20
125.644862
40
0.3455213
50
155.9680709
51
171.0515192
0
ARC
8
right_labelLayer
10
115.8224705
20
125.6896579
40
0.2350542
50
133.7881129
51
155.9170035
0
ARC
8
right_labelLayer
10
115.8597475
20
125.6484452
40
0.2906058
50
92.6446222
51
133.4709817
0
ARC
8
right_labelLayer
10
115.8715197
20
125.5560046
40
0.3835644
50
89.9688027
51
93.7641745
0
ARC
8
right_labelLayer
10
115.8763168
20
125.6435151
40
0.2960895
50
46.3708085
51
90.8879113
0
ARC
8
right_labelLayer
10
115.9057859
20
125.6739375
40
0.2537362
50
17.7251231
51
46.4474021
0
ARC
8
right_labelLayer
10
115.7683666
20
125.6266161
40
0.3990521
50
4.9427358
51
18.1899767
0
ARC
8
right_labelLayer
10
115.593518
20
125.6077154
40
0.5748914
50
359.8849759
51
5.3180158
0
ARC
8
right_labelLayer
10
115.6484552
20
125.6030315
40
0.519965
50
349.8346242
51
0.388959
0
ARC
8
right_labelLayer
10
115.8377554
20
125.5677201
40
0.327407
50
332.632351
51
350.0704238
0
ARC
8
right_labelLayer
10
115.9114377
20
125.531337
40
0.2452513
50
313.6153094
51
332.2677536
0
ARC
8
right_labelLayer
10
115.8759301
20
125.5636677
40
0.2931717
50
269.1788311
51
314.2807546
0
ARC
8
right_labelLayer
10
115.8683983
20
125.589735
40
0.3192262
50
250.5001968
51
270.5977242
0
ARC
8
right_labelLayer
10
115.8587363
20
125.5536056
40
0.2819593
50
225.1301223
51
249.9002534
0
ARC
8
right_labelLayer
10
115.8436124
20
125.5368985
40
0.2594509
50
197.7934612
51
224.8941867
0
ARC
8
right_labelLayer
10
115.9851728
20
125.5854093
40
0.4090743
50
184.9923949
51
198.204029
0
ARC
8
right_labelLayer
10
116.1683491
20
125.6053243
40
0.5933017
50
179.880542
51
185.3689133
0
LINE
8
right_labelLayer
10
118.7537598
20
124.7074402
11
119.901123
21
124.7074402
0
LINE
8
right_labelLayer
10
119.901123
20
124.7074402
11
119.901123
21
124.3895691
0
LINE
8
right_labelLayer
10
119.901123
20
124.3895691
11
119.2865723
21
124.3169129
0
LINE
8
right_labelLayer
10
118.1543457
20
121.9162293
11
118.7416504
21
121.9162293
0
LINE
8
right_labelLayer
10
118.5812012
20
121.465155
11
117.9787598
21
121.465155
0
ARC
8
right_labelLayer
10
118.6461586
20
123.8100974
40
0.8166955
50
29.4584714
51
38.3576538
0
ARC
8
right_labelLayer
10
118.3124499
20
123.6195959
40
1.2009483
50
23.1845216
51
29.5422757
0
ARC
8
right_labelLayer
10
117.9943807
20
123.4785287
40
1.5488745
50
21.2504453
51
23.349249
0
ARC
8
right_labelLayer
10
118.5352681
20
123.6936382
40
0.9668094
50
6.8504577
51
20.9872521
0
ARC
8
right_labelLayer
10
118.2629873
20
123.6567198
40
1.2415568
50
359.8710031
51
7.0432488
0
ARC
8
right_labelLayer
10
118.3525598
20
123.6419452
40
1.1520435
50
342.5649491
51
0.5957957
0
ARC
8
right_labelLayer
10
118.565028
20
123.5832745
40
0.9317892
50
310.6097815
51
342.0923596
0
ARC
8
right_labelLayer
10
118.4458805
20
123.7218657
40
1.1145557
50
284.9316104
51
310.6222483
0
ARC
8
right_labelLayer
10
118.2967839
20
124.2443209
40
1.6578137
50
272.5334847
51
285.2579833
0
ARC
8
right_labelLayer
10
118.2584527
20
124.7678066
40
2.1825347
50
269.9690931
51
272.93131
0
ARC
8
right_labelLayer
10
118.2536931
20
124.2003694
40
1.6151012
50
263.4837018
51
270.1270829
0
ARC
8
right_labelLayer
10
118.2273732
20
123.9504013
40
1.3637629
50
259.4962665
51
263.3905173
0
ARC
8
right_labelLayer
10
118.3902013
20
121.81552
40
0.894245
50
117.3935214
51
128.4095857
0
ARC
8
right_labelLayer
10
118.1599889
20
122.1011147
40
0.5274382
50
128.0882447
51
147.1400526
0
ARC
8
right_labelLayer
10
118.0359622
20
122.1843459
40
0.3781049
50
147.5369035
51
180.259184
0
ARC
8
right_labelLayer
10
117.9183048
20
122.1794172
40
0.2604634
50
179.2920353
51
198.3579609
0
ARC
8
right_labelLayer
10
117.8695356
20
122.1666005
40
0.2101638
50
199.2291748
51
239.5690318
0
ARC
8
right_labelLayer
10
117.909669
20
122.221968
40
0.2783087
50
238.2181832
51
239.8473574
0
ARC
8
right_labelLayer
10
117.942229
20
122.2888329
40
0.352523
50
240.7303068
51
254.5025591
0
ARC
8
right_labelLayer
10
118.038443
20
122.6203872
40
0.6977429
50
254.1637365
51
262.2121919
0
ARC
8
right_labelLayer
10
118.1146516
20
123.1526765
40
1.2354539
50
262.0555346
51
267.208265
0
ARC
8
right_labelLayer
10
118.1514691
20
123.8279824
40
1.9117555
50
267.0919025
51
270.0862122
0
ARC
8
right_labelLayer
10
118.7526356
20
119.859139
40
2.0571196
50
81.5744834
51
90.3059676
0
ARC
8
right_labelLayer
10
118.8654744
20
120.5950592
40
1.3126139
50
68.3671353
51
81.7399739
0
ARC
8
right_labelLayer
10
119.0128457
20
120.9716887
40
0.9081844
50
52.18798
51
68.2500267
0
ARC
8
right_labelLayer
10
119.1159709
20
121.1106434
40
0.7351928
50
8.6201237
51
51.8982498
0
ARC
8
right_labelLayer
10
118.7545362
20
121.0341681
40
1.1042152
50
359.7431238
51
9.7326051
0
ARC
8
right_labelLayer
10
118.770734
20
121.0155416
40
1.0880921
50
340.5268654
51
0.7201556
0
ARC
8
right_labelLayer
10
118.9306013
20
120.9757359
40
0.9242343
50
302.9903402
51
339.5494741
0
ARC
8
right_labelLayer
10
118.7634169
20
121.1880521
40
1.1936027
50
303.1861244
51
304.1723549
0
ARC
8
right_labelLayer
10
118.6063774
20
121.4597865
40
1.5070731
50
286.2542459
51
302.5279906
0
ARC
8
right_labelLayer
10
118.3217535
20
122.3986117
40
2.4880609
50
276.4939886
51
286.4953505
0
ARC
8
right_labelLayer
10
118.1441642
20
123.8831605
40
3.9831788
50
269.7545348
51
276.61696
0
ARC
8
right_labelLayer
10
118.1138368
20
122.7155746
40
2.8155875
50
262.5634567
51
270.2698931
0
ARC
8
right_labelLayer
10
117.9759372
20
121.6934634
40
1.7842311
50
251.2102261
51
262.7063498
0
ARC
8
right_labelLayer
10
117.7771736
20
121.1100567
40
1.1678949
50
235.9668631
51
251.2228586
0
ARC
8
right_labelLayer
10
117.5664996
20
120.8095047
40
0.8009402
50
208.9036523
51
236.4231069
0
ARC
8
right_labelLayer
10
117.5858407
20
120.8013965
40
0.8141192
50
182.2080122
51
207.7461123
0
ARC
8
right_labelLayer
10
117.8318989
20
120.8259825
40
1.0610493
50
179.978237
51
183.0227645
0
ARC
8
right_labelLayer
10
117.5391376
20
120.8398664
40
0.7684063
50
138.3915894
51
181.0052485
0
ARC
8
right_labelLayer
10
117.6202821
20
120.766942
40
0.877503
50
113.8121204
51
138.3496238
0
ARC
8
right_labelLayer
10
117.7742023
20
120.4345666
40
1.2437459
50
102.2870429
51
114.1173057
0
ARC
8
right_labelLayer
10
117.7258403
20
122.1244211
40
0.5215718
50
216.5861883
51
245.496803
0
ARC
8
right_labelLayer
10
117.8008628
20
122.1880298
40
0.6197575
50
215.4657673
51
217.1741248
0
ARC
8
right_labelLayer
10
117.6761377
20
122.0979367
40
0.4659011
50
182.1767156
51
215.3415792
0
ARC
8
right_labelLayer
10
117.7867957
20
122.1098149
40
0.5769814
50
179.9836819
51
182.9380644
0
ARC
8
right_labelLayer
10
117.7844799
20
122.1148365
40
0.574686
50
161.7226613
51
180.4842718
0
ARC
8
right_labelLayer
10
117.7212952
20
122.1320759
40
0.5092941
50
144.496425
51
161.3349641
0
ARC
8
right_labelLayer
10
117.8897316
20
122.0065397
40
0.7193336
50
132.7259872
51
144.1478445
0
ARC
8
right_labelLayer
10
118.1596614
20
121.718288
40
1.1142341
50
125.2212354
51
132.8656238
0
ARC
8
right_labelLayer
10
118.4310864
20
121.3413824
40
1.5786864
50
121.2353586
51
125.3795071
0
ARC
8
right_labelLayer
10
117.9499494
20
123.50501
40
0.8809904
50
215.1640647
51
247.4748124
0
ARC
8
right_labelLayer
10
118.114442
20
123.6377551
40
1.0920016
50
212.4713747
51
215.8873837
0
ARC
8
right_labelLayer
10
118.0711567
20
123.6067912
40
1.0388639
50
183.0160811
51
212.3123155
0
ARC
8
right_labelLayer
10
118.2990734
20
123.6321978
40
1.2678723
50
179.9758044
51
183.6207045
0
ARC
8
right_labelLayer
10
118.4830673
20
123.6449971
40
1.451918
50
166.8195862
51
180.4839679
0
ARC
8
right_labelLayer
10
118.0014103
20
123.766605
40
0.9552589
50
132.3287864
51
167.334088
0
ARC
8
right_labelLayer
10
118.0658514
20
123.6739751
40
1.0672348
50
106.218938
51
131.5377119
0
ARC
8
right_labelLayer
10
118.2288935
20
123.1460588
40
1.6197054
50
93.6329722
51
106.5409055
0
ARC
8
right_labelLayer
10
118.282118
20
122.5485193
40
2.219469
50
89.9379543
51
94.0267737
0
ARC
8
right_labelLayer
10
118.2907395
20
122.8417438
40
1.9262533
50
82.5851916
51
90.1849524
0
ARC
8
right_labelLayer
10
118.3495912
20
123.2971049
40
1.4671052
50
74.008957
51
82.5693519
0
ARC
8
right_labelLayer
10
117.7598949
20
120.8255765
40
0.504717
50
179.2207996
51
200.9355956
0
ARC
8
right_labelLayer
10
117.6998755
20
120.8116793
40
0.4437751
50
202.0287533
51
236.1457052
0
ARC
8
right_labelLayer
10
117.7903023
20
120.9264917
40
0.5896023
50
235.0635172
51
238.5045
0
ARC
8
right_labelLayer
10
117.8954978
20
121.1143766
40
0.8048103
50
239.1067039
51
254.4862312
0
ARC
8
right_labelLayer
10
118.0357049
20
121.5978051
40
1.3081397
50
254.2323594
51
263.4937813
0
ARC
8
right_labelLayer
10
118.1237823
20
122.3438151
40
2.0593274
50
263.4108995
51
270.145727
0
ARC
8
right_labelLayer
10
118.1331519
20
122.9521246
40
2.6676335
50
269.9112551
51
270.0000512
0
ARC
8
right_labelLayer
10
118.1451999
20
123.662778
40
3.3783085
50
269.7957071
51
275.399103
0
ARC
8
right_labelLayer
10
118.2716341
20
122.3647886
40
2.0741844
50
275.2957401
51
283.3515508
0
ARC
8
right_labelLayer
10
118.4776348
20
121.5163039
40
1.2010706
50
283.1370581
51
295.8572483
0
ARC
8
right_labelLayer
10
118.6302634
20
121.1830879
40
0.8346871
50
296.4048723
51
301.8008503
0
ARC
8
right_labelLayer
10
118.6901175
20
121.1005839
40
0.7330643
50
301.223083
51
318.623777
0
ARC
8
right_labelLayer
10
118.8250956
20
120.9758982
40
0.5493785
50
319.0765956
51
1.1406688
0
ARC
8
right_labelLayer
10
118.6944654
20
120.9922219
40
0.6799211
50
359.5460251
51
10.9904077
0
ARC
8
right_labelLayer
10
118.9570972
20
121.0456408
40
0.4119289
50
10.6607952
51
30.9361992
0
ARC
8
right_labelLayer
10
119.0403671
20
121.0918531
40
0.3167637
50
31.5094936
51
58.0778066
0
ARC
8
right_labelLayer
10
118.9623177
20
120.952101
40
0.4767121
50
58.9973677
51
73.8584947
0
ARC
8
right_labelLayer
10
118.8045694
20
120.4356687
40
1.0166723
50
73.4101256
51
81.5906563
0
ARC
8
right_labelLayer
10
118.6709115
20
119.5706952
40
1.8919016
50
81.4173237
51
86.5756272
0
ARC
8
right_labelLayer
10
118.5890128
20
118.2676777
40
3.197487
50
86.5053502
51
90.1399762
0
ARC
8
right_labelLayer
10
117.9715723
20
120.3099826
40
1.1551948
50
89.6435116
51
100.0208735
0
ARC
8
right_labelLayer
10
117.898969
20
120.7049497
40
0.7536247
50
99.810379
51
116.8228983
0
ARC
8
right_labelLayer
10
117.8282408
20
120.8541059
40
0.5886168
50
117.2303756
51
130.5022507
0
ARC
8
right_labelLayer
10
117.7919277
20
120.9007784
40
0.5295501
50
130.7944933
51
169.0413764
0
ARC
8
right_labelLayer
10
118.0593425
20
120.837801
40
0.8041359
50
168.2580573
51
180.3819688
0
ARC
8
right_labelLayer
10
118.5086077
20
123.6373405
40
0.9809508
50
179.5618125
51
191.6528672
0
ARC
8
right_labelLayer
10
118.1675391
20
123.5636518
40
0.6320367
50
191.3554973
51
213.3659758
0
ARC
8
right_labelLayer
10
118.0856339
20
123.5163601
40
0.5376503
50
213.9574119
51
227.7970828
0
ARC
8
right_labelLayer
10
118.156891
20
123.6027847
40
0.64956
50
228.262056
51
254.7341641
0
ARC
8
right_labelLayer
10
118.2479318
20
123.9148697
40
0.9746202
50
254.4015925
51
267.4348257
0
ARC
8
right_labelLayer
10
118.2716862
20
124.2334449
40
1.2939738
50
267.0153884
51
270.0321403
0
ARC
8
right_labelLayer
10
118.2872066
20
124.034181
40
1.0948095
50
269.2257214
51
284.3773175
0
ARC
8
right_labelLayer
10
118.4364276
20
123.5142926
40
0.5543662
50
282.7796759
51
346.4828514
0
ARC
8
right_labelLayer
10
117.990302
20
123.6406611
40
1.017841
50
345.4361998
51
0.7466395
0
ARC
8
right_labelLayer
10
117.9275868
20
123.6693764
40
1.0805803
50
359.180667
51
15.0432063
0
ARC
8
right_labelLayer
10
118.4172171
20
123.8122075
40
0.5707614
50
13.9535573
51
77.6673964
0
ARC
8
right_labelLayer
10
118.2767378
20
123.3087887
40
1.0929719
50
76.1095247
51
90.7028804
0
ARC
8
right_labelLayer
10
118.2557097
20
123.3472391
40
1.0544669
50
89.5859344
51
101.3334293
0
ARC
8
right_labelLayer
10
118.1803522
20
123.706656
40
0.6872572
50
101.061971
51
121.9739736
0
ARC
8
right_labelLayer
10
118.1273938
20
123.8019221
40
0.5784272
50
122.5210266
51
134.9966293
0
ARC
8
right_labelLayer
10
118.1492004
20
123.7888572
40
0.6031162
50
135.5840003
51
163.0015635
0
ARC
8
right_labelLayer
10
118.467691
20
123.6844675
40
0.9382347
50
162.5911937
51
175.7342988
0
ARC
8
right_labelLayer
10
118.8496503
20
123.6468384
40
1.3219663
50
175.3392788
51
180.0865019
0
LINE
8
right_labelLayer
10
123.3553223
20
121.3894714
11
122.8527832
21
121.3894714
0
LINE
8
right_labelLayer
10
122.8527832
20
121.3894714
11
122.8527832
21
123.5358582
0
LINE
8
right_labelLayer
10
121.0848144
20
123.1241394
11
121.0848144
21
121.3894714
0
LINE
8
right_labelLayer
10
121.0848144
20
121.3894714
11
120.5822754
21
121.3894714
0
LINE
8
right_labelLayer
10
120.5822754
20
121.3894714
11
120.5822754
21
126.1000183
0
LINE
8
right_labelLayer
10
120.5822754
20
126.1000183
11
121.0848144
21
126.1000183
0
LINE
8
right_labelLayer
10
121.0848144
20
126.1000183
11
121.0848144
21
124.6741394
0
LINE
8
right_labelLayer
10
121.0605957
20
124.2472839
11
121.0908691
21
124.2472839
0
LINE
8
right_labelLayer
10
123.3553223
20
123.5540222
11
123.3553223
21
121.3894714
0
ARC
8
right_labelLayer
10
121.4322507
20
123.5440037
40
1.4205558
50
359.6714617
51
8.6877462
0
ARC
8
right_labelLayer
10
121.9587502
20
123.6275027
40
0.8874901
50
8.4931956
51
22.6580168
0
ARC
8
right_labelLayer
10
122.2262444
20
123.7386647
40
0.5978183
50
22.7025056
51
42.3418739
0
ARC
8
right_labelLayer
10
122.256317
20
123.752194
40
0.5665706
50
43.379038
51
71.5386281
0
ARC
8
right_labelLayer
10
122.1438789
20
123.4380131
40
0.9002165
50
71.0828126
51
84.3691776
0
ARC
8
right_labelLayer
10
122.0934052
20
123.008877
40
1.3322592
50
84.0197894
51
90.1510674
0
ARC
8
right_labelLayer
10
122.0790631
20
122.8204133
40
1.5207569
50
89.5919857
51
100.359549
0
ARC
8
right_labelLayer
10
121.9713774
20
123.3863094
40
0.9447304
50
100.1067601
51
118.0847973
0
ARC
8
right_labelLayer
10
121.8618572
20
123.6012132
40
0.7035863
50
118.4551179
51
139.6705464
0
ARC
8
right_labelLayer
10
121.971812
20
123.5260588
40
0.8361622
50
140.6208523
51
160.5048718
0
ARC
8
right_labelLayer
10
122.5513836
20
123.3115028
40
1.4541368
50
160.156675
51
171.5312801
0
ARC
8
right_labelLayer
10
123.4891865
20
123.1629208
40
2.4036121
50
171.3202664
51
178.340618
0
ARC
8
right_labelLayer
10
124.3281843
20
123.125439
40
3.2433701
50
178.1079516
51
180.0229587
0
ARC
8
right_labelLayer
10
116.5637552
20
124.6687556
40
4.5210624
50
357.8675225
51
0.0682297
0
ARC
8
right_labelLayer
10
118.0997777
20
124.6101637
40
2.9839238
50
354.9829025
51
357.8943215
0
ARC
8
right_labelLayer
10
119.1140421
20
124.5218458
40
1.9658218
50
351.9713797
51
354.9618887
0
ARC
8
right_labelLayer
10
121.9420846
20
123.7148195
40
1.0040349
50
119.831588
51
147.9726115
0
ARC
8
right_labelLayer
10
122.0636906
20
123.5280024
40
1.2266546
50
116.6659067
51
120.418241
0
ARC
8
right_labelLayer
10
122.0863649
20
123.4684192
40
1.2900926
50
96.665269
51
116.3782222
0
ARC
8
right_labelLayer
10
122.1352766
20
123.1309477
40
1.6309875
50
89.8927317
51
96.9958821
0
ARC
8
right_labelLayer
10
122.1509182
20
122.7231068
40
2.0388644
50
80.6862981
51
90.3537527
0
ARC
8
right_labelLayer
10
122.2778712
20
123.4698216
40
1.281455
50
65.602283
51
80.8844227
0
ARC
8
right_labelLayer
10
122.4303157
20
123.813163
40
0.905809
50
46.7401362
51
65.4130205
0
ARC
8
right_labelLayer
10
122.4406802
20
123.8458819
40
0.8750049
50
19.2204434
51
45.7660915
0
ARC
8
right_labelLayer
10
121.9361509
20
123.6588477
40
1.4130226
50
6.4733761
51
19.6468476
0
ARC
8
right_labelLayer
10
121.1822606
20
123.561817
40
2.1730756
50
359.7944807
51
6.774409
0
LINE
8
right_labelLayer
10
125.9134277
20
121.8042175
11
125.9134277
21
121.4197449
0
LINE
8
right_labelLayer
10
124.4239746
20
122.3430847
11
124.4239746
21
124.3169129
0
LINE
8
right_labelLayer
10
124.4239746
20
124.3169129
11
123.9486816
21
124.3169129
0
LINE
8
right_labelLayer
10
123.9486816
20
124.3169129
11
123.9486816
21
124.5591004
0
LINE
8
right_labelLayer
10
123.9486816
20
124.5591004
11
124.4239746
21
124.7679871
0
LINE
8
right_labelLayer
10
124.4239746
20
124.7679871
11
124.6358887
21
125.4763855
0
LINE
8
right_labelLayer
10
124.6358887
20
125.4763855
11
124.9265137
21
125.4763855
0
LINE
8
right_labelLayer
10
124.9265137
20
125.4763855
11
124.9265137
21
124.7074402
0
LINE
8
right_labelLayer
10
124.9265137
20
124.7074402
11
125.889209
21
124.7074402
0
LINE
8
right_labelLayer
10
125.889209
20
124.7074402
11
125.889209
21
124.3169129
0
LINE
8
right_labelLayer
10
125.889209
20
124.3169129
11
124.9265137
21
124.3169129
0
LINE
8
right_labelLayer
10
124.9265137
20
124.3169129
11
124.9265137
21
122.3642761
0
ARC
8
right_labelLayer
10
125.4627712
20
123.3940818
40
1.6504147
50
269.8804005
51
278.3028385
0
ARC
8
right_labelLayer
10
125.4783495
20
123.2666102
40
1.5220327
50
278.4154933
51
279.0077198
0
ARC
8
right_labelLayer
10
125.2933945
20
124.4481666
40
2.7179761
50
278.9588256
51
280.5105885
0
ARC
8
right_labelLayer
10
125.4697743
20
123.5018186
40
1.7553322
50
280.4847972
51
282.6268004
0
ARC
8
right_labelLayer
10
125.6245359
20
122.8142397
40
1.0505521
50
282.5878541
51
285.5793969
0
ARC
8
right_labelLayer
10
125.7005698
20
122.5342986
40
0.760478
50
285.7258892
51
286.2542432
0
ARC
8
right_labelLayer
10
125.7021476
20
121.8666153
40
0.4943
50
287.988759
51
295.3047588
0
ARC
8
right_labelLayer
10
125.5829205
20
122.2273298
40
0.874205
50
283.3070394
51
288.1197974
0
ARC
8
right_labelLayer
10
125.4569776
20
122.7526745
40
1.4144336
50
280.0071007
51
283.3736021
0
ARC
8
right_labelLayer
10
125.3730471
20
123.2079828
40
1.8774028
50
279.1859453
51
280.1149698
0
ARC
8
right_labelLayer
10
125.3209752
20
123.5042652
40
2.1782019
50
275.5261532
51
279.2939468
0
ARC
8
right_labelLayer
10
125.3792768
20
122.8953232
40
1.5664756
50
270.8932338
51
275.5484851
0
ARC
8
right_labelLayer
10
125.386599
20
122.6156683
40
1.2867439
50
270.0031568
51
270.7613563
0
ARC
8
right_labelLayer
10
125.3663914
20
122.6413302
40
1.3125623
50
253.7848204
51
270.8852293
0
ARC
8
right_labelLayer
10
125.2108877
20
122.111001
40
0.759907
50
190.3817581
51
253.8772333
0
ARC
8
right_labelLayer
10
126.0034767
20
122.3253047
40
1.5796022
50
179.3550656
51
192.8478047
0
ARC
8
right_labelLayer
10
125.9384454
20
122.3579471
40
1.0119516
50
179.6416544
51
189.7505428
0
ARC
8
right_labelLayer
10
125.5812058
20
122.2942299
40
0.6490854
50
189.5479545
51
205.7873196
0
ARC
8
right_labelLayer
10
125.4343924
20
122.2265294
40
0.4874491
50
206.1293589
51
221.4084105
0
ARC
8
right_labelLayer
10
125.4179336
20
122.2140406
40
0.4668469
50
221.5948938
51
262.3505019
0
ARC
8
right_labelLayer
10
125.4570822
20
122.4153441
40
0.6716773
50
261.3264635
51
270.1914162
0
LINE
8
bottom_outsideCutPath
10
141
20
65
11
141
21
58.5
0
LINE
8
bottom_outsideCutPath
10
141
20
58.5
11
138
21
58.5
0
LINE
8
bottom_outsideCutPath
10
138
20
58.5
11
138
21
46.5
0
LINE
8
bottom_outsideCutPath
10
138
20
46.5
11
141
21
46.5
0
LINE
8
bottom_outsideCutPath
10
141
20
46.5
11
141
21
40
0
LINE
8
bottom_outsideCutPath
10
141
20
40
11
146.5
21
40
0
LINE
8
bottom_outsideCutPath
10
146.5
20
40
11
146.5
21
37
0
LINE
8
bottom_outsideCutPath
10
146.5
20
37
11
158.5
21
37
0
LINE
8
bottom_outsideCutPath
10
158.5
20
37
11
158.5
21
40
0
LINE
8
bottom_outsideCutPath
10
158.5
20
40
11
170.5
21
40
0
LINE
8
bottom_outsideCutPath
10
170.5
20
40
11
170.5
21
37
0
LINE
8
bottom_outsideCutPath
10
170.5
20
37
11
182.5
21
37
0
LINE
8
bottom_outsideCutPath
10
182.5
20
37
11
182.5
21
40
0
LINE
8
bottom_outsideCutPath
10
182.5
20
40
11
194.5
21
40
0
LINE
8
bottom_outsideCutPath
10
194.5
20
40
11
194.5
21
37
0
LINE
8
bottom_outsideCutPath
10
194.5
20
37
11
206.5
21
37
0
LINE
8
bottom_outsideCutPath
10
206.5
20
37
11
206.5
21
40
0
LINE
8
bottom_outsideCutPath
10
206.5
20
40
11
218.5
21
40
0
LINE
8
bottom_outsideCutPath
10
218.5
20
40
11
218.5
21
37
0
LINE
8
bottom_outsideCutPath
10
218.5
20
37
11
230.5
21
37
0
LINE
8
bottom_outsideCutPath
10
230.5
20
37
11
230.5
21
40
0
LINE
8
bottom_outsideCutPath
10
230.5
20
40
11
236
21
40
0
LINE
8
bottom_outsideCutPath
10
236
20
40
11
236
21
46.5
0
LINE
8
bottom_outsideCutPath
10
236
20
46.5
11
239
21
46.5
0
LINE
8
bottom_outsideCutPath
10
239
20
46.5
11
239
21
58.5
0
LINE
8
bottom_outsideCutPath
10
239
20
58.5
11
236
21
58.5
0
LINE
8
bottom_outsideCutPath
10
236
20
58.5
11
236
21
65
0
LINE
8
bottom_outsideCutPath
10
236
20
65
11
230.5
21
65
0
LINE
8
bottom_outsideCutPath
10
230.5
20
65
11
230.5
21
68
0
LINE
8
bottom_outsideCutPath
10
230.5
20
68
11
218.5
21
68
0
LINE
8
bottom_outsideCutPath
10
218.5
20
68
11
218.5
21
65
0
LINE
8
bottom_outsideCutPath
10
218.5
20
65
11
206.5
21
65
0
LINE
8
bottom_outsideCutPath
10
206.5
20
65
11
206.5
21
68
0
LINE
8
bottom_outsideCutPath
10
206.5
20
68
11
194.5
21
68
0
LINE
8
bottom_outsideCutPath
10
194.5
20
68
11
194.5
21
65
0
LINE
8
bottom_outsideCutPath
10
194.5
20
65
11
182.5
21
65
0
LINE
8
bottom_outsideCutPath
10
182.5
20
65
11
182.5
21
68
0
LINE
8
bottom_outsideCutPath
10
182.5
20
68
11
170.5
21
68
0
LINE
8
bottom_outsideCutPath
10
170.5
20
68
11
170.5
21
65
0
LINE
8
bottom_outsideCutPath
10
170.5
20
65
11
158.5
21
65
0
LINE
8
bottom_outsideCutPath
10
158.5
20
65
11
158.5
21
68
0
LINE
8
bottom_outsideCutPath
10
158.5
20
68
11
146.5
21
68
0
LINE
8
bottom_outsideCutPath
10
146.5
20
68
11
146.5
21
65
0
LINE
8
bottom_outsideCutPath
10
146.5
20
65
11
141
21
65
0
LINE
8
bottom_labelLayer
10
178.8034033
20
50.6019338
11
178.7670752
21
50.6019338
0
LINE
8
bottom_labelLayer
10
178.7670752
20
50.6019338
11
178.6611181
21
50.1750783
0
LINE
8
bottom_labelLayer
10
178.6611181
20
50.1750783
11
178.3008642
21
50.1750783
0
LINE
8
bottom_labelLayer
10
178.3008642
20
50.1750783
11
178.3008642
21
54.8856252
0
LINE
8
bottom_labelLayer
10
178.3008642
20
54.8856252
11
178.8034033
21
54.8856252
0
LINE
8
bottom_labelLayer
10
178.8034033
20
54.8856252
11
178.8034033
21
53.7412893
0
LINE
8
bottom_labelLayer
10
178.7791845
20
53.0510549
11
178.8034033
21
53.0510549
0
ARC
8
bottom_labelLayer
10
179.8598857
20
52.0116809
40
1.5359324
50
74.2393426
51
90.5624052
0
ARC
8
bottom_labelLayer
10
179.9614471
20
52.3842619
40
1.1497776
50
38.5631153
51
74.0670652
0
ARC
8
bottom_labelLayer
10
179.7000846
20
52.1810373
40
1.4808335
50
16.4709048
51
38.4075224
0
ARC
8
bottom_labelLayer
10
178.9471271
20
51.9449322
40
2.269872
50
5.1338789
51
16.7973181
0
ARC
8
bottom_labelLayer
10
177.9966344
20
51.8439644
40
3.2256238
50
359.8778927
51
5.4093718
0
ARC
8
bottom_labelLayer
10
178.2758138
20
51.8197054
40
2.9464884
50
350.6562538
51
0.3380547
0
ARC
8
bottom_labelLayer
10
179.3029967
20
51.6449918
40
1.9045765
50
335.8305909
51
350.8254688
0
ARC
8
bottom_labelLayer
10
179.7548531
20
51.4499625
40
1.4124961
50
321.3160936
51
335.5436663
0
ARC
8
bottom_labelLayer
10
179.9275883
20
51.3092077
40
1.1896845
50
274.0640056
51
321.4081022
0
ARC
8
bottom_labelLayer
10
179.8471128
20
51.8189872
40
1.7044573
50
269.9225771
51
275.5481082
0
ARC
8
bottom_labelLayer
10
179.8363357
20
51.6388226
40
1.5243147
50
255.7755557
51
270.3185158
0
ARC
8
bottom_labelLayer
10
179.7928364
20
51.4455556
40
1.3262952
50
245.9801514
51
255.5455526
0
ARC
8
bottom_labelLayer
10
179.7085814
20
51.2496199
40
1.113034
50
215.5850256
51
245.8361529
0
ARC
8
bottom_labelLayer
10
168.3255386
20
53.7324372
40
10.4778685
50
358.112348
51
0.0484056
0
ARC
8
bottom_labelLayer
10
171.2418181
20
53.6345384
40
7.559947
50
355.7238698
51
358.1258688
0
ARC
8
bottom_labelLayer
10
172.5392468
20
53.5452829
40
6.2594796
50
355.4713987
51
355.6530814
0
ARC
8
bottom_labelLayer
10
179.7406166
20
52.3975108
40
1.1425799
50
95.1835088
51
145.1108982
0
ARC
8
bottom_labelLayer
10
179.8410469
20
51.8311849
40
1.7163587
50
89.8743932
51
96.8145901
0
ARC
8
bottom_labelLayer
10
179.7616324
20
51.7145998
40
1.4121778
50
89.5731348
51
100.732419
0
ARC
8
bottom_labelLayer
10
179.6570919
20
52.242775
40
0.8737848
50
100.4469379
51
119.670061
0
ARC
8
bottom_labelLayer
10
179.5601521
20
52.4240161
40
0.6683429
50
120.1402979
51
142.4248619
0
ARC
8
bottom_labelLayer
10
179.7205324
20
52.3179199
40
0.8602599
50
143.3382323
51
161.2559667
0
ARC
8
bottom_labelLayer
10
180.3911985
20
52.0798099
40
1.5719023
50
160.8925919
51
171.2334707
0
ARC
8
bottom_labelLayer
10
181.5108353
20
51.8991867
40
2.7059989
50
171.0668153
51
177.8457176
0
ARC
8
bottom_labelLayer
10
182.6754071
20
51.8399598
40
3.8720049
50
177.6177145
51
180.0424655
0
ARC
8
bottom_labelLayer
10
182.1261116
20
51.8241153
40
3.3227337
50
179.776268
51
185.7075501
0
ARC
8
bottom_labelLayer
10
180.8160784
20
51.6891324
40
2.0057749
50
185.5924391
51
194.2050514
0
ARC
8
bottom_labelLayer
10
179.9768857
20
51.4713339
40
1.1388072
50
193.9430679
51
208.0218619
0
ARC
8
bottom_labelLayer
10
179.6373382
20
51.2985951
40
0.757944
50
208.5535925
51
217.5605457
0
ARC
8
bottom_labelLayer
10
179.6096791
20
51.2870918
40
0.729047
50
218.1690109
51
253.8047307
0
ARC
8
bottom_labelLayer
10
179.7449041
20
51.7040012
40
1.1672069
50
253.1382097
51
266.8482974
0
ARC
8
bottom_labelLayer
10
179.782826
20
52.1512491
40
1.6159176
50
266.3776013
51
270.0509404
0
ARC
8
bottom_labelLayer
10
179.7949832
20
51.5370758
40
1.0018009
50
269.3868529
51
285.863123
0
ARC
8
bottom_labelLayer
10
179.8694104
20
51.268089
40
0.7227166
50
286.0162924
51
326.8497281
0
ARC
8
bottom_labelLayer
10
179.5101795
20
51.5060655
40
1.1536164
50
326.7105343
51
343.6661582
0
ARC
8
bottom_labelLayer
10
178.8377237
20
51.7115449
40
1.8567367
50
343.4171618
51
353.6369073
0
ARC
8
bottom_labelLayer
10
177.8220379
20
51.8320609
40
2.8795311
50
353.4935191
51
0.2205427
0
ARC
8
bottom_labelLayer
10
177.7325166
20
51.8551627
40
2.9690556
50
359.768081
51
6.3095
0
ARC
8
bottom_labelLayer
10
178.8509141
20
51.9835053
40
1.8433335
50
6.1648318
51
16.0396529
0
ARC
8
bottom_labelLayer
10
179.5713532
20
52.1958198
40
1.0922889
50
15.7778999
51
32.0151728
0
ARC
8
bottom_labelLayer
10
179.7963237
20
52.3246862
40
0.8332769
50
32.7027771
51
35.5249033
0
ARC
8
bottom_labelLayer
10
179.878174
20
52.3828727
40
0.7328524
50
35.5408351
51
79.8011216
0
ARC
8
bottom_labelLayer
10
179.7797603
20
51.9644946
40
1.1622687
50
78.6781559
51
90.3749995
0
ARC
8
bottom_labelLayer
10
182.3682835
20
51.8195903
40
2.5958233
50
349.1762049
51
0.386263
0
ARC
8
bottom_labelLayer
10
183.2422354
20
51.6453671
40
1.7047167
50
330.2507289
51
349.4116393
0
ARC
8
bottom_labelLayer
10
183.5111979
20
51.5055707
40
1.4018863
50
318.143982
51
329.7566515
0
ARC
8
bottom_labelLayer
10
183.5597391
20
51.4666702
40
1.3397792
50
278.8959194
51
317.9979142
0
ARC
8
bottom_labelLayer
10
183.434662
20
52.0659232
40
1.9514103
50
269.750288
51
279.8033376
0
ARC
8
bottom_labelLayer
10
183.4143763
20
51.7282824
40
1.613794
50
253.5437167
51
270.4182689
0
ARC
8
bottom_labelLayer
10
183.3606533
20
51.5204711
40
1.3992956
50
238.8114938
51
253.2428736
0
ARC
8
bottom_labelLayer
10
183.3433194
20
51.4856145
40
1.3605043
50
207.7946982
51
238.675802
0
ARC
8
bottom_labelLayer
10
183.5921174
20
51.6379926
40
1.6517585
50
205.6561373
51
208.4462063
0
ARC
8
bottom_labelLayer
10
183.7837203
20
51.717822
40
1.8590671
50
188.9102666
51
205.3171419
0
ARC
8
bottom_labelLayer
10
184.4294959
20
51.8271956
40
2.5140028
50
179.7744975
51
189.0933023
0
ARC
8
bottom_labelLayer
10
184.5247546
20
51.8547633
40
2.6093018
50
169.2442985
51
180.3880766
0
ARC
8
bottom_labelLayer
10
183.6386543
20
52.0299137
40
1.7060949
50
150.711151
51
169.4695645
0
ARC
8
bottom_labelLayer
10
183.355787
20
52.1751762
40
1.388373
50
138.1759579
51
150.2287415
0
ARC
8
bottom_labelLayer
10
183.308732
20
52.2112853
40
1.329236
50
99.1759217
51
137.9832778
0
ARC
8
bottom_labelLayer
10
183.4382407
20
51.6018114
40
1.9518039
50
89.7326335
51
100.0760176
0
ARC
8
bottom_labelLayer
10
183.4641256
20
51.8650245
40
1.6886528
50
73.5222378
51
90.5692493
0
ARC
8
bottom_labelLayer
10
183.5631552
20
52.2248206
40
1.3155637
50
41.1445667
51
73.213397
0
ARC
8
bottom_labelLayer
10
183.3741162
20
52.0623438
40
1.5648244
50
13.501418
51
41.0703539
0
ARC
8
bottom_labelLayer
10
182.643749
20
51.8712174
40
2.3196802
50
1.1277555
51
13.8799705
0
ARC
8
bottom_labelLayer
10
182.0146517
20
51.837507
40
2.9493962
50
359.9919006
51
1.5419696
0
ARC
8
bottom_labelLayer
10
184.9810209
20
51.8240301
40
2.5448386
50
179.7059606
51
187.9161061
0
ARC
8
bottom_labelLayer
10
184.0476649
20
51.6899537
40
1.6019171
50
187.7639459
51
200.0976625
0
ARC
8
bottom_labelLayer
10
183.5334657
20
51.5015509
40
1.0542892
50
200.0845791
51
216.9132046
0
ARC
8
bottom_labelLayer
10
183.3457044
20
51.3674793
40
0.8236603
50
217.300933
51
261.7099185
0
ARC
8
bottom_labelLayer
10
183.4328712
20
51.7834196
40
1.2480991
50
260.5032428
51
270.2476837
0
ARC
8
bottom_labelLayer
10
183.4495088
20
51.7025437
40
1.1672656
50
269.4481605
51
284.7256125
0
ARC
8
bottom_labelLayer
10
183.5419145
20
51.3598436
40
0.8123364
50
284.5662449
51
322.6334099
0
ARC
8
bottom_labelLayer
10
183.325862
20
51.5159316
40
1.0788033
50
323.0089613
51
342.6390231
0
ARC
8
bottom_labelLayer
10
182.7079289
20
51.7178908
40
1.7288688
50
342.3615333
51
353.7538012
0
ARC
8
bottom_labelLayer
10
181.7962439
20
51.8277843
40
2.6471172
50
353.536294
51
0.2014192
0
ARC
8
bottom_labelLayer
10
181.9359162
20
51.849888
40
2.5074612
50
359.7075641
51
7.8972569
0
ARC
8
bottom_labelLayer
10
182.8542246
20
51.9815355
40
1.5797796
50
7.7439855
51
20.0690408
0
ARC
8
bottom_labelLayer
10
183.3659371
20
52.1693163
40
1.0347013
50
20.0256628
51
37.4350628
0
ARC
8
bottom_labelLayer
10
183.5357163
20
52.289789
40
0.8266929
50
37.9577722
51
80.4005894
0
ARC
8
bottom_labelLayer
10
183.4392359
20
51.8593011
40
1.2674567
50
79.3453499
51
90.317524
0
ARC
8
bottom_labelLayer
10
183.4213707
20
51.9307976
40
1.19599
50
89.4806305
51
103.8804731
0
ARC
8
bottom_labelLayer
10
183.320876
20
52.3134829
40
0.8003921
50
103.468502
51
142.3119039
0
ARC
8
bottom_labelLayer
10
183.516244
20
52.176086
40
1.0390512
50
142.9025788
51
162.374966
0
ARC
8
bottom_labelLayer
10
184.1318485
20
51.9709379
40
1.687899
50
162.0653329
51
173.1674983
0
ARC
8
bottom_labelLayer
10
185.0917401
20
51.8485094
40
2.6555488
50
173.0086271
51
180.246384
0
LINE
8
bottom_labelLayer
10
187.3707861
20
50.5898244
11
187.3707861
21
50.2053518
0
LINE
8
bottom_labelLayer
10
185.881333
20
51.1286916
11
185.881333
21
53.1025197
0
LINE
8
bottom_labelLayer
10
185.881333
20
53.1025197
11
185.40604
21
53.1025197
0
LINE
8
bottom_labelLayer
10
185.40604
20
53.1025197
11
185.40604
21
53.3447072
0
LINE
8
bottom_labelLayer
10
185.40604
20
53.3447072
11
185.881333
21
53.553594
0
LINE
8
bottom_labelLayer
10
185.881333
20
53.553594
11
186.093247
21
54.2619924
0
LINE
8
bottom_labelLayer
10
186.093247
20
54.2619924
11
186.383872
21
54.2619924
0
LINE
8
bottom_labelLayer
10
186.383872
20
54.2619924
11
186.383872
21
53.4930471
0
LINE
8
bottom_labelLayer
10
186.383872
20
53.4930471
11
187.3465674
21
53.4930471
0
LINE
8
bottom_labelLayer
10
187.3465674
20
53.4930471
11
187.3465674
21
53.1025197
0
LINE
8
bottom_labelLayer
10
187.3465674
20
53.1025197
11
186.383872
21
53.1025197
0
LINE
8
bottom_labelLayer
10
186.383872
20
53.1025197
11
186.383872
21
51.149883
0
ARC
8
bottom_labelLayer
10
186.9201296
20
52.1796887
40
1.6504147
50
269.8804005
51
278.3028385
0
ARC
8
bottom_labelLayer
10
186.9357079
20
52.0522171
40
1.5220327
50
278.4154933
51
279.0077198
0
ARC
8
bottom_labelLayer
10
186.7507529
20
53.2337734
40
2.7179761
50
278.9588256
51
280.5105885
0
ARC
8
bottom_labelLayer
10
186.9271327
20
52.2874255
40
1.7553322
50
280.4847972
51
282.6268004
0
ARC
8
bottom_labelLayer
10
187.0818943
20
51.5998466
40
1.0505521
50
282.5878541
51
285.5793969
0
ARC
8
bottom_labelLayer
10
187.1579282
20
51.3199055
40
0.760478
50
285.7258892
51
286.2542432
0
ARC
8
bottom_labelLayer
10
187.159506
20
50.6522222
40
0.4943
50
287.988759
51
295.3047588
0
ARC
8
bottom_labelLayer
10
187.0402789
20
51.0129367
40
0.874205
50
283.3070394
51
288.1197974
0
ARC
8
bottom_labelLayer
10
186.914336
20
51.5382814
40
1.4144336
50
280.0071007
51
283.3736021
0
ARC
8
bottom_labelLayer
10
186.8304055
20
51.9935897
40
1.8774028
50
279.1859453
51
280.1149698
0
ARC
8
bottom_labelLayer
10
186.7783336
20
52.289872
40
2.1782019
50
275.5261532
51
279.2939468
0
ARC
8
bottom_labelLayer
10
186.8366352
20
51.6809301
40
1.5664756
50
270.8932338
51
275.5484851
0
ARC
8
bottom_labelLayer
10
186.8439574
20
51.4012752
40
1.2867439
50
270.0031568
51
270.7613563
0
ARC
8
bottom_labelLayer
10
186.8237498
20
51.4269371
40
1.3125623
50
253.7848204
51
270.8852293
0
ARC
8
bottom_labelLayer
10
186.6682461
20
50.8966079
40
0.759907
50
190.3817581
51
253.8772333
0
ARC
8
bottom_labelLayer
10
187.4608351
20
51.1109116
40
1.5796022
50
179.3550656
51
192.8478047
0
ARC
8
bottom_labelLayer
10
187.3958038
20
51.143554
40
1.0119516
50
179.6416544
51
189.7505428
0
ARC
8
bottom_labelLayer
10
187.0385642
20
51.0798368
40
0.6490854
50
189.5479545
51
205.7873196
0
ARC
8
bottom_labelLayer
10
186.8917508
20
51.0121363
40
0.4874491
50
206.1293589
51
221.4084105
0
ARC
8
bottom_labelLayer
10
186.875292
20
50.9996475
40
0.4668469
50
221.5948938
51
262.3505019
0
ARC
8
bottom_labelLayer
10
186.9144406
20
51.200951
40
0.6716773
50
261.3264635
51
270.1914162
0
LINE
8
bottom_labelLayer
10
189.5595556
20
50.5898244
11
189.5595556
21
50.2053518
0
LINE
8
bottom_labelLayer
10
188.0701025
20
51.1286916
11
188.0701025
21
53.1025197
0
LINE
8
bottom_labelLayer
10
188.0701025
20
53.1025197
11
187.5948095
21
53.1025197
0
LINE
8
bottom_labelLayer
10
187.5948095
20
53.1025197
11
187.5948095
21
53.3447072
0
LINE
8
bottom_labelLayer
10
187.5948095
20
53.3447072
11
188.0701025
21
53.553594
0
LINE
8
bottom_labelLayer
10
188.0701025
20
53.553594
11
188.2820166
21
54.2619924
0
LINE
8
bottom_labelLayer
10
188.2820166
20
54.2619924
11
188.5726416
21
54.2619924
0
LINE
8
bottom_labelLayer
10
188.5726416
20
54.2619924
11
188.5726416
21
53.4930471
0
LINE
8
bottom_labelLayer
10
188.5726416
20
53.4930471
11
189.5353369
21
53.4930471
0
LINE
8
bottom_labelLayer
10
189.5353369
20
53.4930471
11
189.5353369
21
53.1025197
0
LINE
8
bottom_labelLayer
10
189.5353369
20
53.1025197
11
188.5726416
21
53.1025197
0
LINE
8
bottom_labelLayer
10
188.5726416
20
53.1025197
11
188.5726416
21
51.149883
0
ARC
8
bottom_labelLayer
10
189.1088992
20
52.1796887
40
1.6504147
50
269.8804005
51
278.3028385
0
ARC
8
bottom_labelLayer
10
189.1244774
20
52.0522171
40
1.5220327
50
278.4154933
51
279.0077198
0
ARC
8
bottom_labelLayer
10
188.9395224
20
53.2337734
40
2.7179761
50
278.9588256
51
280.5105885
0
ARC
8
bottom_labelLayer
10
189.1159022
20
52.2874255
40
1.7553322
50
280.4847972
51
282.6268004
0
ARC
8
bottom_labelLayer
10
189.2706638
20
51.5998466
40
1.0505521
50
282.5878541
51
285.5793969
0
ARC
8
bottom_labelLayer
10
189.3466978
20
51.3199055
40
0.760478
50
285.7258892
51
286.2542432
0
ARC
8
bottom_labelLayer
10
189.3482755
20
50.6522222
40
0.4943
50
287.988759
51
295.3047588
0
ARC
8
bottom_labelLayer
10
189.2290484
20
51.0129367
40
0.874205
50
283.3070394
51
288.1197974
0
ARC
8
bottom_labelLayer
10
189.1031055
20
51.5382814
40
1.4144336
50
280.0071007
51
283.3736021
0
ARC
8
bottom_labelLayer
10
189.0191751
20
51.9935897
40
1.8774028
50
279.1859453
51
280.1149698
0
ARC
8
bottom_labelLayer
10
188.9671032
20
52.289872
40
2.1782019
50
275.5261532
51
279.2939468
0
ARC
8
bottom_labelLayer
10
189.0254047
20
51.6809301
40
1.5664756
50
270.8932338
51
275.5484851
0
ARC
8
bottom_labelLayer
10
189.0327269
20
51.4012752
40
1.2867439
50
270.0031568
51
270.7613563
0
ARC
8
bottom_labelLayer
10
189.0125193
20
51.4269371
40
1.3125623
50
253.7848204
51
270.8852293
0
ARC
8
bottom_labelLayer
10
188.8570156
20
50.8966079
40
0.759907
50
190.3817581
51
253.8772333
0
ARC
8
bottom_labelLayer
10
189.6496046
20
51.1109116
40
1.5796022
50
179.3550656
51
192.8478047
0
ARC
8
bottom_labelLayer
10
189.5845734
20
51.143554
40
1.0119516
50
179.6416544
51
189.7505428
0
ARC
8
bottom_labelLayer
10
189.2273338
20
51.0798368
40
0.6490854
50
189.5479545
51
205.7873196
0
ARC
8
bottom_labelLayer
10
189.0805203
20
51.0121363
40
0.4874491
50
206.1293589
51
221.4084105
0
ARC
8
bottom_labelLayer
10
189.0640615
20
50.9996475
40
0.4668469
50
221.5948938
51
262.3505019
0
ARC
8
bottom_labelLayer
10
189.1032101
20
51.200951
40
0.6716773
50
261.3264635
51
270.1914162
0
ARC
8
bottom_labelLayer
10
190.4906468
20
51.8195903
40
2.5958233
50
349.1762049
51
0.386263
0
ARC
8
bottom_labelLayer
10
191.3645987
20
51.6453671
40
1.7047167
50
330.2507289
51
349.4116393
0
ARC
8
bottom_labelLayer
10
191.6335612
20
51.5055707
40
1.4018863
50
318.143982
51
329.7566515
0
ARC
8
bottom_labelLayer
10
191.6821024
20
51.4666702
40
1.3397792
50
278.8959194
51
317.9979142
0
ARC
8
bottom_labelLayer
10
191.5570253
20
52.0659232
40
1.9514103
50
269.750288
51
279.8033376
0
ARC
8
bottom_labelLayer
10
191.5367396
20
51.7282824
40
1.613794
50
253.5437167
51
270.4182689
0
ARC
8
bottom_labelLayer
10
191.4830166
20
51.5204711
40
1.3992956
50
238.8114938
51
253.2428736
0
ARC
8
bottom_labelLayer
10
191.4656826
20
51.4856145
40
1.3605043
50
207.7946982
51
238.675802
0
ARC
8
bottom_labelLayer
10
191.7144807
20
51.6379926
40
1.6517585
50
205.6561373
51
208.4462063
0
ARC
8
bottom_labelLayer
10
191.9060836
20
51.717822
40
1.8590671
50
188.9102666
51
205.3171419
0
ARC
8
bottom_labelLayer
10
192.5518592
20
51.8271956
40
2.5140028
50
179.7744975
51
189.0933023
0
ARC
8
bottom_labelLayer
10
192.6471179
20
51.8547633
40
2.6093018
50
169.2442985
51
180.3880766
0
ARC
8
bottom_labelLayer
10
191.7610175
20
52.0299137
40
1.7060949
50
150.711151
51
169.4695645
0
ARC
8
bottom_labelLayer
10
191.4781503
20
52.1751762
40
1.388373
50
138.1759579
51
150.2287415
0
ARC
8
bottom_labelLayer
10
191.4310953
20
52.2112853
40
1.329236
50
99.1759217
51
137.9832778
0
ARC
8
bottom_labelLayer
10
191.560604
20
51.6018114
40
1.9518039
50
89.7326335
51
100.0760176
0
ARC
8
bottom_labelLayer
10
191.5864888
20
51.8650245
40
1.6886528
50
73.5222378
51
90.5692493
0
ARC
8
bottom_labelLayer
10
191.6855185
20
52.2248206
40
1.3155637
50
41.1445667
51
73.213397
0
ARC
8
bottom_labelLayer
10
191.4964795
20
52.0623438
40
1.5648244
50
13.501418
51
41.0703539
0
ARC
8
bottom_labelLayer
10
190.7661122
20
51.8712174
40
2.3196802
50
1.1277555
51
13.8799705
0
ARC
8
bottom_labelLayer
10
190.137015
20
51.837507
40
2.9493962
50
359.9919006
51
1.5419696
0
ARC
8
bottom_labelLayer
10
193.1033842
20
51.8240301
40
2.5448386
50
179.7059606
51
187.9161061
0
ARC
8
bottom_labelLayer
10
192.1700282
20
51.6899537
40
1.6019171
50
187.7639459
51
200.0976625
0
ARC
8
bottom_labelLayer
10
191.655829
20
51.5015509
40
1.0542892
50
200.0845791
51
216.9132046
0
ARC
8
bottom_labelLayer
10
191.4680677
20
51.3674793
40
0.8236603
50
217.300933
51
261.7099185
0
ARC
8
bottom_labelLayer
10
191.5552345
20
51.7834196
40
1.2480991
50
260.5032428
51
270.2476837
0
ARC
8
bottom_labelLayer
10
191.5718721
20
51.7025437
40
1.1672656
50
269.4481605
51
284.7256125
0
ARC
8
bottom_labelLayer
10
191.6642778
20
51.3598436
40
0.8123364
50
284.5662449
51
322.6334099
0
ARC
8
bottom_labelLayer
10
191.4482253
20
51.5159316
40
1.0788033
50
323.0089613
51
342.6390231
0
ARC
8
bottom_labelLayer
10
190.8302922
20
51.7178908
40
1.7288688
50
342.3615333
51
353.7538012
0
ARC
8
bottom_labelLayer
10
189.9186072
20
51.8277843
40
2.6471172
50
353.536294
51
0.2014192
0
ARC
8
bottom_labelLayer
10
190.0582794
20
51.849888
40
2.5074612
50
359.7075641
51
7.8972569
0
ARC
8
bottom_labelLayer
10
190.9765878
20
51.9815355
40
1.5797796
50
7.7439855
51
20.0690408
0
ARC
8
bottom_labelLayer
10
191.4883004
20
52.1693163
40
1.0347013
50
20.0256628
51
37.4350628
0
ARC
8
bottom_labelLayer
10
191.6580796
20
52.289789
40
0.8266929
50
37.9577722
51
80.4005894
0
ARC
8
bottom_labelLayer
10
191.5615992
20
51.8593011
40
1.2674567
50
79.3453499
51
90.317524
0
ARC
8
bottom_labelLayer
10
191.543734
20
51.9307976
40
1.19599
50
89.4806305
51
103.8804731
0
ARC
8
bottom_labelLayer
10
191.4432393
20
52.3134829
40
0.8003921
50
103.468502
51
142.3119039
0
ARC
8
bottom_labelLayer
10
191.6386073
20
52.176086
40
1.0390512
50
142.9025788
51
162.374966
0
ARC
8
bottom_labelLayer
10
192.2542118
20
51.9709379
40
1.687899
50
162.0653329
51
173.1674983
0
ARC
8
bottom_labelLayer
10
193.2141033
20
51.8485094
40
2.6555488
50
173.0086271
51
180.246384
0
LINE
8
bottom_labelLayer
10
198.6991064
20
50.1750783
11
198.1965674
21
50.1750783
0
LINE
8
bottom_labelLayer
10
198.1965674
20
50.1750783
11
198.1965674
21
52.3335744
0
LINE
8
bottom_labelLayer
10
196.5829931
20
52.0278127
11
196.5829931
21
50.1750783
0
LINE
8
bottom_labelLayer
10
196.5829931
20
50.1750783
11
196.0804541
21
50.1750783
0
LINE
8
bottom_labelLayer
10
196.0804541
20
50.1750783
11
196.0804541
21
52.3335744
0
LINE
8
bottom_labelLayer
10
194.4699072
20
51.915801
11
194.4699072
21
50.1750783
0
LINE
8
bottom_labelLayer
10
194.4699072
20
50.1750783
11
193.9673681
21
50.1750783
0
LINE
8
bottom_labelLayer
10
193.9673681
20
50.1750783
11
193.9673681
21
53.4930471
0
LINE
8
bottom_labelLayer
10
193.9673681
20
53.4930471
11
194.3760595
21
53.4930471
0
LINE
8
bottom_labelLayer
10
194.3760595
20
53.4930471
11
194.4577978
21
53.0389455
0
LINE
8
bottom_labelLayer
10
194.4577978
20
53.0389455
11
194.4820166
21
53.0389455
0
LINE
8
bottom_labelLayer
10
196.4800635
20
52.990508
11
196.5042822
21
52.990508
0
LINE
8
bottom_labelLayer
10
198.6991064
20
52.3396291
11
198.6991064
21
50.1750783
0
ARC
8
bottom_labelLayer
10
196.7140602
20
52.3414707
40
1.4825282
50
359.6948296
51
8.1471575
0
ARC
8
bottom_labelLayer
10
197.2601196
20
52.422281
40
0.9305315
50
7.9864895
51
20.7949704
0
ARC
8
bottom_labelLayer
10
197.5619703
20
52.5379098
40
0.607294
50
20.7070578
51
40.0217676
0
ARC
8
bottom_labelLayer
10
197.6281864
20
52.5812327
40
0.5288092
50
41.0408867
51
73.179231
0
ARC
8
bottom_labelLayer
10
197.5323696
20
52.2914306
40
0.8339765
50
72.639595
51
86.2568275
0
ARC
8
bottom_labelLayer
10
197.5016735
20
51.9601945
40
1.1665448
50
85.8144757
51
90.0685244
0
ARC
8
bottom_labelLayer
10
197.4903962
20
51.833667
40
1.2931092
50
89.5621352
51
101.296197
0
ARC
8
bottom_labelLayer
10
197.3930028
20
52.2999188
40
0.816823
50
101.0032134
51
121.7840412
0
ARC
8
bottom_labelLayer
10
197.3189647
20
52.4321014
40
0.6654989
50
122.3598358
51
140.2883451
0
ARC
8
bottom_labelLayer
10
197.4521734
20
52.3344295
40
0.8304373
50
140.9765338
51
161.1698869
0
ARC
8
bottom_labelLayer
10
197.953993
20
52.1558426
40
1.3630587
50
160.8731196
51
172.5273179
0
ARC
8
bottom_labelLayer
10
198.7925675
20
52.0400267
40
2.209581
50
172.377626
51
180.18292
0
ARC
8
bottom_labelLayer
10
199.353041
20
52.0278157
40
2.7700479
50
179.8933376
51
180.0000624
0
ARC
8
bottom_labelLayer
10
194.5979469
20
52.3414707
40
1.4825282
50
359.6948296
51
8.1471575
0
ARC
8
bottom_labelLayer
10
195.1440063
20
52.422281
40
0.9305315
50
7.9864895
51
20.7949704
0
ARC
8
bottom_labelLayer
10
195.445857
20
52.5379098
40
0.607294
50
20.7070578
51
40.0217676
0
ARC
8
bottom_labelLayer
10
195.5134512
20
52.5821863
40
0.5271437
50
41.0610615
51
72.8993824
0
ARC
8
bottom_labelLayer
10
195.4158171
20
52.2915165
40
0.8337093
50
72.3601653
51
85.9561591
0
ARC
8
bottom_labelLayer
10
195.3827698
20
51.9499852
40
1.1767544
50
85.5237736
51
90.0794686
0
ARC
8
bottom_labelLayer
10
195.3714942
20
51.8786165
40
1.2481592
50
89.55732
51
101.4832455
0
ARC
8
bottom_labelLayer
10
195.275693
20
52.3274611
40
0.78924
50
101.1546044
51
123.0655461
0
ARC
8
bottom_labelLayer
10
195.2105743
20
52.4408966
40
0.6586876
50
123.7020831
51
142.3022045
0
ARC
8
bottom_labelLayer
10
195.3631122
20
52.3374131
40
0.8427397
50
143.0769724
51
161.3914123
0
ARC
8
bottom_labelLayer
10
195.9779892
20
52.1202523
40
1.4947985
50
161.023453
51
171.4469448
0
ARC
8
bottom_labelLayer
10
196.9959572
20
51.9607929
40
2.5251688
50
171.3042596
51
178.3501028
0
ARC
8
bottom_labelLayer
10
197.9689601
20
51.9173471
40
3.4990531
50
178.0977209
51
180.0253175
0
ARC
8
bottom_labelLayer
10
195.3333863
20
52.5382977
40
0.9876632
50
117.120964
51
149.5423479
0
ARC
8
bottom_labelLayer
10
195.4341848
20
52.3591407
40
1.1930995
50
93.8343184
51
117.5072114
0
ARC
8
bottom_labelLayer
10
195.4620232
20
52.1125475
40
1.4410465
50
89.9660949
51
94.2830516
0
ARC
8
bottom_labelLayer
10
195.4787069
20
51.9083564
40
1.6453137
50
77.5572045
51
90.5512985
0
ARC
8
bottom_labelLayer
10
195.6313731
20
52.5650021
40
0.9712272
50
52.7027356
51
78.0053422
0
ARC
8
bottom_labelLayer
10
195.6857663
20
52.6662029
40
0.8579521
50
22.2097992
51
51.4970489
0
ARC
8
bottom_labelLayer
10
197.4146542
20
52.4687719
40
1.0492787
50
119.4041954
51
150.1828861
0
ARC
8
bottom_labelLayer
10
197.5307409
20
52.2923119
40
1.2600848
50
118.2578978
51
120.0633445
0
ARC
8
bottom_labelLayer
10
197.5306927
20
52.2788705
40
1.2719177
50
95.8635299
51
117.9693153
0
ARC
8
bottom_labelLayer
10
197.5737407
20
51.967602
40
1.5859937
50
89.919758
51
96.2617816
0
ARC
8
bottom_labelLayer
10
197.5875596
20
51.8067841
40
1.7468483
50
79.9361033
51
90.3804036
0
ARC
8
bottom_labelLayer
10
197.7039524
20
52.4371582
40
1.1058431
50
62.9723733
51
80.1664757
0
ARC
8
bottom_labelLayer
10
197.8256305
20
52.6867957
40
0.8281916
50
44.2290281
51
62.6229355
0
ARC
8
bottom_labelLayer
10
197.7894398
20
52.6708081
40
0.8653858
50
19.5612278
51
43.3161113
0
ARC
8
bottom_labelLayer
10
197.2638467
20
52.473396
40
1.4267755
50
7.5042284
51
19.9645054
0
ARC
8
bottom_labelLayer
10
196.3941695
20
52.3512673
40
2.3049662
50
359.7107027
51
7.6907468
0
ENDSEC
0
EOF